<svg width="213" height="448" viewBox="0 0 213 448" fill="none" xmlns="http://www.w3.org/2000/svg">
<g clip-path="url(#clip0_275_43739)">
<path d="M107.5 447C160.243 447 203 438.27 203 427.5C203 416.73 160.243 408 107.5 408C54.7568 408 12 416.73 12 427.5C12 438.27 54.7568 447 107.5 447Z" stroke="url(#paint0_linear_275_43739)" stroke-width="1.5" stroke-linecap="round" stroke-dasharray="6 6"/>
<path d="M98.4858 311.717C94.8715 308.174 88.5416 308.805 84.9562 311.999C85.3814 311.882 85.797 311.747 86.2222 311.611C90.0202 310.096 94.6975 310.485 98.4858 311.717ZM96.7525 432.301C95.8986 432.224 95.089 431.885 94.4331 431.331C93.8155 430.722 93.3946 429.94 93.2251 429.088C92.8917 427.275 92.8917 425.416 93.2251 423.603C93.6987 419.973 94.5588 416.595 95.1579 413.653C95.6274 411.281 95.8733 408.869 95.8924 406.45C95.8924 405.576 95.8924 404.897 95.8441 404.431C95.7958 403.965 95.8441 403.713 95.8441 403.713V404.431C95.8441 404.897 95.7861 405.576 95.7184 406.44C95.4968 408.818 95.0897 411.175 94.5008 413.488C93.834 416.4 92.7323 419.691 92.1911 423.458C91.8079 425.414 91.7882 427.425 92.1331 429.389C92.3379 430.492 92.8702 431.508 93.66 432.301C94.4629 433.032 95.4666 433.502 96.5399 433.651C97.586 433.77 98.6438 433.737 99.6807 433.554C100.188 433.481 100.692 433.381 101.188 433.253C101.765 433.111 102.295 432.82 102.725 432.408C103.5 431.615 104.004 430.595 104.165 429.496C104.346 428.536 104.427 427.56 104.406 426.584C104.348 424.759 104.112 422.945 103.701 421.167C103.521 420.326 103.318 419.51 103.092 418.72C102.879 417.934 102.58 417.187 102.416 416.507C102.087 415.09 101.884 413.731 101.7 412.546C101.517 411.362 101.391 410.304 101.275 409.44C101.053 407.712 100.937 406.732 100.937 406.732C100.937 406.732 100.937 407.702 101.014 409.459C101.072 410.333 101.14 411.401 101.208 412.595C101.294 413.962 101.456 415.323 101.691 416.672C101.845 417.458 102.106 418.157 102.271 418.944C102.435 419.73 102.609 420.516 102.754 421.351C103.057 423.083 103.225 424.835 103.256 426.593C103.27 427.496 103.186 428.398 103.005 429.282C102.868 430.122 102.477 430.898 101.884 431.505C101.612 431.763 101.28 431.946 100.918 432.039C100.512 432.127 99.9513 432.243 99.5261 432.292C98.5971 432.429 97.6534 432.432 96.7235 432.301H96.7525ZM106.787 141.466C106.729 138.991 106.604 136.933 106.546 135.486C106.488 134.04 106.42 133.224 106.42 133.224C106.42 133.224 106.42 134.05 106.294 135.486C106.169 136.923 106.111 138.991 106.053 141.466C105.995 143.942 105.879 146.834 105.84 149.931C105.801 153.028 105.772 153.659 105.763 156.959C105.753 160.26 105.763 162.231 105.84 165.318C105.917 168.405 105.985 171.307 106.043 173.773C106.101 176.239 106.236 178.316 106.294 179.762C106.352 181.209 106.42 182.024 106.42 182.024C106.42 182.024 106.42 181.199 106.546 179.762C106.671 178.326 106.739 176.248 106.797 173.773C106.855 171.297 106.961 168.414 107 165.318C107.038 162.221 107.067 160.26 107.087 156.959C107.106 153.659 107.087 153.018 107 149.931C106.913 146.844 106.874 143.942 106.807 141.466H106.787ZM114.373 311.717C118.162 310.485 122.839 310.096 126.627 311.611C127.053 311.747 127.468 311.882 127.903 311.999C124.347 308.834 118.007 308.174 114.393 311.717H114.373ZM116.863 406.411C116.796 405.547 116.747 404.868 116.738 404.402V403.683C116.738 403.683 116.738 403.936 116.738 404.402C116.738 404.868 116.67 405.547 116.738 406.421C116.757 408.84 117.003 411.251 117.472 413.624C118.042 416.536 118.902 419.944 119.405 423.574C119.738 425.387 119.738 427.246 119.405 429.059C119.235 429.911 118.815 430.693 118.197 431.301C117.542 431.858 116.732 432.197 115.878 432.272C114.958 432.383 114.028 432.364 113.114 432.214C112.688 432.165 112.147 432.049 111.722 431.962C111.36 431.869 111.028 431.685 110.756 431.428C110.163 430.82 109.771 430.044 109.635 429.205C109.454 428.32 109.37 427.418 109.383 426.516C109.414 424.758 109.582 423.005 109.886 421.274C110.031 420.439 110.195 419.633 110.369 418.866C110.543 418.099 110.794 417.381 110.949 416.595C111.189 415.246 111.35 413.885 111.432 412.517C111.5 411.314 111.567 410.255 111.625 409.382C111.703 407.644 111.703 406.654 111.703 406.654C111.703 406.654 111.587 407.625 111.364 409.362C111.249 410.226 111.104 411.304 110.939 412.469C110.775 413.634 110.553 415.012 110.224 416.43C110.06 417.109 109.76 417.857 109.548 418.643C109.335 419.429 109.122 420.245 108.939 421.089C108.528 422.867 108.291 424.681 108.233 426.506C108.213 427.483 108.294 428.459 108.475 429.418C108.64 430.516 109.144 431.535 109.915 432.331C110.345 432.742 110.874 433.034 111.451 433.175C111.948 433.303 112.451 433.404 112.959 433.476C113.996 433.659 115.054 433.692 116.1 433.573C117.223 433.446 118.278 432.967 119.115 432.204C119.908 431.413 120.441 430.397 120.642 429.292C120.987 427.328 120.967 425.317 120.584 423.361C120.043 419.594 118.941 416.284 118.274 413.391C117.63 411.104 117.165 408.771 116.883 406.411H116.863ZM113.736 53.2535L114.451 53.3506L113.823 53.0011C113.26 52.6917 112.676 52.4256 112.073 52.2051C111.676 52.046 111.269 51.9098 110.856 51.7974C110.411 51.6906 109.957 51.545 109.464 51.4673C108.971 51.3896 108.498 51.2829 107.937 51.244C107.377 51.2052 106.884 51.1469 106.352 51.1567C105.306 51.1472 104.26 51.2382 103.231 51.4285C102.759 51.5083 102.291 51.612 101.83 51.7391C101.395 51.875 100.979 51.9915 100.612 52.1468C99.7747 52.4502 98.9816 52.8649 98.2539 53.3797C98.2539 53.3797 99.2879 53.137 100.805 52.904C101.559 52.7972 102.438 52.6807 103.385 52.6128C103.859 52.6128 104.352 52.5545 104.845 52.5351C105.338 52.5157 105.811 52.5351 106.343 52.5351C107.309 52.5351 108.353 52.6031 109.3 52.671L110.662 52.8264C111.097 52.8264 111.503 52.9526 111.88 53.0011C112.257 53.0496 112.624 53.0788 112.924 53.1564L113.736 53.2535ZM210.733 225.941C209.313 225.068 210.153 225.582 210.733 225.941C206.22 223.146 203.321 217.952 199.794 214.108C198.102 212.263 196.228 210.487 193.715 209.924C192.932 209.749 191.057 209.992 190.584 209.545C190.235 209.012 189.968 208.43 189.791 207.817C189.472 207.08 189.173 206.332 188.893 205.585C186.918 200.192 185.62 194.573 185.027 188.858C184.64 185.412 184.447 181.976 183.809 178.559C182.679 172.678 180.976 166.923 178.726 161.376C177.847 159.192 177.045 156.523 175.701 154.63C174.616 153.277 173.784 151.738 173.247 150.086C172.522 147.378 172.85 144.262 172.657 141.437C172.444 138.499 172.148 135.567 171.768 132.642C171.054 126.978 170.057 121.353 168.782 115.79C168.603 114.457 168.633 113.104 168.869 111.78C168.994 110.276 169.072 108.761 169.101 107.247C169.164 104.328 169.015 101.408 168.656 98.5101C167.97 93.1904 164.791 88.424 162.007 83.9488C158.963 79.095 154.035 77.1535 148.613 76.1148C145.758 75.5778 142.867 75.2534 139.964 75.144C138.553 75.144 137.152 75.0858 135.741 75.144C135.424 75.1905 135.101 75.1639 134.796 75.0663C134.492 74.9688 134.213 74.8028 133.982 74.581C133.421 74.1539 132.841 73.7461 132.252 73.3384C129.884 71.7076 127.42 70.1932 124.965 68.6982L122.965 67.5042C122.636 67.3003 121.805 67.0285 121.631 66.6985C121.58 66.4824 121.557 66.2604 121.563 66.0383L120.723 58.3305C120.597 57.2142 120.481 56.0978 120.355 54.9814C120.29 54.7779 120.26 54.5643 120.269 54.3504C120.326 54.2048 120.742 54.0301 120.906 53.9136C121.482 53.5155 122.002 53.0421 122.453 52.506C123.447 51.0786 124.171 49.4793 124.588 47.7881C125.371 45.4971 126.067 43.177 126.695 40.8375C129.382 30.7514 130.706 18.316 124.898 8.97728C122.307 4.8483 118.222 1.89022 113.504 0.725853C110.16 0.0212008 106.729 -0.171894 103.327 0.153107C98.5921 0.774391 93.7311 2.4538 90.3777 5.97765C86.7537 9.74418 85.0722 14.8504 84.3764 19.9565C82.9848 30.0815 85.5457 40.09 88.9185 49.6229C89.2429 50.6747 89.7501 51.6607 90.4164 52.5351C90.7868 52.9655 91.1979 53.3589 91.6437 53.7097C91.808 53.8359 92.5521 54.2048 92.6101 54.3893C92.6469 55.1154 92.5686 55.8429 92.3782 56.5443L91.4794 64.7472C91.4995 65.4012 91.4279 66.0548 91.2668 66.6888C91.0929 67.0188 90.3004 67.2906 89.9235 67.4945L87.9424 68.7176C86.699 69.4942 85.4555 70.2644 84.2121 71.028C83.0138 71.7852 81.8251 72.5521 80.6557 73.3578C80.1339 73.7203 79.6217 74.0892 79.1192 74.4645C78.8683 74.7171 78.5649 74.9107 78.2308 75.0316C77.8966 75.1524 77.5399 75.1975 77.1864 75.1635C74.26 75.0937 71.3321 75.2136 68.4211 75.5226C63.2509 76.0857 57.1819 77.1826 53.2486 80.9103C51.4028 82.6674 50.1368 85.1428 48.8418 87.3173C47.3806 89.6818 46.1415 92.1777 45.1405 94.7727C44.3026 97.4621 43.8789 100.264 43.8842 103.082C43.7519 105.995 43.81 108.914 44.0582 111.819C44.2944 113.143 44.3237 114.496 44.1451 115.828C43.8069 117.285 43.4976 118.741 43.1787 120.207C42.6182 123.002 42.1254 125.818 41.7001 128.633C40.8163 134.424 40.2678 140.261 40.0573 146.116C39.9606 148.854 39.719 151.28 38.1245 153.591C37.1949 154.911 36.4016 156.322 35.7568 157.804C31.7312 166.67 29.1877 176.142 28.2285 185.839C27.7963 191.256 26.825 196.615 25.3293 201.837C24.9524 203.099 24.5272 204.352 24.0633 205.585C23.8121 206.264 23.5415 206.934 23.2612 207.594C23.068 208.286 22.7645 208.941 22.3625 209.536C21.8986 209.982 20.0238 209.739 19.241 209.914C17.97 210.214 16.7816 210.794 15.7619 211.613C11.5001 214.952 8.73621 219.903 4.91893 223.699C4.08386 224.521 3.1784 225.269 2.21301 225.932C1.40123 226.495 0.434832 227.145 0.434832 228.261C0.376848 230.106 2.36763 230.582 3.77858 230.475C5.53849 230.35 7.24857 229.832 8.78453 228.96C9.68357 228.374 10.5079 227.68 11.2392 226.893C11.848 226.291 12.6695 225.213 13.5489 224.951C12.9567 226.897 12.1222 228.759 11.0652 230.494C9.91844 232.708 8.72011 234.898 7.47023 237.066C6.50383 238.765 4.34875 241.211 5.24751 243.269C6.87106 247.007 10.4371 242.299 11.5581 240.784C12.5245 239.483 13.3556 238.105 14.2737 236.775C15.008 235.501 15.9374 234.351 17.0279 233.368C16.9177 234.622 16.6212 235.852 16.1485 237.018C15.6846 238.435 15.1821 239.833 14.6602 241.231C13.8388 243.434 12.1766 246.483 12.7854 248.89C12.8452 249.224 12.9819 249.539 13.1846 249.81C13.3873 250.082 13.6503 250.301 13.9527 250.452C14.2551 250.603 14.5884 250.681 14.926 250.679C15.2637 250.678 15.5963 250.597 15.8972 250.443C17.2889 249.657 17.9847 247.725 18.5838 246.337C20.0141 243.036 21.0288 239.542 22.4494 236.28C22.5944 239.192 22.0146 242.104 21.9083 245.017C21.8599 246.444 21.7246 248.599 22.8263 249.725C23.0667 249.944 23.355 250.102 23.6678 250.187C23.9807 250.273 24.3092 250.283 24.6267 250.217C24.9441 250.151 25.2415 250.01 25.4946 249.806C25.7477 249.603 25.9493 249.342 26.0831 249.045C27.0495 247.259 26.8949 244.725 27.0495 242.735C27.1945 241.202 27.3298 239.668 27.5424 238.144C27.6293 237.493 27.668 235.503 28.3541 235.134C29.1079 235.853 28.5088 238.503 28.4218 239.406C28.1805 241.107 28.1415 242.831 28.3058 244.541C28.5281 246.085 29.8424 248.055 31.5143 246.667C32.5966 245.764 32.8769 243.978 33.0315 242.667C33.2151 241.173 33.1861 239.658 33.3214 238.153C33.5051 236.047 33.766 233.95 33.9593 231.853C34.1016 230.899 34.3815 229.97 34.7904 229.096C35.4089 227.436 35.9887 225.757 36.4719 224.058C37.029 222.346 37.354 220.567 37.4383 218.767C37.4431 218.212 37.3848 217.659 37.2644 217.117C37.0754 216.73 36.9202 216.327 36.8005 215.913C36.9957 215.041 37.3215 214.203 37.7669 213.428C39.4967 209.264 41.4392 205.187 43.4493 201.158C48.2233 191.625 53.4902 182.306 56.7567 172.093C58.4865 166.657 59.2113 161.046 60.6223 155.591C61.9649 150.607 63.5779 145.7 65.4543 140.893L67.5127 148.873C68.2047 150.935 68.7378 153.048 69.1073 155.193C69.3295 157.571 69.1073 160.095 69.1073 162.473C69.1073 166.25 69.1073 170.026 69.0396 173.792C68.9044 175.936 68.9044 178.085 69.0396 180.228C69.2533 181.103 69.5511 181.955 69.9287 182.772C70.4699 184.393 69.4938 186.878 69.1846 188.596C68.4984 192.334 67.8703 196.091 67.3291 199.857C65.1547 215.059 66.0824 230.679 67.0875 245.949C68.049 261.148 70.5125 276.214 74.4418 290.924C76.1523 297.292 78.0561 303.602 78.2011 310.242C78.3364 315.882 77.0607 321.406 75.7464 326.842C73.8813 334.336 72.9729 341.694 73.8813 349.402C74.7607 356.79 76.7285 359.547 78.8739 366.633C80.9162 373.39 82.9714 380.14 85.0395 386.883C86.6438 392.145 88.2772 395.714 89.6301 401.043C90.0747 402.781 90.8381 405.004 90.5095 406.77C90.2486 408.207 88.3255 414.09 88.1419 414.935C87.9475 415.938 87.5813 416.901 87.0595 417.779C86.2623 418.908 85.3381 419.94 84.3053 420.856L82.5367 422.604L81.638 423.574C81.3191 423.904 81.0195 424.273 80.6716 424.632C80.0288 425.424 79.5195 426.316 79.164 427.273C78.9542 427.828 78.8557 428.418 78.8739 429.011C78.8921 429.605 79.0269 430.188 79.2703 430.729C80.488 433.02 83.2422 433.525 85.262 433.486C86.2393 433.465 87.2149 433.579 88.1612 433.825C89.1141 434.192 90.0464 434.61 90.9541 435.078C93.0255 435.812 95.2138 436.158 97.4096 436.097C99.5869 436.223 101.761 435.795 103.73 434.854C104.195 434.56 104.641 434.236 105.064 433.884C105.459 433.498 105.809 433.068 106.107 432.602L106.194 432.437L106.281 432.602C106.579 433.068 106.929 433.498 107.325 433.884C107.748 434.236 108.193 434.56 108.659 434.854C110.628 435.795 112.802 436.223 114.979 436.097C117.175 436.158 119.363 435.812 121.434 435.078C122.344 434.613 123.276 434.195 124.227 433.825C125.174 433.579 126.149 433.465 127.126 433.486C129.146 433.486 131.9 433.02 133.118 430.729C133.362 430.188 133.496 429.605 133.515 429.011C133.533 428.418 133.434 427.828 133.224 427.273C132.869 426.316 132.36 425.424 131.717 424.632C131.408 424.273 131.108 423.904 130.75 423.574L129.852 422.604L128.083 420.856C127.061 419.939 126.146 418.906 125.358 417.779C124.913 417.06 123.425 412.207 123.425 412.207C122.613 409.731 121.792 406.567 122.014 404.945C122.401 402.598 122.972 401.953 123.667 399.678C124.913 395.173 126.315 390.708 127.677 386.243C129.732 379.531 131.775 372.823 133.804 366.119C135.921 359.1 138.195 356.43 139.036 349.111C139.76 341.791 139.171 334.4 137.296 327.288C135.934 321.697 134.6 316.047 134.726 310.261C134.871 303.942 136.659 297.933 138.253 291.875C140.225 284.785 141.837 277.598 143.085 270.344C144.284 263.073 145.018 255.782 145.685 248.443C146.342 240.901 146.651 233.3 146.767 225.738C146.902 218.408 147.076 211.128 146.052 203.847C145.55 200.255 144.912 196.683 144.226 193.169C143.858 191.292 143.475 189.421 143.076 187.558C142.892 186.713 142.708 185.859 142.515 185.014C142.274 184.09 142.254 183.122 142.457 182.189C142.931 179.462 142.641 176.51 142.621 173.744C142.583 168.12 142.541 162.499 142.496 156.882C142.53 155.225 142.837 153.585 143.404 152.028L146.361 142.01L146.989 139.913C148.516 143.848 149.902 147.831 151.145 151.863C152.662 156.794 153.377 161.852 154.614 166.851C157.185 177.326 162.027 187.082 167.023 196.576C169.375 201.041 171.588 205.572 173.662 210.167C174.6 211.884 175.361 213.692 175.933 215.564C176.088 216.292 175.643 216.952 175.537 217.748C175.416 218.787 175.455 219.838 175.653 220.864C176.313 224.169 177.304 227.399 178.61 230.504C178.971 231.827 179.162 233.19 179.18 234.562C179.393 236.561 179.654 238.581 179.721 240.59C179.675 242.194 179.921 243.793 180.446 245.308C181.123 246.978 183.181 248.123 184.206 245.949C184.988 244.308 184.698 241.949 184.524 240.173C184.428 239.27 184.331 238.367 184.283 237.455C184.283 236.94 184.032 235.659 184.438 235.222C185.153 235.532 185.23 237.571 185.317 238.202C185.539 239.716 185.674 241.24 185.819 242.765C186.003 244.764 185.819 247.308 186.786 249.104C186.915 249.386 187.105 249.635 187.342 249.834C187.579 250.033 187.858 250.175 188.157 250.252C188.456 250.328 188.769 250.336 189.072 250.275C189.375 250.214 189.66 250.086 189.907 249.9C191.115 248.88 191.009 246.706 190.97 245.298C190.893 242.299 190.275 239.309 190.429 236.309C191.84 239.61 192.855 243.104 194.295 246.366C194.894 247.764 195.628 249.851 197.107 250.55C197.423 250.674 197.762 250.724 198.1 250.695C198.437 250.667 198.764 250.561 199.054 250.385C199.345 250.21 199.591 249.97 199.775 249.684C199.958 249.398 200.074 249.073 200.113 248.735C200.596 246.269 198.972 243.289 198.131 241.017C197.291 238.746 195.831 235.862 195.841 233.358C197.87 234.853 199.223 237.707 200.615 239.775C201.726 241.435 204.413 246.026 206.877 244.192C209.148 242.512 206.79 239.415 205.766 237.688C204.568 235.649 203.427 233.572 202.326 231.484C201.224 229.397 199.823 227.242 199.32 224.99C200.905 225.378 202.171 227.64 203.476 228.562C204.866 229.496 206.449 230.103 208.105 230.339C209.293 230.533 210.685 230.717 211.671 229.863C213.236 228.533 212.125 226.805 210.733 225.941ZM106.281 394.193C105.518 386.349 104.686 378.457 104.831 370.565C104.899 366.682 105.57 367.216 105.782 363.333C105.995 359.45 106.062 355.324 105.898 351.315C105.637 344.898 105.734 338.481 105.125 332.084C104.903 329.832 104.603 327.599 104.342 325.366C103.957 323.162 103.935 320.909 104.275 318.697C104.738 316.6 105.618 314.669 105.898 312.504C106.149 310.262 106.149 307.999 105.898 305.757C105.367 300.651 105.956 295.729 106.459 290.642C106.874 294.525 107.628 298.564 107.367 302.486C107.125 306.165 106.265 309.611 106.913 313.329C107.181 314.818 107.619 316.27 108.217 317.658C108.836 319.496 109.025 321.453 108.768 323.376C108.546 327.162 107.928 330.909 107.618 334.686C107.174 340.131 107.222 345.607 107.009 351.072C106.874 354.46 106.865 357.867 107.009 361.245C107.164 365.06 107.46 364.43 107.634 368.235C108.05 376.914 107.112 385.592 106.281 394.193Z" fill="#EDF3F6"/>
<path d="M86.7151 131.04C85.9069 131.669 85.0116 132.176 84.0575 132.545C83.3225 132.815 82.5331 132.901 81.7574 132.797C81.2509 132.713 80.7634 132.538 80.3175 132.283C80.1555 132.194 80.0004 132.094 79.8536 131.982C79.9861 132.115 80.1282 132.239 80.2788 132.351C80.7029 132.676 81.1852 132.917 81.6995 133.059C82.5202 133.273 83.3817 133.273 84.2024 133.059C92.3372 131.001 97.5204 121.119 98.8596 113.615C95.8066 121.71 91.6003 127.147 86.7151 131.04Z" fill="#EDF3F6"/>
<path d="M86.7151 131.04C85.9069 131.669 85.0116 132.176 84.0575 132.545C83.3224 132.815 82.5331 132.901 81.7574 132.797C81.2509 132.713 80.7634 132.538 80.3175 132.283C80.1555 132.194 80.0004 132.094 79.8536 131.982C79.9861 132.115 80.1282 132.239 80.2788 132.351C80.7029 132.676 81.1852 132.917 81.6995 133.059C82.5202 133.273 83.3817 133.273 84.2024 133.059C92.3372 131.001 97.5204 121.119 98.8596 113.615C95.8065 121.71 91.6003 127.147 86.7151 131.04Z" fill="#076EB0"/>
<path d="M125.998 131.04C126.806 131.669 127.701 132.176 128.656 132.545C129.391 132.815 130.18 132.902 130.956 132.797C131.462 132.713 131.95 132.539 132.396 132.283C132.558 132.195 132.713 132.094 132.859 131.982C132.727 132.115 132.585 132.239 132.434 132.351C132.01 132.676 131.528 132.917 131.014 133.059C130.193 133.273 129.331 133.273 128.511 133.059C120.376 131.001 115.193 121.119 113.853 113.615C116.906 121.71 121.113 127.147 125.998 131.04Z" fill="#076EB0"/>
<path d="M114.373 311.717L114.402 311.708L114.393 311.717H114.373Z" fill="#076EB0"/>
<path d="M114.402 311.708C118.018 308.175 124.35 308.837 127.903 311.999C127.516 311.895 127.144 311.776 126.768 311.656L126.766 311.655L126.627 311.611C122.849 310.1 118.186 310.483 114.402 311.708Z" fill="#076EB0"/>
<path d="M116.863 406.411C116.796 405.547 116.747 404.868 116.738 404.402C116.738 404.539 116.732 404.695 116.725 404.869C116.71 405.285 116.69 405.805 116.738 406.421C116.757 408.84 117.003 411.251 117.472 413.624C117.649 414.527 117.854 415.479 118.067 416.47L118.069 416.479C118.543 418.679 119.059 421.074 119.405 423.574C119.738 425.387 119.738 427.246 119.405 429.059C119.235 429.911 118.815 430.693 118.197 431.301C117.542 431.858 116.732 432.197 115.878 432.272C114.958 432.383 114.028 432.364 113.114 432.214C112.733 432.171 112.259 432.073 111.859 431.99L111.722 431.962C111.36 431.869 111.027 431.685 110.756 431.428C110.163 430.82 109.771 430.044 109.635 429.205C109.454 428.32 109.37 427.418 109.383 426.516C109.414 424.758 109.582 423.005 109.886 421.274C110.031 420.439 110.195 419.633 110.369 418.866C110.446 418.529 110.537 418.2 110.629 417.872C110.745 417.454 110.862 417.035 110.949 416.595C111.189 415.246 111.35 413.885 111.432 412.517C111.5 411.314 111.567 410.255 111.625 409.382C111.703 407.644 111.703 406.654 111.703 406.654C111.703 406.654 111.587 407.625 111.364 409.362C111.249 410.226 111.104 411.304 110.939 412.469C110.775 413.634 110.553 415.012 110.224 416.43C110.137 416.79 110.012 417.17 109.881 417.565C109.766 417.913 109.647 418.274 109.548 418.643C109.335 419.429 109.122 420.245 108.939 421.089C108.528 422.867 108.291 424.681 108.233 426.506C108.213 427.483 108.294 428.459 108.475 429.418C108.64 430.516 109.144 431.535 109.915 432.331C110.345 432.742 110.874 433.034 111.451 433.175C111.948 433.303 112.451 433.404 112.959 433.476C113.996 433.659 115.054 433.692 116.1 433.573C117.223 433.446 118.278 432.967 119.115 432.204C119.908 431.413 120.441 430.397 120.642 429.292C120.987 427.328 120.967 425.317 120.584 423.361C120.217 420.806 119.592 418.462 119.02 416.315C118.748 415.296 118.489 414.322 118.274 413.391C117.63 411.104 117.165 408.771 116.883 406.411H116.863Z" fill="#076EB0"/>
<path d="M98.4858 311.717C94.8715 308.174 88.5416 308.805 84.9562 311.999C85.327 311.897 85.6904 311.781 86.0592 311.663L86.0655 311.661L86.0674 311.66L86.2222 311.611C90.0202 310.096 94.6975 310.485 98.4858 311.717Z" fill="#076EB0"/>
<path d="M96.7525 432.301C95.8986 432.224 95.089 431.885 94.4331 431.331C93.8155 430.722 93.3946 429.94 93.2251 429.088C92.8917 427.275 92.8917 425.416 93.2251 423.603C93.5697 420.961 94.1191 418.453 94.6236 416.149C94.8123 415.287 94.9948 414.454 95.1579 413.653C95.6274 411.281 95.8733 408.869 95.8924 406.45C95.8924 405.576 95.8924 404.897 95.8441 404.431V403.713C95.8441 403.713 95.7958 403.965 95.8441 404.431C95.8441 404.847 95.7979 405.433 95.7399 406.168L95.7396 406.171L95.7184 406.44C95.4968 408.818 95.0897 411.175 94.5008 413.488C94.2827 414.44 94.0182 415.433 93.742 416.47C93.1735 418.603 92.5553 420.923 92.1911 423.458C91.8079 425.414 91.7882 427.425 92.1331 429.389C92.3379 430.492 92.8702 431.508 93.66 432.301C94.4629 433.032 95.4666 433.502 96.5399 433.651C97.586 433.77 98.6438 433.737 99.6807 433.554C100.188 433.481 100.692 433.381 101.188 433.253C101.765 433.111 102.295 432.82 102.725 432.408C103.5 431.615 104.004 430.595 104.165 429.496C104.346 428.536 104.427 427.56 104.406 426.584C104.348 424.759 104.112 422.945 103.701 421.167C103.521 420.326 103.318 419.51 103.092 418.72C102.992 418.352 102.873 417.991 102.758 417.642C102.628 417.248 102.503 416.868 102.416 416.507C102.107 415.177 101.91 413.899 101.735 412.768L101.7 412.546C101.567 411.683 101.463 410.886 101.372 410.182L101.336 409.904C101.316 409.744 101.295 409.589 101.275 409.44C101.053 407.712 100.937 406.732 100.937 406.732C100.937 406.732 100.937 407.702 101.014 409.459C101.072 410.333 101.14 411.401 101.208 412.595C101.294 413.962 101.456 415.323 101.691 416.672C101.771 417.08 101.88 417.465 101.989 417.851C102.09 418.208 102.192 418.566 102.271 418.944C102.303 419.098 102.336 419.253 102.368 419.408L102.369 419.409C102.502 420.042 102.637 420.681 102.754 421.351C103.057 423.083 103.225 424.835 103.256 426.593C103.27 427.496 103.186 428.398 103.005 429.282C102.868 430.122 102.477 430.898 101.884 431.505C101.612 431.763 101.28 431.946 100.918 432.039C100.512 432.127 99.9513 432.243 99.5261 432.292C98.5971 432.429 97.6534 432.432 96.7235 432.301H96.7525Z" fill="#076EB0"/>
<path d="M111.725 82.2119C111.493 79.9699 113.515 77.4857 115.932 78.0049C114.232 79.0259 112.89 80.0399 111.725 82.2119Z" fill="#076EB0"/>
<path d="M101.142 82.2119C101.374 79.9699 99.3526 77.4857 96.9349 78.0049C98.6349 79.0259 99.9776 80.0399 101.142 82.2119Z" fill="#076EB0"/>
<path fill-rule="evenodd" clip-rule="evenodd" d="M210.733 225.941C207.688 224.055 205.378 221.077 203.114 218.159C202.022 216.752 200.941 215.358 199.794 214.108C198.102 212.263 196.228 210.487 193.715 209.924C193.418 209.858 192.965 209.851 192.49 209.845C191.712 209.834 190.878 209.823 190.584 209.545C190.235 209.012 189.968 208.43 189.791 207.817C189.472 207.08 189.173 206.332 188.893 205.585C186.918 200.192 185.62 194.573 185.027 188.858C184.911 187.821 184.812 186.784 184.713 185.748C184.484 183.345 184.255 180.947 183.809 178.559C182.679 172.678 180.976 166.923 178.726 161.376C178.517 160.858 178.313 160.312 178.105 159.755C177.435 157.968 176.726 156.073 175.701 154.63C174.616 153.277 173.784 151.738 173.247 150.086C172.762 148.276 172.748 146.283 172.735 144.317C172.728 143.342 172.721 142.374 172.657 141.437C172.444 138.499 172.148 135.567 171.768 132.642C171.054 126.978 170.057 121.353 168.782 115.79C168.603 114.457 168.633 113.104 168.869 111.78C168.994 110.276 169.072 108.761 169.101 107.247C169.164 104.328 169.015 101.408 168.656 98.5101C168.018 93.5635 165.224 89.0953 162.598 84.8947L162.593 84.8876L162.568 84.8465C162.38 84.5459 162.193 84.2467 162.007 83.9488C158.963 79.095 154.035 77.1535 148.613 76.1148C145.758 75.5778 142.867 75.2534 139.964 75.144C139.494 75.144 139.025 75.1376 138.557 75.1311H138.55C137.614 75.1181 136.679 75.1052 135.741 75.144C135.424 75.1905 135.101 75.1639 134.796 75.0663C134.492 74.9688 134.213 74.8028 133.982 74.581C133.421 74.1539 132.841 73.7461 132.252 73.3384C129.884 71.7076 127.42 70.1932 124.965 68.6982L122.965 67.5042C122.862 67.4405 122.71 67.3701 122.545 67.2934C122.181 67.1247 121.751 66.9254 121.631 66.6985C121.58 66.4824 121.557 66.2604 121.563 66.0383L120.723 58.3305C120.66 57.7724 120.599 57.2142 120.539 56.656C120.479 56.0978 120.418 55.5396 120.355 54.9814C120.29 54.7779 120.26 54.5643 120.268 54.3504C120.308 54.2519 120.511 54.14 120.689 54.0419L120.69 54.0413C120.775 53.9946 120.853 53.9511 120.906 53.9136C121.482 53.5155 122.002 53.0421 122.453 52.506C123.447 51.0786 124.171 49.4793 124.588 47.7881C125.371 45.4971 126.067 43.177 126.695 40.8375C129.382 30.7514 130.706 18.316 124.898 8.97728C122.307 4.8483 118.222 1.89021 113.504 0.725853C110.16 0.0212007 106.729 -0.171894 103.327 0.153107C98.5921 0.774391 93.7311 2.4538 90.3777 5.97765C86.7537 9.74418 85.0722 14.8504 84.3764 19.9565C82.9848 30.0815 85.5457 40.09 88.9185 49.6229C89.2429 50.6747 89.7501 51.6607 90.4164 52.5351C90.7868 52.9655 91.1979 53.3589 91.6437 53.7097C91.6944 53.7487 91.8002 53.8107 91.924 53.8832C92.2017 54.0459 92.57 54.2617 92.6101 54.3893C92.6469 55.1154 92.5686 55.8429 92.3782 56.5443L91.4794 64.7472C91.4995 65.4012 91.4279 66.0548 91.2668 66.6888C91.1386 66.9319 90.6747 67.1435 90.2886 67.3196C90.1507 67.3825 90.0227 67.4408 89.9235 67.4945L87.9424 68.7176C86.699 69.4942 85.4555 70.2644 84.2121 71.028C83.0138 71.7852 81.8251 72.5521 80.6557 73.3578C80.1339 73.7203 79.6217 74.0892 79.1192 74.4645C78.8683 74.7171 78.5649 74.9107 78.2307 75.0316C77.8966 75.1524 77.5399 75.1975 77.1864 75.1635C74.26 75.0937 71.3321 75.2136 68.4211 75.5226C63.2509 76.0857 57.1819 77.1826 53.2486 80.9103C51.7158 82.3695 50.5828 84.324 49.5011 86.1902C49.2802 86.5712 49.0614 86.9486 48.8418 87.3173C47.3806 89.6818 46.1415 92.1777 45.1405 94.7727C44.3026 97.4621 43.8789 100.264 43.8842 103.082C43.7519 105.995 43.81 108.914 44.0582 111.819C44.2944 113.143 44.3237 114.496 44.1451 115.828C43.877 116.983 43.6271 118.137 43.3761 119.296L43.3759 119.297L43.3721 119.315C43.3078 119.612 43.2435 119.909 43.1787 120.207C42.6182 123.002 42.1254 125.818 41.7001 128.633C40.8163 134.424 40.2678 140.261 40.0573 146.116C39.9606 148.854 39.719 151.28 38.1245 153.591C37.1949 154.911 36.4016 156.322 35.7568 157.804C31.7312 166.67 29.1877 176.142 28.2285 185.839C27.7963 191.256 26.825 196.615 25.3293 201.837C24.9524 203.099 24.5272 204.352 24.0633 205.585C23.8121 206.264 23.5415 206.934 23.2612 207.594C23.068 208.286 22.7645 208.941 22.3625 209.536C22.0744 209.813 21.2422 209.824 20.4653 209.835C19.9912 209.842 19.5377 209.848 19.241 209.914C17.97 210.214 16.7816 210.794 15.7619 211.613C13.2689 213.566 11.2885 216.071 9.30988 218.574C7.90613 220.349 6.50317 222.124 4.91893 223.699C4.08386 224.521 3.1784 225.269 2.21302 225.932L2.17118 225.961C1.36842 226.517 0.434832 227.164 0.434832 228.261C0.376849 230.106 2.36763 230.582 3.77858 230.475C5.53849 230.35 7.24857 229.832 8.78453 228.96C9.68357 228.374 10.5079 227.68 11.2392 226.893C11.3721 226.761 11.5152 226.607 11.6667 226.444L11.6685 226.442C12.2108 225.858 12.8623 225.156 13.5489 224.951C12.9567 226.897 12.1222 228.759 11.0652 230.494C9.91844 232.708 8.72011 234.898 7.47023 237.066C7.27664 237.407 7.03534 237.777 6.78045 238.168C5.76296 239.73 4.5288 241.624 5.24751 243.269C6.87107 247.007 10.4371 242.299 11.5581 240.784C12.1481 239.99 12.6877 239.167 13.2274 238.344C13.5717 237.818 13.9161 237.293 14.2737 236.775C15.008 235.501 15.9374 234.351 17.0279 233.368C16.9177 234.622 16.6212 235.852 16.1485 237.018C15.6846 238.435 15.1821 239.833 14.6602 241.231C14.4991 241.663 14.3057 242.128 14.1033 242.614C13.2742 244.605 12.296 246.955 12.7854 248.89C12.8452 249.224 12.9819 249.539 13.1846 249.81C13.3873 250.082 13.6503 250.301 13.9527 250.452C14.2551 250.603 14.5884 250.681 14.926 250.679C15.2637 250.678 15.5963 250.597 15.8972 250.443C17.1481 249.737 17.8367 248.104 18.3984 246.773C18.4616 246.623 18.5232 246.477 18.5838 246.337C19.2958 244.694 19.9048 243.003 20.5122 241.316C21.1249 239.615 21.736 237.918 22.4494 236.28C22.5371 238.041 22.3596 239.803 22.1822 241.564C22.0662 242.715 21.9503 243.866 21.9083 245.017L21.9008 245.228C21.8498 246.649 21.7778 248.653 22.8263 249.725C23.0667 249.944 23.355 250.102 23.6678 250.187C23.9807 250.273 24.3092 250.283 24.6267 250.217C24.9441 250.151 25.2415 250.01 25.4946 249.806C25.7477 249.603 25.9493 249.342 26.0831 249.045C26.8336 247.658 26.908 245.82 26.9762 244.136C26.9958 243.652 27.015 243.18 27.0495 242.735L27.0971 242.229C27.2251 240.865 27.3532 239.5 27.5424 238.144C27.5504 238.084 27.558 238.012 27.5658 237.931C27.5727 237.86 27.5797 237.781 27.5872 237.697C27.6626 236.848 27.7877 235.439 28.3541 235.134C28.9641 235.716 28.6882 237.562 28.5146 238.723C28.4737 238.997 28.4384 239.233 28.4218 239.406C28.1805 241.107 28.1415 242.831 28.3058 244.541C28.5281 246.085 29.8424 248.055 31.5143 246.667C32.5966 245.764 32.8769 243.978 33.0315 242.667C33.1352 241.824 33.1711 240.974 33.207 240.123C33.2348 239.466 33.2625 238.809 33.3214 238.153C33.42 237.023 33.5408 235.895 33.6614 234.769L33.6616 234.768C33.7657 233.796 33.8697 232.825 33.9593 231.853C34.1016 230.899 34.3815 229.97 34.7904 229.096C35.4089 227.436 35.9887 225.757 36.4719 224.058C37.029 222.346 37.354 220.567 37.4383 218.767C37.4431 218.212 37.3848 217.659 37.2644 217.117C37.0754 216.73 36.9202 216.327 36.8005 215.913C36.9957 215.041 37.3215 214.203 37.7669 213.428C39.4968 209.264 41.4392 205.187 43.4493 201.158C44.3889 199.282 45.3475 197.414 46.3062 195.546C50.2189 187.922 54.1331 180.296 56.7567 172.093C57.7803 168.876 58.4521 165.598 59.1223 162.327C59.5846 160.071 60.0463 157.818 60.6223 155.591C61.9649 150.607 63.5779 145.7 65.4543 140.893L67.5127 148.873C68.2047 150.935 68.7378 153.048 69.1073 155.193C69.2559 156.784 69.2057 158.44 69.1561 160.074L69.1561 160.075C69.1316 160.883 69.1073 161.686 69.1073 162.473C69.1073 166.25 69.1073 170.026 69.0396 173.792C68.9044 175.936 68.9044 178.085 69.0396 180.228C69.2533 181.103 69.5511 181.955 69.9287 182.772C70.3255 183.96 69.9067 185.613 69.5331 187.088C69.3971 187.625 69.2671 188.138 69.1846 188.596C68.4984 192.334 67.8703 196.091 67.3291 199.857C65.1547 215.059 66.0824 230.679 67.0875 245.949C68.049 261.148 70.5125 276.214 74.4418 290.924C74.6147 291.568 74.7896 292.211 74.9645 292.854L74.9673 292.864C76.5211 298.578 78.0709 304.277 78.2011 310.242C78.3364 315.882 77.0607 321.406 75.7464 326.842C73.8813 334.336 72.9729 341.694 73.8813 349.402C74.4641 354.298 75.5251 357.161 76.7989 360.597C77.4471 362.346 78.1504 364.243 78.8739 366.633C80.9162 373.39 82.9714 380.14 85.0396 386.883C85.6975 389.041 86.3603 390.914 87.0067 392.741C87.9363 395.368 88.8321 397.899 89.6301 401.043C89.7019 401.324 89.782 401.617 89.8645 401.919C90.2928 403.487 90.785 405.289 90.5096 406.77C90.3512 407.642 89.581 410.151 88.9587 412.177C88.5553 413.491 88.2141 414.602 88.1419 414.935C87.9475 415.938 87.5813 416.901 87.0595 417.779C86.2623 418.908 85.3381 419.94 84.3053 420.856L82.5367 422.604L81.638 423.574C81.4833 423.734 81.3332 423.904 81.1799 424.076L81.1791 424.077C81.0166 424.26 80.8505 424.448 80.6716 424.632C80.0288 425.424 79.5195 426.316 79.164 427.273C78.9543 427.828 78.8557 428.418 78.8739 429.011C78.8922 429.605 79.0269 430.188 79.2703 430.729C80.488 433.02 83.2422 433.525 85.262 433.486C86.2393 433.465 87.2149 433.579 88.1612 433.825C89.1141 434.192 90.0464 434.61 90.9541 435.078C93.0255 435.812 95.2138 436.158 97.4096 436.097C99.5869 436.223 101.761 435.795 103.73 434.854C104.195 434.56 104.641 434.236 105.064 433.884C105.459 433.498 105.809 433.068 106.107 432.602L106.194 432.437L106.281 432.602C106.579 433.068 106.929 433.498 107.325 433.884C107.748 434.236 108.193 434.56 108.659 434.854C110.628 435.795 112.802 436.223 114.979 436.097C117.175 436.158 119.363 435.812 121.434 435.078C122.344 434.613 123.276 434.195 124.227 433.825C125.174 433.579 126.149 433.465 127.126 433.486C129.146 433.486 131.9 433.02 133.118 430.729C133.362 430.188 133.496 429.605 133.515 429.011C133.533 428.418 133.434 427.828 133.224 427.273C132.869 426.316 132.36 425.424 131.717 424.632L131.683 424.593L131.623 424.523L131.565 424.454C131.307 424.153 131.049 423.85 130.75 423.574L129.852 422.604L128.083 420.856C127.061 419.939 126.146 418.906 125.358 417.779C124.913 417.06 123.425 412.207 123.425 412.207C122.613 409.731 121.792 406.567 122.014 404.945C122.255 403.482 122.568 402.68 122.938 401.732C123.161 401.16 123.405 400.534 123.667 399.678C124.678 396.022 125.792 392.393 126.904 388.768L126.904 388.767C127.162 387.925 127.42 387.084 127.677 386.243C129.732 379.531 131.775 372.823 133.804 366.119C134.578 363.552 135.373 361.567 136.111 359.724C137.392 356.526 138.503 353.754 139.036 349.111C139.76 341.791 139.171 334.4 137.296 327.288C135.934 321.697 134.6 316.047 134.726 310.261C134.855 304.616 136.296 299.219 137.738 293.814C137.911 293.168 138.083 292.522 138.253 291.875C140.225 284.785 141.837 277.598 143.085 270.344C144.284 263.073 145.018 255.782 145.685 248.443C146.342 240.901 146.651 233.3 146.767 225.738L146.78 225.035C146.912 217.943 147.044 210.895 146.052 203.847C145.55 200.255 144.912 196.683 144.226 193.169C143.858 191.292 143.475 189.421 143.076 187.558L142.992 187.175C142.836 186.455 142.679 185.731 142.515 185.014C142.274 184.09 142.254 183.122 142.457 182.189C142.808 180.169 142.74 178.026 142.673 175.926L142.673 175.924C142.65 175.189 142.626 174.46 142.621 173.744C142.583 168.12 142.541 162.499 142.496 156.882C142.53 155.225 142.837 153.585 143.404 152.028L146.361 142.01L146.989 139.913C148.516 143.848 149.902 147.831 151.145 151.863C152.067 154.86 152.693 157.905 153.32 160.954L153.32 160.956C153.725 162.922 154.129 164.892 154.614 166.851C157.185 177.326 162.027 187.082 167.023 196.576C169.375 201.041 171.588 205.572 173.662 210.167C174.6 211.884 175.361 213.692 175.933 215.564C176.029 216.015 175.895 216.44 175.754 216.887C175.667 217.162 175.577 217.445 175.537 217.748C175.416 218.787 175.455 219.838 175.653 220.864C176.313 224.169 177.304 227.399 178.61 230.504C178.971 231.827 179.162 233.19 179.18 234.562C179.206 234.806 179.233 235.052 179.26 235.297L179.308 235.726C179.487 237.343 179.667 238.97 179.721 240.59C179.675 242.194 179.921 243.793 180.446 245.308C181.123 246.978 183.181 248.123 184.206 245.949C184.945 244.398 184.727 242.205 184.554 240.469L184.524 240.173L184.524 240.171C184.428 239.269 184.331 238.366 184.283 237.455C184.283 237.331 184.268 237.163 184.252 236.973C184.2 236.373 184.129 235.554 184.438 235.222C185.04 235.484 185.19 236.974 185.274 237.813C185.29 237.969 185.303 238.103 185.317 238.202C185.517 239.567 185.647 240.939 185.777 242.312L185.819 242.765C185.865 243.261 185.888 243.792 185.912 244.335C185.983 245.982 186.059 247.754 186.786 249.104C186.915 249.386 187.104 249.635 187.342 249.834C187.579 250.033 187.858 250.175 188.157 250.252C188.456 250.328 188.769 250.336 189.072 250.275C189.375 250.214 189.66 250.086 189.907 249.9C191.074 248.915 191.015 246.854 190.975 245.446L190.97 245.298C190.939 244.063 190.815 242.829 190.691 241.595C190.515 239.834 190.338 238.073 190.429 236.309C191.104 237.887 191.687 239.509 192.27 241.128L192.271 241.129C192.908 242.898 193.543 244.664 194.295 246.366L194.329 246.447L194.385 246.578C194.418 246.657 194.451 246.737 194.485 246.819C195.053 248.18 195.781 249.923 197.107 250.55C197.423 250.674 197.762 250.724 198.1 250.695C198.437 250.667 198.764 250.561 199.054 250.385C199.345 250.21 199.591 249.97 199.775 249.684C199.958 249.398 200.074 249.073 200.113 248.735C200.497 246.775 199.55 244.491 198.723 242.495C198.51 241.98 198.304 241.484 198.131 241.017C197.947 240.518 197.732 239.99 197.51 239.442C196.72 237.497 195.833 235.312 195.841 233.358C197.351 234.47 198.486 236.334 199.542 238.067L199.542 238.068C199.905 238.665 200.259 239.245 200.615 239.775C200.658 239.838 200.703 239.907 200.75 239.978L200.817 240.081L200.906 240.217C202.148 242.118 204.607 245.882 206.877 244.192C208.891 242.703 207.266 240.1 206.157 238.324L206.154 238.319C206.081 238.201 206.009 238.087 205.942 237.978C205.88 237.877 205.821 237.78 205.766 237.688C204.568 235.649 203.427 233.572 202.326 231.484C202.088 231.035 201.837 230.582 201.584 230.126L201.583 230.124C200.661 228.463 199.714 226.757 199.32 224.99C200.298 225.23 201.155 226.183 201.974 227.094C202.482 227.66 202.976 228.209 203.476 228.562C204.866 229.496 206.449 230.103 208.105 230.339C209.293 230.533 210.685 230.717 211.671 229.863C213.236 228.533 212.125 226.805 210.733 225.941ZM106.787 141.466C106.747 139.742 106.674 138.22 106.613 136.967L106.613 136.964C106.587 136.419 106.563 135.924 106.546 135.486C106.488 134.04 106.42 133.224 106.42 133.224C106.42 133.224 106.42 134.05 106.294 135.486C106.169 136.923 106.111 138.991 106.053 141.466C106.032 142.34 106.005 143.265 105.976 144.234V144.235C105.923 146.01 105.865 147.928 105.84 149.931C105.828 150.919 105.816 151.656 105.806 152.308V152.31C105.786 153.657 105.77 154.646 105.763 156.745C101.483 156.723 75.4958 156.306 70.3478 152.414C70.2273 151.961 70.1165 151.505 70.0157 151.047L68.2472 144.903C68.0854 144.343 67.9177 143.786 67.75 143.229C67.3969 142.056 67.0441 140.884 66.7492 139.699C66.6615 139.344 66.384 137.045 66.0132 133.975L66.0127 133.97L66.0118 133.963L66.011 133.956C65.8647 132.745 65.704 131.414 65.5348 130.035L65.5479 130C65.5276 129.884 65.5075 129.767 65.4876 129.651C65.1364 126.798 64.7515 123.771 64.3842 121.193C63.8567 115.308 63.8333 109.413 64.3316 103.463C64.4637 103.342 64.6511 103.254 64.9117 103.225C65.1236 103.202 65.5838 103.31 66.4048 103.504C69.9862 104.347 80.4347 106.809 107.105 106.998C130.993 107.167 134.12 106.626 141.998 105.263C142.77 105.129 143.588 104.988 144.475 104.838C144.647 104.787 144.841 104.723 145.051 104.653C146.015 104.333 147.303 103.906 148.293 104.191C148.826 111.143 148.647 118.022 147.783 124.901C147.019 129.629 146.25 134.791 145.848 137.489L145.848 137.491C145.695 138.517 145.595 139.187 145.569 139.34V139.243L141.315 152.468C137.725 156.921 116.69 156.802 108.077 156.754L107.518 156.751L107.088 156.749C107.105 153.666 107.085 152.967 107.003 150.035L107 149.931C106.953 148.258 106.92 146.64 106.889 145.114C106.862 143.824 106.838 142.6 106.807 141.466H106.787ZM105.76 158.235C105.757 160.815 105.773 162.649 105.84 165.318C105.91 168.097 105.972 170.727 106.025 173.023L106.043 173.773C106.083 175.449 106.158 176.945 106.22 178.186L106.221 178.201C106.25 178.78 106.276 179.303 106.294 179.762C106.352 181.209 106.42 182.024 106.42 182.024C106.42 182.024 106.42 181.199 106.546 179.762C106.671 178.326 106.739 176.248 106.797 173.773C106.816 172.949 106.841 172.08 106.867 171.174V171.172L106.867 171.171C106.918 169.353 106.974 167.383 107 165.318L107.017 163.979L107.017 163.962L107.017 163.953C107.042 161.966 107.063 160.357 107.078 158.246C126.467 158.39 129.143 157.844 135.721 156.503L135.726 156.502L135.731 156.501C136.383 156.368 137.074 156.227 137.822 156.078C137.969 156.027 138.134 155.963 138.311 155.893C138.955 155.642 139.768 155.324 140.495 155.338C140.417 155.814 140.366 156.293 140.341 156.775V156.777C140.341 159.844 140.341 162.92 140.418 165.987C140.418 167.948 140.469 169.905 140.52 171.863V171.866C140.573 173.912 140.626 175.957 140.621 178.005V179.821C140.621 180.464 140.488 181.08 140.357 181.693C140.25 182.19 140.143 182.685 140.109 183.189C140.171 184.398 140.396 185.593 140.776 186.742C140.803 186.874 140.831 187.006 140.858 187.138C136.245 191.099 116.721 190.987 108.545 190.94C107.795 190.936 107.141 190.932 106.602 190.932C103.767 190.932 77.6578 190.63 71.6742 186.839L71.7052 186.669L71.7842 186.237C72.0652 185.289 72.2434 184.312 72.3157 183.325C72.1217 182.263 71.7867 181.233 71.3203 180.263V156.037C71.2729 155.576 71.179 155.12 71.0401 154.678L71.0104 154.592L71.1158 154.62L71.1961 154.642L71.2658 154.661C71.3585 154.687 71.458 154.714 71.5646 154.744C74.5886 155.583 83.381 158.024 105.76 158.235ZM141.742 191.596C141.628 190.987 141.51 190.378 141.39 189.767C140.537 189.22 139.279 189.719 138.367 190.08C138.192 190.15 138.029 190.214 137.885 190.265C137.142 190.414 136.458 190.556 135.812 190.69C129.217 192.053 126.599 192.594 106.602 192.425C84.2751 192.236 75.5284 189.774 72.5302 188.93C71.9212 188.759 71.5494 188.654 71.3492 188.649C70.4909 193.491 69.726 198.349 69.1459 203.235C68.5599 208.806 68.35 214.411 68.5177 220.01C68.682 231.242 69.2039 242.454 70.2476 253.647C70.924 261.182 72.0147 268.671 73.5139 276.079C75.1389 276.911 79.3478 277.618 87.9229 277.736C90.5404 277.772 92.7827 277.817 94.7017 277.856C103.235 278.029 105.373 278.072 105.66 276.585L105.666 276.314C105.72 272.335 105.694 268.351 105.669 264.367V264.364C105.644 260.505 105.619 256.647 105.666 252.793C105.731 247.9 105.792 243.001 105.85 238.095V235.338C105.888 235 105.907 234.66 105.908 234.319C105.472 234.786 105 235.218 104.497 235.61C103.833 236.127 103.129 236.588 102.39 236.989L101.105 237.62L99.6842 238.183L98.1573 238.668C97.7633 238.769 97.3641 238.859 96.9595 238.95L96.9509 238.952C96.8125 238.983 96.6734 239.015 96.5337 239.047C95.3956 239.282 94.243 239.441 93.0836 239.522C91.837 239.639 90.8029 239.639 89.5466 239.639C88.3521 239.599 87.1612 239.486 85.9806 239.299C85.3924 239.235 84.8105 239.121 84.2411 238.959C83.679 238.83 83.1242 238.671 82.5789 238.484C80.6063 237.85 78.7795 236.827 77.2057 235.474C76.5871 234.929 76.0267 234.321 75.5338 233.659C75.158 233.16 74.8341 232.623 74.5674 232.057C74.314 231.576 74.1255 231.064 74.0069 230.533C74.2849 230.989 74.6088 231.415 74.9733 231.805C75.3614 232.255 75.7847 232.674 76.2393 233.057C76.8066 233.555 77.418 234 78.0658 234.387C79.6729 235.345 81.4263 236.031 83.2554 236.416C83.7586 236.536 84.2685 236.627 84.7823 236.688C85.3091 236.787 85.8417 236.852 86.3768 236.882C87.4658 236.983 88.5594 237.025 89.6529 237.008C89.9002 236.996 90.1573 236.986 90.4198 236.974C91.2649 236.938 92.1663 236.9 92.9774 236.833C94.0404 236.746 95.1518 236.6 96.1182 236.435L97.5967 236.134L98.998 235.785C99.1228 235.745 99.2477 235.706 99.3719 235.667C100.133 235.429 100.874 235.196 101.472 234.921C102.168 234.6 102.835 234.28 103.405 233.95C103.889 233.653 104.357 233.329 104.806 232.979C105.173 232.698 105.512 228.97 105.531 227.33C105.543 226.288 105.598 225.203 105.654 224.102C105.686 223.47 105.719 222.832 105.743 222.194C105.779 221.267 105.813 220.341 105.846 219.43L105.847 219.427L105.847 219.423L105.847 219.421L105.847 219.42L105.847 219.418C105.939 216.9 106.026 214.506 106.14 212.584L106.362 208.215H106.536C106.536 208.215 106.604 209.963 106.758 212.584C106.872 214.509 106.959 216.906 107.051 219.428C107.085 220.339 107.119 221.267 107.154 222.194C107.179 222.816 107.212 223.439 107.246 224.056L107.246 224.058L107.246 224.062V224.063C107.307 225.177 107.367 226.275 107.367 227.33C107.367 228.575 107.54 230.889 107.623 232.004L107.644 232.287C107.652 232.393 107.658 232.478 107.662 232.538C107.663 232.562 107.665 232.583 107.665 232.598C107.666 232.613 107.667 232.624 107.667 232.63L108.111 232.979C108.56 233.329 109.028 233.653 109.512 233.95C110.044 234.27 110.691 234.62 111.445 234.921C112.199 235.222 113.03 235.503 113.919 235.785L115.321 236.134L116.799 236.435C117.284 236.514 117.794 236.569 118.304 236.623C118.86 236.683 119.416 236.742 119.94 236.833C120.945 237.008 122.221 237.008 123.264 237.008C124.358 237.025 125.451 236.983 126.54 236.882C127.076 236.852 127.608 236.787 128.135 236.688C128.649 236.628 129.159 236.537 129.662 236.416C131.491 236.031 133.244 235.345 134.851 234.387C135.499 234 136.111 233.555 136.678 233.057C137.133 232.674 137.556 232.255 137.944 231.805C138.309 231.415 138.632 230.989 138.91 230.533C138.792 231.064 138.603 231.576 138.35 232.057C138.083 232.623 137.759 233.16 137.383 233.659C136.896 234.325 136.335 234.934 135.712 235.474C133.662 237.183 131.243 238.386 128.647 238.988C128.078 239.15 127.496 239.264 126.908 239.328C125.727 239.515 124.536 239.628 123.342 239.668C123.049 239.663 122.769 239.661 122.495 239.66L122.49 239.66C121.589 239.654 120.759 239.648 119.805 239.551C118.645 239.47 117.493 239.311 116.355 239.076C116.212 239.043 116.07 239.011 115.929 238.979L115.927 238.979L115.926 238.978C115.522 238.887 115.124 238.798 114.731 238.697L113.204 238.212L111.784 237.649L110.498 237.018C109.759 236.617 109.055 236.156 108.391 235.639C107.907 235.264 107.451 234.852 107.029 234.406C106.928 235.154 106.928 235.911 107.029 236.659L107.087 240.842L107.203 250.443C107.244 254.187 107.232 257.93 107.221 261.673V261.676C107.205 266.624 107.189 271.571 107.296 276.519L107.298 276.501C107.523 278.073 109.58 278.032 118.271 277.856C120.19 277.817 122.432 277.772 125.05 277.736C133.317 277.623 137.526 276.961 139.274 276.168C141.031 267.448 142.279 258.628 143.008 249.754C143.54 243.853 143.803 237.935 144.067 232.016L144.067 232.005L144.067 232L144.068 231.994L144.068 231.989C144.091 231.461 144.115 230.934 144.139 230.407L144.144 230.277C144.433 223.863 144.726 217.326 144.429 210.904C143.994 204.412 143.096 197.959 141.742 191.596ZM108.672 295.098C108.11 290.181 107.658 285.313 107.429 280.416C107.705 279.875 109.174 279.591 112.698 279.591C117.732 279.591 135.314 278.862 138.355 278.2C138.554 278.172 138.721 278.162 138.862 278.167C138.133 281.621 137.325 285.059 136.436 288.477C136.127 289.639 135.805 290.8 135.483 291.962C134.106 296.927 132.724 301.913 132.262 307.058C131.977 310.597 132.101 314.157 132.629 317.668C133.076 320.614 133.771 323.503 134.465 326.391C135.273 329.745 136.079 333.097 136.494 336.53C137.105 342.229 136.88 347.984 135.831 353.611C133.133 354.021 127.193 353.923 122.931 353.852L122.923 353.852L122.897 353.851C122.095 353.838 121.353 353.826 120.704 353.818C119.658 353.806 118.519 353.811 117.369 353.817H117.365C113.851 353.834 110.235 353.851 108.835 353.366C108.887 351.519 108.967 349.671 109.058 347.82C109.126 346.222 109.176 344.627 109.226 343.033C109.352 338.971 109.478 334.916 109.909 330.851C110.362 327.667 110.614 324.457 110.662 321.241C110.688 320.149 110.571 319.059 110.315 317.998C110.136 317.404 109.897 316.834 109.658 316.263C109.354 315.538 109.049 314.81 108.865 314.028C108.261 310.902 108.261 307.689 108.865 304.563C109.214 301.413 109.149 298.231 108.672 295.098ZM122.752 355.446C128.586 355.419 133.352 355.476 135.351 355.757C134.217 359.219 133.204 361.997 132.223 364.684C130.887 368.343 129.612 371.836 128.18 376.661C127.583 378.676 126.978 380.691 126.371 382.706C125.062 387.061 123.751 391.418 122.536 395.785C122.21 396.94 121.876 397.778 121.555 398.581C121.143 399.614 120.754 400.588 120.439 402.101C119.958 403.704 119.784 405.384 119.927 407.052C121.052 410.991 122.437 414.85 124.073 418.604C124.921 419.838 125.911 420.969 127.02 421.973L128.74 423.7L129.639 424.671C129.888 424.947 130.121 425.23 130.367 425.528L130.368 425.53L130.369 425.531L130.461 425.642C131.495 426.933 132.335 428.7 131.678 430.039C131.265 430.735 130.611 431.253 129.842 431.496C128.958 431.791 128.028 431.923 127.097 431.884C125.98 431.866 124.865 432 123.783 432.282C122.774 432.661 121.787 433.095 120.826 433.583C118.95 434.326 116.956 434.72 114.94 434.748C113.113 434.733 111.303 434.405 109.586 433.777C107.344 432.952 105.827 426.982 107.161 419.74C107.219 419.41 106.938 414.507 106.938 414.507V406.605C106.996 400.756 107.587 395.435 108.183 390.07C108.684 385.56 109.189 381.02 109.383 376.108C109.542 372.024 109.374 369.754 109.17 367.006C109.052 365.41 108.921 363.652 108.836 361.284C108.773 359.452 108.761 357.623 108.785 355.795C109.997 355.389 114.087 355.407 118.436 355.434L118.443 355.434L118.452 355.434C119.893 355.443 121.359 355.453 122.752 355.446ZM105.539 280.408C105.252 279.872 103.78 279.591 100.275 279.591C95.2411 279.591 77.6586 278.862 74.6172 278.2C74.3378 278.161 74.1197 278.157 73.9506 278.18C74.5835 281.148 75.2821 284.102 76.046 287.041C76.3707 288.27 76.7061 289.496 77.0412 290.722C79.0003 297.885 80.9502 305.014 80.6944 312.533C80.5204 317.853 79.2931 322.949 78.0368 328.065C76.6052 333.445 75.9222 338.999 76.0074 344.568C76.1002 347.934 76.5046 350.848 77.1091 353.573C79.6841 354.027 85.8525 353.925 90.2407 353.852L90.2487 353.852L90.2751 353.851L90.3319 353.85C91.1124 353.838 91.8346 353.826 92.468 353.818C93.5143 353.806 94.6529 353.811 95.8026 353.817H95.8069C99.1065 353.833 102.496 353.849 104.057 353.449C104.01 351.781 103.939 350.112 103.859 348.441C103.777 346.6 103.745 344.76 103.713 342.919C103.674 340.653 103.635 338.388 103.501 336.122C103.397 334.069 103.137 332.008 102.876 329.947C102.46 326.657 102.045 323.367 102.264 320.114C102.353 318.802 102.721 317.664 103.101 316.491C103.303 315.868 103.508 315.235 103.675 314.562C104.259 312.047 104.445 309.456 104.226 306.883C103.953 304.353 103.853 301.807 103.927 299.263C104.053 297.27 104.278 295.272 104.503 293.273L104.503 293.266C104.57 292.677 104.636 292.086 104.7 291.497C105.117 287.799 105.384 284.111 105.539 280.408ZM104.104 355.719C102.622 355.391 98.7914 355.409 94.736 355.434L94.7285 355.434L94.7204 355.434C93.279 355.443 91.8129 355.453 90.4195 355.446C84.4122 355.418 79.5378 355.48 77.6506 355.783C78.3771 358.501 79.2831 361.097 80.2471 363.86C81.1119 366.338 82.0234 368.95 82.8941 371.904C84.1891 376.234 85.4841 380.564 86.7597 384.883C87.4333 387.133 88.1367 389.2 88.8228 391.217C90.1647 395.16 91.4405 398.909 92.2974 403.451C92.6131 404.72 92.6788 406.039 92.4907 407.334C91.3317 411.174 89.9605 414.946 88.3835 418.633C87.5283 419.865 86.5362 420.995 85.4263 422.002L83.7351 423.594L82.8363 424.564L82.7427 424.675C82.6721 424.759 82.6024 424.842 82.5331 424.925L82.5313 424.927C82.3604 425.131 82.1915 425.333 82.0149 425.535C80.9808 426.826 80.1401 428.593 80.7972 429.933C81.2107 430.628 81.8642 431.146 82.6334 431.389C83.5172 431.685 84.4472 431.816 85.378 431.777C86.4957 431.759 87.6107 431.893 88.6927 432.175C89.7013 432.554 90.6885 432.989 91.6499 433.476C93.4966 434.213 95.4613 434.608 97.4483 434.641C99.4198 434.641 101.633 434.573 103.131 433.67C107.364 431.117 105.237 419.633 105.237 419.633C105.257 418.526 105.566 414.42 105.566 414.42V408.071C105.566 407.316 105.582 406.557 105.598 405.797L105.598 405.795C105.63 404.272 105.663 402.743 105.566 401.227C105.369 398.151 105.029 395.617 104.676 392.989C104.421 391.098 104.161 389.158 103.942 386.932C103.36 381.567 103.066 376.175 103.063 370.778C103.083 368.079 103.323 366.541 103.568 364.977C103.801 363.482 104.039 361.963 104.091 359.382C104.117 358.16 104.119 356.939 104.104 355.719ZM106.281 394.193L106.142 392.768C105.421 385.394 104.695 377.979 104.831 370.565C104.867 368.536 105.067 367.713 105.28 366.835C105.475 366.033 105.681 365.186 105.782 363.333C105.995 359.45 106.062 355.324 105.898 351.315C105.81 349.157 105.763 347 105.716 344.843C105.622 340.585 105.529 336.33 105.125 332.084C104.975 330.567 104.791 329.06 104.606 327.555L104.604 327.536L104.604 327.533C104.515 326.81 104.427 326.088 104.342 325.366C103.957 323.162 103.935 320.909 104.275 318.697C104.464 317.84 104.724 317.01 104.983 316.18L104.985 316.174C105.359 314.977 105.733 313.781 105.898 312.504C106.149 310.262 106.149 307.999 105.898 305.757C105.411 301.076 105.866 296.55 106.332 291.91L106.402 291.208L106.428 290.956L106.459 290.642C106.559 291.577 106.678 292.52 106.799 293.469L106.8 293.477L106.8 293.478L106.8 293.48C107.179 296.47 107.565 299.511 107.367 302.486C107.296 303.573 107.17 304.639 107.046 305.699C106.749 308.225 106.457 310.71 106.913 313.329C107.181 314.818 107.619 316.27 108.217 317.658C108.836 319.496 109.025 321.453 108.768 323.376C108.643 325.503 108.394 327.618 108.144 329.732C107.949 331.381 107.754 333.031 107.618 334.686C107.328 338.247 107.248 341.821 107.168 345.396C107.125 347.288 107.083 349.181 107.009 351.072C106.874 354.46 106.865 357.867 107.009 361.245C107.088 363.178 107.202 363.97 107.319 364.776C107.433 365.56 107.548 366.358 107.634 368.235C108.021 376.323 107.233 384.412 106.452 392.437C106.395 393.023 106.338 393.608 106.281 394.193ZM210.269 229.145C208.926 229.254 207.576 229.035 206.336 228.504C204.714 227.928 203.616 226.885 202.449 225.776C202.122 225.464 201.788 225.148 201.436 224.835C200.721 224.194 198.344 222.621 198.015 224.534C198.035 225.298 198.234 226.046 198.595 226.718C200.378 230.908 202.495 234.946 204.925 238.794C205.051 239.004 205.191 239.22 205.334 239.441C205.855 240.242 206.421 241.112 206.481 242.017C206.665 244.696 203.988 242.017 203.427 241.318C202.573 240.239 201.817 239.051 201.057 237.859C199.857 235.975 198.649 234.08 197.039 232.581C195.918 231.552 194.556 231.611 194.565 233.368C194.648 234.513 194.892 235.641 195.29 236.717C195.844 238.546 196.519 240.343 197.19 242.131L197.387 242.658C197.975 244.051 198.441 245.493 198.779 246.968C199.001 248.201 198.46 250.327 197.097 248.725C196.127 247.335 195.368 245.807 194.846 244.192C194.306 242.93 193.847 241.603 193.388 240.275C193.141 239.558 192.893 238.841 192.633 238.134C192.574 237.978 192.505 237.744 192.423 237.466C192.054 236.224 191.424 234.097 190.342 234.057C188.889 233.987 189.069 236.712 189.145 237.854C189.149 237.915 189.153 237.971 189.156 238.023L189.161 238.101L189.163 238.153C189.209 239.352 189.32 240.541 189.43 241.729L189.43 241.73L189.431 241.732C189.506 242.544 189.582 243.357 189.637 244.172C189.645 244.295 189.659 244.448 189.676 244.624C189.789 245.843 190.003 248.149 189.125 248.803C187.675 249.846 187.418 245.842 187.35 244.775C187.345 244.69 187.34 244.624 187.337 244.58C187.227 243.344 187.111 242.111 186.989 240.881C186.985 240.838 186.98 240.784 186.975 240.719L186.966 240.608C186.831 238.908 186.306 232.331 183.771 234.086C182.607 234.879 182.877 237.134 183.044 238.539L183.044 238.541L183.056 238.635C183.062 238.69 183.069 238.744 183.075 238.796L183.087 238.903C183.093 238.96 183.099 239.014 183.104 239.066C183.279 240.564 183.354 242.072 183.326 243.58C183.326 244.551 182.727 246.978 181.79 245.026C181.161 243.719 181.112 242.243 181.063 240.797L181.063 240.796C181.049 240.374 181.035 239.954 181.007 239.542C180.896 237.85 180.712 236.158 180.527 234.466L180.527 234.464C180.471 233.944 180.414 233.423 180.359 232.902C180.337 232.074 180.23 231.251 180.04 230.446C179.712 229.425 179.344 228.423 178.976 227.421C178.357 225.738 177.739 224.056 177.315 222.291C177.068 221.259 177.144 220.213 177.222 219.131C177.312 217.891 177.405 216.604 177.019 215.237C177.366 215.093 177.857 214.986 178.507 214.844C179.492 214.628 180.842 214.333 182.611 213.71C186.536 212.33 188.957 211.297 189.945 210.658C190.473 211.143 191.402 211.284 192.464 211.446C193.804 211.65 195.355 211.887 196.576 212.885C198.785 214.69 200.592 216.974 202.383 219.239C203.193 220.263 203.999 221.283 204.838 222.252C206.096 223.795 207.511 225.201 209.061 226.446L209.127 226.489C209.805 226.937 212.517 228.723 210.269 229.145ZM188.93 208.681C185.974 202.239 184.112 195.342 183.423 188.276C182.953 183.105 182.074 177.979 180.794 172.948C179.874 169.672 178.78 166.448 177.518 163.289C177.312 162.779 177.107 162.248 176.899 161.707L176.898 161.706C176.574 160.863 176.24 159.996 175.875 159.148C175.578 158.702 175.107 158.22 174.49 158.584C174.452 158.606 174.412 158.63 174.371 158.655L174.315 158.69L174.22 158.748L174.122 158.809C172.966 159.529 170.686 160.949 165.072 162.331C162.544 162.953 160.616 163.249 159.21 163.464C157.125 163.783 156.187 163.927 156.144 164.699C156.685 166.994 157.296 169.272 157.977 171.53C160.52 179.289 164.099 186.596 167.677 193.905C170.861 200.407 174.046 206.911 176.502 213.734C178.271 213.777 187.459 211.346 188.93 208.681ZM155.978 162.308C155.786 162.225 155.641 162.094 155.529 161.942C155.364 161.156 155.207 160.369 155.059 159.58C154.154 155.537 152.955 151.566 151.474 147.698C150.649 145.473 149.713 143.301 148.776 141.124L148.775 141.122C148.384 140.213 147.992 139.304 147.608 138.389C147.396 137.719 147.396 137 147.608 136.331C147.608 136.26 147.727 135.341 147.911 133.918L147.911 133.917L147.914 133.897C148.05 132.85 148.22 131.533 148.405 130.082C148.411 130.063 148.417 130.045 148.423 130.028L148.434 130C148.613 128.875 148.776 127.774 148.924 126.694C148.944 126.655 148.966 126.599 148.99 126.525C149.28 125.612 150.578 125.355 153.046 124.867C154.387 124.602 156.074 124.268 158.132 123.723C163.357 122.341 165.479 120.921 166.555 120.202C166.682 120.116 166.795 120.04 166.897 119.976C167.139 119.823 167.338 119.819 167.5 119.898C168.695 125.732 169.581 131.625 170.154 137.554C170.483 140.971 170.666 144.408 170.705 147.844C170.924 150.537 171.952 153.1 173.652 155.193C173.775 155.347 173.894 155.506 174.01 155.669C174 159.327 157.048 162.769 155.978 162.308ZM166.917 117.169L166.917 117.168C166.609 116.067 166.513 114.917 166.636 113.78C166.83 112.11 166.965 110.441 167.042 108.752C167.2 105.418 167.087 102.077 166.704 98.7626C166.186 95.7387 165.097 92.8423 163.496 90.2296C163.261 89.8028 163.026 89.3602 162.785 88.9093C161.528 86.5505 160.15 83.9649 158.267 82.2209C154.763 78.9648 149.517 77.6399 144.61 77.1557C148.952 93.2291 151.398 105.348 149.318 123.566C149.377 123.63 149.449 123.683 149.535 123.723C150.512 124.176 165.195 120.904 166.917 117.169ZM67.7725 77.3324L67.9135 77.3134C63.6051 93.2857 61.1824 105.373 63.24 123.488C63.1694 123.586 63.0782 123.668 62.9594 123.723C62.0131 124.161 48.2034 121.105 45.7757 117.518C45.8022 117.388 45.8288 117.259 45.8557 117.129C46.1774 116.031 46.2921 114.882 46.1939 113.741C45.7961 110.398 45.654 107.03 45.7687 103.665C45.7179 100.49 46.2418 97.3323 47.3149 94.3456C48.647 91.3071 50.2276 88.3848 52.0406 85.6088C53.4718 83.0408 55.683 80.9998 58.3512 79.7843C61.2978 78.5307 64.4098 77.7132 67.59 77.3574L67.7725 77.3324ZM64.0046 129.181C63.8786 128.362 63.7609 127.555 63.6516 126.76C63.6122 126.781 63.5634 126.711 63.5042 126.525C63.2146 125.612 61.9164 125.355 59.4485 124.867C58.1071 124.602 56.4202 124.268 54.362 123.723C49.1373 122.341 47.0152 120.921 45.9395 120.202C45.8119 120.116 45.6986 120.04 45.597 119.976C45.4959 119.912 45.4023 119.874 45.3158 119.857C45.1689 120.633 45.0271 121.41 44.8893 122.187C43.6287 128.952 42.7864 135.79 42.367 142.66C42.28 144.369 42.2123 146.087 42.2123 147.805C42.1559 148.918 41.904 150.013 41.4682 151.038C40.9715 152.533 40.2122 153.927 39.2262 155.154C39.1989 155.191 39.1719 155.229 39.145 155.267L39.1251 155.295L39.074 155.368C39.0416 155.414 39.0094 155.461 38.9775 155.508C38.4771 159.226 55.913 162.775 56.9986 162.308C57.1483 162.243 57.2698 162.149 57.369 162.038C57.7624 160.132 58.1579 158.231 58.6701 156.377C59.7589 152.441 61.0721 148.571 62.6034 144.786C62.6678 144.63 62.7325 144.472 62.7974 144.314L62.9826 143.863L62.9875 143.851L62.9973 143.827L62.9979 143.825L62.9998 143.821L63.0002 143.82C63.4556 142.709 63.9224 141.57 64.4009 140.466C64.8879 139.617 65.0943 138.635 64.9904 137.661L64.9901 137.658C64.9456 137.297 64.4843 133.547 64.0046 129.181ZM30.9538 177.598C32.3484 171.241 34.4121 165.052 37.1097 159.135C37.4069 158.694 37.8752 158.223 38.4864 158.584C38.5956 158.648 38.7171 158.724 38.8544 158.809C40.0102 159.529 42.2906 160.949 47.9048 162.331C50.4322 162.953 52.3605 163.249 53.767 163.464C55.783 163.773 56.727 163.917 56.8256 164.625C56.5594 165.846 56.2727 167.061 55.9352 168.259C53.6255 176.452 50.0112 184.257 46.2229 191.848C42.41 199.118 39.0676 206.626 36.2164 214.327C34.4312 214.377 24.9338 211.858 23.7133 209.136C26.4509 203.346 28.2809 197.165 29.1369 190.81C29.3945 189.104 29.587 187.398 29.7794 185.694L29.7797 185.692C30.0854 182.985 30.3905 180.284 30.9538 177.598ZM22.5471 211.098C22.5277 211.108 22.508 211.118 22.4881 211.128C20.0238 211.069 17.8687 211.458 16.0035 213.069C13.8548 214.928 12.0878 217.157 10.3196 219.388C8.59674 221.562 6.87273 223.738 4.7933 225.572C4.67803 225.674 4.46542 225.829 4.20477 226.019L4.20285 226.02L4.20188 226.021C2.88832 226.979 0.362864 228.821 2.90882 229.145C4.70723 229.199 6.48386 228.738 8.03074 227.815C8.78436 227.39 9.45242 226.675 10.1266 225.953C11.0863 224.925 12.0584 223.884 13.3073 223.65C14.9115 223.34 14.9888 224.611 14.6506 225.718C13.6783 228.442 12.435 231.06 10.9396 233.533C9.94422 235.367 8.91983 237.202 7.84712 238.988C7.49922 239.571 5.10255 243.619 7.40258 243.201C8.19719 243.062 8.85291 242.161 9.3992 241.411C9.49738 241.277 9.59201 241.147 9.68329 241.027C10.2825 240.241 10.8623 239.445 11.4131 238.61C12.6009 236.641 13.9488 234.774 15.443 233.028C15.9746 232.455 16.883 231.504 17.7431 231.989C19.2047 232.816 17.8625 236.305 17.2643 237.861C17.1743 238.095 17.1012 238.285 17.0569 238.416C17.011 238.551 16.8908 238.85 16.7237 239.265C15.6613 241.905 12.7029 249.255 14.8825 249.414C16.0381 249.495 16.9977 246.916 17.524 245.501C17.6272 245.224 17.7136 244.991 17.7817 244.832C18.4258 243.36 18.9625 241.839 19.4984 240.32L19.4995 240.317C19.7513 239.603 20.0029 238.89 20.2654 238.183C20.3102 238.064 20.369 237.871 20.4418 237.631C20.8397 236.32 21.6583 233.624 22.9326 234.173C23.6478 234.474 23.7348 235.532 23.7348 236.193C23.7941 238.226 23.6939 240.261 23.4352 242.279C23.2902 243.539 23.2128 244.806 23.2032 246.075C23.1178 246.925 23.2475 247.783 23.5801 248.57C24.9717 250.637 25.5613 245.094 25.5613 244.619C25.6965 243.066 25.8415 241.561 26.0155 239.92C26.044 239.651 26.0681 239.364 26.0932 239.066C26.2207 237.548 26.372 235.748 27.2525 234.571C28.3058 233.164 29.6685 234.28 29.8811 235.697C30.0669 236.957 29.9177 238.238 29.7691 239.515C29.6703 240.363 29.5718 241.209 29.5718 242.046L29.5709 242.093L29.5687 242.19C29.5469 243.116 29.4676 246.481 30.7315 245.687C31.3604 245.283 31.5551 243.872 31.6652 243.074L31.6654 243.073C31.677 242.989 31.6877 242.911 31.6979 242.842C31.8287 242.147 31.8431 241.445 31.8575 240.739C31.8654 240.35 31.8734 239.96 31.9008 239.571C32.0083 237.933 32.1859 236.304 32.3636 234.675L32.3637 234.674C32.4577 233.811 32.5517 232.949 32.6353 232.086C32.6688 231.327 32.8289 230.579 33.1088 229.873L33.1656 229.73C34.4552 226.478 35.8662 222.919 36.0757 219.398C36.1074 218.892 36.0065 218.462 35.9008 218.013C35.759 217.41 35.6086 216.771 35.7588 215.859C35.409 215.701 34.8976 215.589 34.2059 215.437C33.2212 215.222 31.8711 214.927 30.1015 214.304C25.8438 212.807 23.3551 211.717 22.5471 211.098ZM122.095 50.0112C121.602 51.1898 120.892 51.8951 120.29 52.4922C119.705 53.0736 119.223 53.5524 119.145 54.2659C116.273 52.3677 110.678 51.0776 106.352 51.1567C102.958 51.1259 96.6312 52.4401 93.8276 54.2659C93.8069 53.6794 93.3665 53.2564 92.798 52.7105C92.2247 52.1599 91.5212 51.4843 90.9866 50.3898C90.3187 48.7855 89.7696 47.134 89.3437 45.4486C88.3773 42.4587 87.5945 39.4299 86.9567 36.3623C85.681 30.6695 85.5071 24.7834 86.4445 19.0246C87.3239 14.0446 89.3437 9.09377 93.3639 5.88057C97.0749 2.9683 101.82 1.99754 106.439 1.91018C110.892 1.7153 115.291 2.94581 119.003 5.42431C123.274 8.51132 125.458 13.4622 126.405 18.5295C127.43 24.2696 127.332 30.1553 126.115 35.8575C125.242 40.6968 123.895 45.4376 122.095 50.0112ZM142.695 77.0058C141.948 76.9617 141.215 76.9347 140.505 76.9205C134.378 76.8137 133.218 76.3672 132.6 75.6197C130.657 74.1636 128.609 72.8239 126.579 71.5037L123.612 69.5622C122.548 69.059 121.543 68.437 120.616 67.708C120.292 67.3737 120.272 67.0916 120.244 66.6797C120.24 66.622 120.235 66.5617 120.23 66.4983L120.226 66.4512C120.224 66.4304 120.222 66.4093 120.22 66.3878C119.885 62.5889 119.544 58.7933 119.196 55.0008C114.717 53.5674 111.025 52.5351 106.343 52.5351C101.897 52.5351 97.9218 53.5937 93.6538 55.0203C93.3188 58.8256 92.9774 62.631 92.6295 66.4364C92.6234 66.5096 92.6185 66.5781 92.6139 66.6426C92.5822 67.091 92.5637 67.3518 92.2429 67.708C91.3151 68.4317 90.3065 69.0442 89.2374 69.5331C88.1067 70.2514 86.976 70.9698 85.855 71.7076C85.4666 71.9703 85.0779 72.2314 84.6896 72.4921L84.6852 72.4951C83.181 73.5052 81.683 74.5113 80.2402 75.5906C79.2803 76.4328 77.6042 76.5313 74.8186 76.695C73.4461 76.7756 71.8043 76.8721 69.8461 77.0811C67.1697 85.1899 65.4271 93.0919 64.5793 100.889C69.7162 105.176 103.569 105.506 107.105 105.506C107.749 105.506 108.531 105.509 109.427 105.514C119.219 105.56 142.639 105.672 148.07 101.68C147.254 93.6023 145.477 85.4154 142.695 77.0058Z" fill="#076EB0"/>
</g>
<defs>
<linearGradient id="paint0_linear_275_43739" x1="107.5" y1="408" x2="107.813" y2="454.869" gradientUnits="userSpaceOnUse">
<stop offset="0.0661284" stop-color="#076EB0" stop-opacity="0.04"/>
<stop offset="0.968791" stop-color="#076EB0"/>
</linearGradient>
<clipPath id="clip0_275_43739">
<rect width="213" height="448" fill="white"/>
</clipPath>
</defs>
</svg>
