<?xml version="1.0" encoding="utf-8"?>
<!-- Generator: Adobe Illustrator 25.4.1, SVG Export Plug-In . SVG Version: 6.00 Build 0)  -->
<svg version="1.1" id="Layer_1" xmlns="http://www.w3.org/2000/svg" xmlns:xlink="http://www.w3.org/1999/xlink" x="0px" y="0px"
	 viewBox="0 0 895 1885" style="enable-background:new 0 0 895 1885;" xml:space="preserve">
<style type="text/css">
	.st0{fill:none;}
	.st1{fill:none;stroke:url(#SVGID_1_);stroke-width:1.5;stroke-linecap:round;stroke-dasharray:6,6;}
	.st2{fill-rule:evenodd;clip-rule:evenodd;fill:#076EB0;}
	.st3{fill-rule:evenodd;clip-rule:evenodd;fill:#EDF3F6;}
	.st4{fill:#076EB0;}
</style>
<path class="st0" d="M0.6,0.4v1884h894V0.4H0.6z M448.9,1234.6L448.9,1234.6L448.9,1234.6L448.9,1234.6c1.6,12.6,3.2,25.4,2.4,37.9
	c-0.3,4.6-0.8,9.1-1.4,13.5c-1.2,10.6-2.5,21.1-0.6,32.1c1.1,6.3,3,12.4,5.5,18.2c2.6,7.7,3.4,16,2.3,24c-0.5,8.9-1.6,17.8-2.6,26.7
	c-0.8,6.9-1.6,13.9-2.2,20.8c-1.2,15-1.6,30-1.9,45c-0.2,7.9-0.4,15.9-0.7,23.9c-0.6,14.2-0.6,28.6,0,42.8
	c0.3,8.1,0.8,11.5,1.3,14.8c0.5,3.3,1,6.7,1.3,14.5c1.6,34-1.7,68-5,101.8c-0.2,2.5-0.5,4.9-0.7,7.4l-0.6-6c-3-31-6.1-62.2-5.5-93.4
	c0.2-8.5,1-12,1.9-15.7c0.8-3.4,1.7-6.9,2.1-14.7c0.9-16.3,1.2-33.7,0.5-50.5c-0.4-9.1-0.6-18.2-0.8-27.2
	c-0.4-17.9-0.8-35.8-2.5-53.7c-0.6-6.4-1.4-12.7-2.2-19l0-0.1v0c-0.4-3-0.8-6.1-1.1-9.1c-1.6-9.3-1.7-18.7-0.3-28
	c0.8-3.6,1.9-7.1,3-10.6l0,0c1.6-5,3.1-10.1,3.8-15.4c1.1-9.4,1.1-18.9,0-28.4c-2-19.7-0.1-38.7,1.8-58.2l0.3-2.9l0.1-1.1l0.1-1.3
	C447.9,1226.6,448.4,1230.6,448.9,1234.6z"/>
<linearGradient id="SVGID_1_" gradientUnits="userSpaceOnUse" x1="451.2792" y1="169.7664" x2="452.5962" y2="-27.3336" gradientTransform="matrix(1 0 0 -1 0 1886)">
	<stop  offset="6.612840e-02" style="stop-color:#076EB0;stop-opacity:4.000000e-02"/>
	<stop  offset="0.9688" style="stop-color:#076EB0"/>
</linearGradient>
<path class="st1" d="M451.8,1880.2c221.4,0,400.8-36.7,400.8-82s-179.5-82-400.8-82S51,1752.9,51,1798.2S230.5,1880.2,451.8,1880.2z
	"/>
<path class="st2" d="M885.1,950.6c-12.8-7.9-22.5-20.5-32-32.7c-4.6-5.9-9.1-11.8-13.9-17c-7.1-7.8-15-15.2-25.5-17.6
	c-1.2-0.3-3.2-0.3-5.1-0.3c-3.3,0-6.8-0.1-8-1.3c-1.5-2.2-2.6-4.7-3.3-7.3c-1.3-3.1-2.6-6.2-3.8-9.4c-8.3-22.7-13.7-46.3-16.2-70.3
	c-0.5-4.4-0.9-8.7-1.3-13.1c-1-10.1-1.9-20.2-3.8-30.2c-4.8-24.7-11.9-48.9-21.3-72.3c-0.9-2.2-1.7-4.5-2.6-6.8
	c-2.8-7.5-5.8-15.5-10.1-21.6c-4.6-5.7-8.1-12.2-10.3-19.1c-2-7.6-2.1-16-2.1-24.3c0-4.1-0.1-8.2-0.3-12.1
	c-0.9-12.4-2.1-24.7-3.7-37c-3-23.8-7.2-47.5-12.5-70.9c-0.7-5.6-0.6-11.3,0.4-16.9c0.5-6.3,0.9-12.7,1-19.1
	c0.3-12.3-0.3-24.5-1.9-36.7c-2.7-20.8-14.4-39.6-25.4-57.2l0,0l-0.1-0.2c-0.8-1.3-1.6-2.5-2.4-3.8c-12.8-20.4-33.5-28.6-56.2-32.9
	c-12-2.3-24.1-3.6-36.3-4.1c-2,0-3.9,0-5.9,0h0c-3.9-0.1-7.8-0.1-11.8,0c-1.3,0.2-2.7,0.1-4-0.3c-1.3-0.4-2.5-1.1-3.4-2
	c-2.3-1.8-4.8-3.5-7.3-5.2c-9.9-6.9-20.3-13.2-30.6-19.5l-8.4-5c-0.4-0.3-1.1-0.6-1.8-0.9c-1.5-0.7-3.3-1.5-3.8-2.5
	c-0.2-0.9-0.3-1.8-0.3-2.8l-3.5-32.4c-0.3-2.3-0.5-4.7-0.8-7c-0.2-2.3-0.5-4.7-0.8-7c-0.3-0.9-0.4-1.8-0.4-2.6
	c0.2-0.4,1-0.9,1.8-1.3h0c0.3-0.2,0.7-0.4,0.9-0.5c2.4-1.7,4.6-3.7,6.5-5.9c4.2-6,7.2-12.7,9-19.8c3.3-9.6,6.2-19.4,8.8-29.2
	c11.3-42.4,16.8-94.7-7.6-134C514,20.8,496.8,8.4,477,3.5c-9.6-2-19.4-3.1-29.2-3.1c-4.5,0-9,0.2-13.5,0.7
	C414.5,3.7,394,10.8,380,25.6c-15.2,15.8-22.3,37.3-25.2,58.8c-5.8,42.6,4.9,84.7,19.1,124.8c1.4,4.4,3.5,8.6,6.3,12.2
	c1.6,1.8,3.3,3.5,5.2,4.9c0.2,0.2,0.7,0.4,1.2,0.7c1.2,0.7,2.7,1.6,2.9,2.1c0.1,3.1-0.2,6.1-1,9.1l-3.8,34.5
	c0.1,2.8-0.2,5.5-0.9,8.2c-0.5,1-2.5,1.9-4.1,2.7c-0.6,0.3-1.1,0.5-1.5,0.7l-8.3,5.1c-5.2,3.3-10.4,6.5-15.7,9.7
	c-5,3.2-10,6.4-14.9,9.8c-2.2,1.5-4.3,3.1-6.4,4.7c-1.1,1.1-2.3,1.9-3.7,2.4c-1.4,0.5-2.9,0.7-4.4,0.6c-12.3-0.3-24.6,0.2-36.8,1.5
	c-21.7,2.4-47.2,7-63.7,22.7c-6.4,6.1-11.2,14.4-15.7,22.2c-0.9,1.6-1.8,3.2-2.8,4.7c-6.1,10-11.3,20.4-15.5,31.4
	c-3.5,11.3-5.3,23.1-5.3,34.9c-0.6,12.2-0.3,24.5,0.7,36.7c1,5.6,1.1,11.3,0.4,16.9c-1.1,4.9-2.2,9.7-3.2,14.6h0l0,0.1
	c-0.3,1.2-0.5,2.5-0.8,3.8c-2.4,11.8-4.4,23.6-6.2,35.4c-3.7,24.3-6,48.9-6.9,73.5c-0.4,11.5-1.4,21.7-8.1,31.4
	c-3.9,5.6-7.2,11.5-9.9,17.7c-16.9,37.3-27.6,77.1-31.6,117.9c-1.8,22.8-5.9,45.3-12.2,67.3c-1.6,5.3-3.4,10.6-5.3,15.8
	c-1.1,2.9-2.2,5.7-3.4,8.5c-0.8,2.9-2.1,5.7-3.8,8.2c-1.2,1.2-4.7,1.2-8,1.3c-2,0-3.9,0-5.1,0.3c-5.3,1.3-10.3,3.7-14.6,7.1
	c-10.5,8.2-18.8,18.8-27.1,29.3c-5.9,7.5-11.8,14.9-18.4,21.6c-3.5,3.5-7.3,6.6-11.4,9.4l-0.2,0.1c-3.4,2.3-7.3,5.1-7.3,9.7
	c-0.2,7.8,8.1,9.8,14,9.3c7.4-0.5,14.6-2.7,21-6.4c3.8-2.5,7.2-5.4,10.3-8.7c0.6-0.5,1.2-1.2,1.8-1.9l0,0c2.3-2.5,5-5.4,7.9-6.3
	c-2.5,8.2-6,16-10.4,23.3c-4.8,9.3-9.8,18.5-15.1,27.6c-0.8,1.4-1.8,3-2.9,4.6c-4.3,6.6-9.4,14.5-6.4,21.4
	c6.8,15.7,21.8-4.1,26.5-10.4c2.5-3.3,4.7-6.8,7-10.3c1.4-2.2,2.9-4.4,4.4-6.6c3.1-5.4,7-10.2,11.6-14.3c-0.5,5.3-1.7,10.4-3.7,15.3
	c-2,6-4.1,11.8-6.2,17.7c-0.7,1.8-1.5,3.8-2.3,5.8c-3.5,8.4-7.6,18.3-5.5,26.4c0.2,1.4,0.8,2.7,1.7,3.9c0.9,1.2,2,2.1,3.2,2.7
	c1.3,0.6,2.7,1,4.1,1c1.4,0,2.8-0.3,4.1-1c5.2-3,8.1-9.8,10.5-15.4c0.3-0.6,0.5-1.2,0.8-1.8c3-6.9,5.5-14,8.1-21.1
	c2.6-7.2,5.1-14.3,8.1-21.2c0.4,7.4-0.4,14.8-1.1,22.2c-0.5,4.8-1,9.7-1.1,14.5l0,0.9c-0.2,6-0.5,14.4,3.9,18.9
	c1,0.9,2.2,1.6,3.5,1.9c1.3,0.4,2.7,0.4,4,0.1c1.3-0.3,2.6-0.9,3.6-1.7c1.1-0.9,1.9-1.9,2.5-3.2c3.2-5.8,3.5-13.6,3.8-20.7
	c0.1-2,0.2-4,0.3-5.9l0.2-2.1c0.5-5.7,1.1-11.5,1.9-17.2c0-0.2,0.1-0.5,0.1-0.9c0-0.3,0-0.6,0.1-1c0.3-3.6,0.8-9.5,3.2-10.8
	c2.6,2.4,1.4,10.2,0.7,15.1c-0.2,1.2-0.3,2.2-0.4,2.9c-1,7.2-1.2,14.4-0.5,21.6c0.9,6.5,6.5,14.8,13.5,8.9
	c4.5-3.8,5.7-11.3,6.4-16.8c0.4-3.5,0.6-7.1,0.7-10.7c0.1-2.8,0.2-5.5,0.5-8.3c0.4-4.8,0.9-9.5,1.4-14.2c0.4-4.1,0.9-8.2,1.2-12.3
	c0.6-4,1.8-7.9,3.5-11.6c2.6-7,5-14,7.1-21.2c2.3-7.2,3.7-14.7,4.1-22.2c0-2.3-0.2-4.7-0.7-6.9c-0.8-1.6-1.4-3.3-1.9-5.1
	c0.8-3.7,2.2-7.2,4.1-10.5c7.3-17.5,15.4-34.7,23.8-51.6c4-7.9,8-15.7,12-23.6c16.4-32.1,32.9-64.1,43.9-98.6
	c4.3-13.5,7.1-27.3,9.9-41.1c1.9-9.5,3.9-19,6.3-28.3c5.6-21,12.4-41.6,20.3-61.8l8.6,33.6c2.9,8.7,5.1,17.6,6.7,26.6
	c0.6,6.7,0.4,13.7,0.2,20.5c-0.1,3.4-0.2,6.8-0.2,10.1c0,15.9,0,31.8-0.3,47.6c-0.6,9-0.6,18,0,27.1c0.9,3.7,2.2,7.3,3.7,10.7
	c1.7,5-0.1,11.9-1.7,18.2c-0.6,2.2-1.1,4.4-1.5,6.3c-2.9,15.7-5.5,31.5-7.8,47.3c-9.1,63.9-5.2,129.6-1,193.8
	c4,63.9,14.4,127.3,30.9,189.1c0.7,2.7,1.5,5.4,2.2,8.1l0,0c6.5,24,13,48,13.6,73.1c0.6,23.7-4.8,47-10.3,69.8
	c-7.8,31.5-11.6,62.5-7.8,94.9c2.5,20.6,6.9,32.6,12.2,47.1c2.7,7.4,5.7,15.3,8.7,25.4c8.6,28.4,17.2,56.8,25.9,85.2
	c2.8,9.1,5.5,17,8.3,24.6c3.9,11,7.7,21.7,11,34.9c0.3,1.2,0.6,2.4,1,3.7c1.8,6.6,3.9,14.2,2.7,20.4c-0.7,3.7-3.9,14.2-6.5,22.7
	c-1.7,5.5-3.1,10.2-3.4,11.6c-0.8,4.2-2.4,8.3-4.5,12c-3.3,4.8-7.2,9.1-11.6,12.9l-7.4,7.3l-3.8,4.1c-0.6,0.7-1.3,1.4-1.9,2.1
	c-0.7,0.8-1.4,1.6-2.1,2.3c-2.7,3.3-4.8,7.1-6.3,11.1c-0.9,2.3-1.3,4.8-1.2,7.3c0.1,2.5,0.7,4.9,1.7,7.2
	c5.1,9.6,16.7,11.8,25.2,11.6c4.1-0.1,8.2,0.4,12.2,1.4c4,1.5,7.9,3.3,11.7,5.3c8.7,3.1,17.9,4.5,27.1,4.3
	c9.1,0.5,18.3-1.3,26.5-5.2c2-1.2,3.8-2.6,5.6-4.1c1.7-1.6,3.1-3.4,4.4-5.4l0.4-0.7l0.4,0.7c1.2,2,2.7,3.8,4.4,5.4
	c1.8,1.5,3.6,2.8,5.6,4.1c8.3,4,17.4,5.8,26.5,5.2c9.2,0.2,18.4-1.2,27.1-4.3c3.8-1.9,7.7-3.7,11.7-5.3c4-1,8.1-1.5,12.2-1.4
	c8.5,0,20-2,25.1-11.6c1-2.3,1.6-4.7,1.7-7.2c0.1-2.5-0.3-5-1.2-7.3c-1.5-4-3.6-7.8-6.3-11.1l-0.1-0.2l-0.3-0.3l-0.2-0.3
	c-1.1-1.3-2.2-2.5-3.4-3.7l-3.8-4.1l-7.4-7.3c-4.3-3.9-8.1-8.2-11.4-12.9c-1.9-3-8.1-23.4-8.1-23.4c-3.4-10.4-6.8-23.7-5.9-30.5
	c1-6.2,2.3-9.5,3.9-13.5c0.9-2.4,2-5,3.1-8.6c4.2-15.4,8.9-30.6,13.6-45.9c1.1-3.5,2.2-7.1,3.2-10.6c8.6-28.2,17.2-56.4,25.7-84.6
	c3.2-10.8,6.6-19.1,9.7-26.9c5.4-13.4,10-25.1,12.3-44.6c3-30.8,0.6-61.9-7.3-91.8c-5.7-23.5-11.3-47.3-10.8-71.6
	c0.5-23.7,6.6-46.4,12.6-69.2c0.7-2.7,1.5-5.4,2.2-8.2c8.3-29.8,15-60,20.3-90.5c5-30.6,8.1-61.2,10.9-92.1
	c2.8-31.7,4.1-63.7,4.6-95.5l0-3c0.6-29.8,1.1-59.5-3.1-89.1c-2.1-15.1-4.8-30.1-7.7-44.9c-1.5-7.9-3.1-15.8-4.8-23.6l-0.4-1.6
	c-0.6-3-1.3-6.1-2-9.1c-1-3.9-1.1-7.9-0.2-11.9c1.5-8.5,1.2-17.5,0.9-26.3c-0.1-3.1-0.2-6.2-0.2-9.2c-0.2-23.7-0.3-47.3-0.5-70.9
	c0.1-7,1.4-13.9,3.8-20.4l12.4-42.1l2.6-8.8c6.4,16.5,12.2,33.3,17.4,50.2c3.9,12.6,6.5,25.4,9.1,38.2v0c1.7,8.3,3.4,16.5,5.4,24.8
	c10.8,44,31.1,85.1,52.1,125c9.9,18.8,19.2,37.8,27.9,57.2c3.9,7.2,7.1,14.8,9.5,22.7c0.4,1.9-0.2,3.7-0.8,5.6
	c-0.4,1.2-0.7,2.3-0.9,3.6c-0.5,4.4-0.4,8.8,0.5,13.1c2.8,13.9,6.9,27.5,12.4,40.5c1.5,5.6,2.3,11.3,2.4,17.1c0.1,1,0.2,2.1,0.3,3.1
	l0.2,1.8c0.8,6.8,1.5,13.6,1.7,20.5c-0.2,6.8,0.8,13.5,3,19.8c2.8,7,11.5,11.8,15.8,2.7c3.1-6.5,2.2-15.8,1.5-23l-0.1-1.2v0
	c-0.4-3.8-0.8-7.6-1-11.4c0-0.5-0.1-1.2-0.1-2c-0.2-2.5-0.5-6,0.8-7.4c2.5,1.1,3.1,7.4,3.5,10.9c0.1,0.7,0.1,1.2,0.2,1.6
	c0.8,5.7,1.4,11.5,1.9,17.3l0.2,1.9c0.2,2.1,0.3,4.3,0.4,6.6c0.3,6.9,0.6,14.4,3.7,20.1c0.5,1.2,1.3,2.2,2.3,3.1
	c1,0.8,2.2,1.4,3.4,1.8c1.2,0.3,2.6,0.4,3.8,0.1c1.3-0.3,2.5-0.8,3.5-1.6c4.9-4.1,4.6-12.8,4.5-18.7l0-0.6
	c-0.1-5.2-0.6-10.4-1.2-15.6c-0.7-7.4-1.5-14.8-1.1-22.2c2.8,6.6,5.3,13.4,7.7,20.3v0c2.7,7.4,5.3,14.9,8.5,22l0.1,0.3l0.2,0.5
	c0.1,0.3,0.3,0.7,0.4,1c2.4,5.7,5.4,13.1,11,15.7c1.3,0.5,2.8,0.7,4.2,0.6c1.4-0.1,2.8-0.6,4-1.3c1.2-0.7,2.3-1.7,3-3
	c0.8-1.2,1.2-2.6,1.4-4c1.6-8.2-2.4-17.8-5.8-26.2c-0.9-2.2-1.8-4.2-2.5-6.2c-0.8-2.1-1.7-4.3-2.6-6.6c-3.3-8.2-7-17.4-7-25.6
	c6.3,4.7,11.1,12.5,15.5,19.8v0c1.5,2.5,3,5,4.5,7.2c0.2,0.3,0.4,0.6,0.6,0.9l0.3,0.4l0.4,0.6c5.2,8,15.5,23.8,25.1,16.7
	c8.5-6.3,1.6-17.2-3-24.7l0,0c-0.3-0.5-0.6-1-0.9-1.4c-0.3-0.4-0.5-0.8-0.7-1.2c-5-8.6-9.8-17.3-14.4-26.1c-1-1.9-2.1-3.8-3.1-5.7v0
	c-3.9-7-7.8-14.2-9.5-21.6c4.1,1,7.7,5,11.1,8.9c2.1,2.4,4.2,4.7,6.3,6.2c5.8,3.9,12.5,6.5,19.4,7.5c5,0.8,10.8,1.6,15-2
	C895.6,961.5,891,954.2,885.1,950.6z M446.7,1658.2l-0.6-6c-3-31-6.1-62.2-5.5-93.4c0.2-8.5,1-12,1.9-15.7c0.8-3.4,1.7-6.9,2.1-14.7
	c0.9-16.3,1.2-33.7,0.5-50.5c-0.4-9.1-0.6-18.2-0.8-27.2c-0.4-17.9-0.8-35.8-2.5-53.7c-0.6-6.4-1.4-12.7-2.2-19l0-0.1v0
	c-0.4-3-0.8-6.1-1.1-9.1c-1.6-9.3-1.7-18.7-0.3-28c0.8-3.6,1.9-7.1,3-10.6l0,0c1.6-5,3.1-10.1,3.8-15.4c1.1-9.4,1.1-18.9,0-28.4
	c-2-19.7-0.1-38.7,1.8-58.2l0.3-2.9l0.1-1.1l0.1-1.3c0.4,3.9,0.9,7.9,1.4,11.9v0h0v0c1.6,12.6,3.2,25.4,2.4,37.9
	c-0.3,4.6-0.8,9.1-1.4,13.5c-1.2,10.6-2.5,21.1-0.6,32.1c1.1,6.3,3,12.4,5.5,18.2c2.6,7.7,3.4,16,2.3,24c-0.5,8.9-1.6,17.8-2.6,26.7
	c-0.8,6.9-1.6,13.9-2.2,20.8c-1.2,15-1.6,30-1.9,45c-0.2,7.9-0.4,15.9-0.7,23.9c-0.6,14.2-0.6,28.6,0,42.8
	c0.3,8.1,0.8,11.5,1.3,14.8c0.5,3.3,1,6.7,1.3,14.5c1.6,34-1.7,68-5,101.8C447.2,1653.2,447,1655.7,446.7,1658.2z"/>
<path class="st3" d="M448.8,595.4c-0.2-7.3-0.5-13.7-0.7-18.9l0,0c-0.1-2.3-0.2-4.4-0.3-6.2c-0.2-6.1-0.5-9.5-0.5-9.5s0,3.5-0.5,9.5
	c-0.5,6-0.8,14.7-1,25.1c-0.1,3.7-0.2,7.6-0.3,11.6v0c-0.2,7.5-0.5,15.5-0.6,24c-0.1,4.2-0.1,7.3-0.1,10v0
	c-0.1,5.7-0.2,9.8-0.2,18.7c-18-0.1-127-1.8-148.6-18.2c-0.5-1.9-1-3.8-1.4-5.7l-7.4-25.8c-0.7-2.4-1.4-4.7-2.1-7
	c-1.5-4.9-3-9.9-4.2-14.8c-0.4-1.5-1.5-11.2-3.1-24.1l0,0l0,0l0,0c-0.6-5.1-1.3-10.7-2-16.5l0.1-0.1c-0.1-0.5-0.2-1-0.3-1.5
	c-1.5-12-3.1-24.7-4.6-35.6c-2.2-24.8-2.3-49.5-0.2-74.6c0.6-0.5,1.3-0.9,2.4-1c0.9-0.1,2.8,0.4,6.3,1.2
	c15,3.5,58.9,13.9,170.8,14.7c100.3,0.7,113.4-1.6,146.5-7.3c3.2-0.6,6.7-1.2,10.4-1.8c0.7-0.2,1.5-0.5,2.4-0.8
	c4-1.3,9.5-3.1,13.6-1.9c2.2,29.2,1.5,58.2-2.1,87.1c-3.2,19.9-6.4,41.6-8.1,52.9l0,0c-0.6,4.3-1.1,7.1-1.2,7.8V586l-17.9,55.6
	c-15.1,18.7-103.4,18.2-139.5,18l-2.3,0l-1.8,0c0.1-13,0-15.9-0.4-28.2l0-0.4c-0.2-7-0.3-13.8-0.5-20.3
	C449.2,605.3,449.1,600.1,448.8,595.4L448.8,595.4z"/>
<path class="st3" d="M444.5,665.9c0,10.8,0.1,18.6,0.3,29.8c0.3,11.7,0.6,22.7,0.8,32.4l0.1,3.2c0.2,7,0.5,13.3,0.7,18.6l0,0.1
	c0.1,2.4,0.2,4.6,0.3,6.6c0.2,6.1,0.5,9.5,0.5,9.5s0-3.5,0.5-9.5c0.5-6,0.8-14.8,1.1-25.2c0.1-3.5,0.2-7.1,0.3-10.9v0v0
	c0.2-7.6,0.5-15.9,0.6-24.6l0.1-5.6l0-0.1v0c0.1-8.4,0.2-15.1,0.3-24c81.4,0.6,92.6-1.7,120.2-7.3l0,0l0,0c2.7-0.6,5.6-1.2,8.8-1.8
	c0.6-0.2,1.3-0.5,2.1-0.8c2.7-1.1,6.1-2.4,9.2-2.3c-0.3,2-0.5,4-0.6,6v0c0,12.9,0,25.8,0.3,38.7c0,8.2,0.2,16.5,0.4,24.7v0
	c0.2,8.6,0.4,17.2,0.4,25.8v7.6c0,2.7-0.6,5.3-1.1,7.9c-0.4,2.1-0.9,4.2-1,6.3c0.3,5.1,1.2,10.1,2.8,14.9c0.1,0.6,0.2,1.1,0.3,1.7
	c-19.4,16.7-101.3,16.2-135.6,16c-3.1,0-5.9,0-8.2,0c-11.9,0-121.5-1.3-146.6-17.2l0.1-0.7l0.3-1.8c1.2-4,1.9-8.1,2.2-12.2
	c-0.8-4.5-2.2-8.8-4.2-12.9V656.6c-0.2-1.9-0.6-3.9-1.2-5.7l-0.1-0.4l0.4,0.1l0.3,0.1l0.3,0.1c0.4,0.1,0.8,0.2,1.3,0.3
	C313.7,654.7,350.6,665,444.5,665.9z"/>
<path class="st3" d="M595.6,806.2c-0.5-2.6-1-5.1-1.5-7.7c-3.6-2.3-8.9-0.2-12.7,1.3c-0.7,0.3-1.4,0.6-2,0.8c-3.1,0.6-6,1.2-8.7,1.8
	c-27.7,5.7-38.7,8-122.6,7.3c-93.7-0.8-130.4-11.1-143-14.7c-2.6-0.7-4.1-1.2-5-1.2c-3.6,20.4-6.8,40.8-9.2,61.3
	c-2.5,23.4-3.3,47-2.6,70.5c0.7,47.2,2.9,94.4,7.3,141.5c2.8,31.7,7.4,63.2,13.7,94.3c6.8,3.5,24.5,6.5,60.5,7
	c11,0.1,20.4,0.3,28.5,0.5c35.8,0.7,44.8,0.9,46-5.4l0-1.1c0.2-16.7,0.1-33.5,0-50.2v0c-0.1-16.2-0.2-32.5,0-48.7
	c0.3-20.6,0.5-41.2,0.8-61.8v-11.6c0.2-1.4,0.2-2.9,0.2-4.3c-1.8,2-3.8,3.8-5.9,5.4c-2.8,2.2-5.7,4.1-8.8,5.8l-5.4,2.7l-6,2.4
	l-6.4,2c-1.7,0.4-3.3,0.8-5,1.2l0,0c-0.6,0.1-1.2,0.3-1.8,0.4c-4.8,1-9.6,1.7-14.5,2c-5.2,0.5-9.6,0.5-14.8,0.5
	c-5-0.2-10-0.6-15-1.4c-2.5-0.3-4.9-0.8-7.3-1.4c-2.4-0.5-4.7-1.2-7-2c-8.3-2.7-15.9-7-22.6-12.7c-2.6-2.3-4.9-4.8-7-7.6
	c-1.6-2.1-2.9-4.4-4.1-6.7c-1.1-2-1.9-4.2-2.4-6.4c1.2,1.9,2.5,3.7,4.1,5.3c1.6,1.9,3.4,3.7,5.3,5.3c2.4,2.1,4.9,4,7.7,5.6
	c6.7,4,14.1,6.9,21.8,8.5c2.1,0.5,4.3,0.9,6.4,1.1c2.2,0.4,4.4,0.7,6.7,0.8c4.6,0.4,9.2,0.6,13.8,0.5c1,0,2.1-0.1,3.2-0.1
	c3.5-0.2,7.3-0.3,10.7-0.6c4.5-0.4,9.1-1,13.2-1.7l6.2-1.3l5.9-1.5c0.5-0.2,1-0.3,1.6-0.5c3.2-1,6.3-2,8.8-3.1
	c2.9-1.3,5.7-2.7,8.1-4.1c2-1.2,4-2.6,5.9-4.1c1.5-1.2,3-16.9,3-23.8c0.1-4.4,0.3-8.9,0.5-13.6c0.1-2.7,0.3-5.3,0.4-8
	c0.2-3.9,0.3-7.8,0.4-11.6l0,0v0l0,0v0v0c0.4-10.6,0.8-20.7,1.2-28.7l0.9-18.4h0.7c0,0,0.3,7.3,0.9,18.4c0.5,8.1,0.8,18.2,1.2,28.8
	c0.1,3.8,0.3,7.7,0.4,11.6c0.1,2.6,0.2,5.2,0.4,7.8v0l0,0v0c0.3,4.7,0.5,9.3,0.5,13.7c0,5.2,0.7,15,1.1,19.7l0.1,1.2
	c0,0.4,0.1,0.8,0.1,1.1c0,0.1,0,0.2,0,0.3c0,0.1,0,0.1,0,0.1l1.9,1.5c1.9,1.5,3.8,2.8,5.9,4.1c2.2,1.3,4.9,2.8,8.1,4.1
	c3.2,1.3,6.7,2.4,10.4,3.6l5.9,1.5l6.2,1.3c2,0.3,4.2,0.6,6.3,0.8c2.3,0.2,4.7,0.5,6.9,0.9c4.2,0.7,9.6,0.7,14,0.7
	c4.6,0.1,9.2-0.1,13.8-0.5c2.2-0.1,4.5-0.4,6.7-0.8c2.2-0.3,4.3-0.6,6.4-1.1c7.7-1.6,15-4.5,21.8-8.5c2.7-1.6,5.3-3.5,7.7-5.6
	c1.9-1.6,3.7-3.4,5.3-5.3c1.5-1.6,2.9-3.4,4.1-5.3c-0.5,2.2-1.3,4.4-2.4,6.4c-1.1,2.4-2.5,4.6-4.1,6.7c-2,2.8-4.4,5.4-7,7.6
	c-8.6,7.2-18.8,12.2-29.7,14.8c-2.4,0.7-4.8,1.2-7.3,1.4c-5,0.8-10,1.3-15,1.4c-1.2,0-2.4,0-3.6,0h0c-3.8,0-7.3,0-11.3-0.5
	c-4.9-0.3-9.7-1-14.5-2c-0.6-0.1-1.2-0.3-1.8-0.4l0,0h0c-1.7-0.4-3.4-0.8-5-1.2l-6.4-2l-6-2.4l-5.4-2.7c-3.1-1.7-6.1-3.6-8.8-5.8
	c-2-1.6-3.9-3.3-5.7-5.2c-0.4,3.1-0.4,6.3,0,9.5l0.2,17.6l0.5,40.4c0.2,15.7,0.1,31.5,0.1,47.2v0c-0.1,20.8-0.1,41.6,0.3,62.4l0-0.1
	c0.9,6.6,9.6,6.4,46.1,5.7c8.1-0.2,17.5-0.4,28.5-0.5c34.7-0.5,52.4-3.3,59.7-6.6c7.4-36.7,12.6-73.8,15.7-111.1
	c2.2-24.8,3.3-49.7,4.4-74.6l0,0l0,0l0,0l0,0c0.1-2.2,0.2-4.4,0.3-6.7l0-0.5c1.2-27,2.4-54.5,1.2-81.5
	C605,860.1,601.2,832.9,595.6,806.2z"/>
<path class="st3" d="M456.8,1241.4c-2.4-20.7-4.3-41.1-5.2-61.8c1.2-2.3,7.3-3.5,22.1-3.5c21.1,0,94.9-3.1,107.7-5.9
	c0.8-0.1,1.5-0.2,2.1-0.1c-3.1,14.5-6.5,29-10.2,43.3c-1.3,4.9-2.7,9.8-4,14.7c-5.8,20.9-11.6,41.8-13.5,63.5
	c-1.2,14.9-0.7,29.9,1.5,44.6c1.9,12.4,4.8,24.5,7.7,36.7c3.4,14.1,6.8,28.2,8.5,42.6c2.6,24,1.6,48.2-2.8,71.8
	c-11.3,1.7-36.3,1.3-54.1,1h0l-0.1,0c-3.4-0.1-6.5-0.1-9.2-0.1c-4.4-0.1-9.2,0-14,0h0c-14.7,0.1-29.9,0.1-35.8-1.9
	c0.2-7.8,0.6-15.5,0.9-23.3c0.3-6.7,0.5-13.4,0.7-20.1c0.5-17.1,1.1-34.1,2.9-51.2c1.9-13.4,3-26.9,3.2-40.4
	c0.1-4.6-0.4-9.2-1.5-13.6c-0.8-2.5-1.8-4.9-2.8-7.3c-1.3-3-2.6-6.1-3.3-9.4c-2.5-13.1-2.5-26.7,0-39.8
	C459,1268,458.8,1254.6,456.8,1241.4z"/>
<path class="st3" d="M515.9,1495.2c24.5-0.1,44.5,0.1,52.9,1.3c-4.8,14.6-9,26.2-13.1,37.5c-5.6,15.4-11,30.1-17,50.4
	c-2.5,8.5-5,16.9-7.6,25.4c-5.5,18.3-11,36.6-16.1,55c-1.4,4.9-2.8,8.4-4.1,11.8c-1.7,4.3-3.4,8.4-4.7,14.8
	c-2,6.7-2.8,13.8-2.1,20.8c4.7,16.6,10.5,32.8,17.4,48.6c3.6,5.2,7.7,10,12.4,14.2l7.2,7.3l3.8,4.1c1,1.2,2,2.3,3.1,3.6l0,0h0
	l0.4,0.5c4.3,5.4,7.9,12.9,5.1,18.5c-1.7,2.9-4.5,5.1-7.7,6.1c-3.7,1.2-7.6,1.8-11.5,1.6c-4.7-0.1-9.4,0.5-13.9,1.7
	c-4.2,1.6-8.4,3.4-12.4,5.5c-7.9,3.1-16.2,4.8-24.7,4.9c-7.7-0.1-15.3-1.4-22.5-4.1c-9.4-3.5-15.8-28.6-10.2-59
	c0.2-1.4-0.9-22-0.9-22v-33.2c0.2-24.6,2.7-47,5.2-69.5c2.1-19,4.2-38.1,5-58.7c0.7-17.2,0-26.7-0.9-38.3c-0.5-6.7-1-14.1-1.4-24.1
	c-0.3-7.7-0.3-15.4-0.2-23.1c5.1-1.7,22.3-1.6,40.5-1.5h0h0C503.9,1495.2,510,1495.2,515.9,1495.2z"/>
<path class="st3" d="M443.6,1179.7c-1.2-2.3-7.4-3.4-22.1-3.4c-21.1,0-94.9-3.1-107.7-5.9c-1.2-0.2-2.1-0.2-2.8-0.1
	c2.7,12.5,5.6,24.9,8.8,37.3c1.4,5.2,2.8,10.3,4.2,15.5c8.2,30.1,16.4,60.1,15.3,91.7c-0.7,22.4-5.9,43.8-11.2,65.3
	c-6,22.6-8.9,46-8.5,69.4c0.4,14.2,2.1,26.4,4.6,37.9c10.8,1.9,36.7,1.5,55.1,1.2h0l0.1,0h0.2c3.3-0.1,6.3-0.1,9-0.1
	c4.4-0.1,9.2,0,14,0h0c13.8,0.1,28.1,0.1,34.6-1.6c-0.2-7-0.5-14-0.8-21.1c-0.3-7.7-0.5-15.5-0.6-23.2c-0.2-9.5-0.3-19.1-0.9-28.6
	c-0.4-8.6-1.5-17.3-2.6-26c-1.7-13.8-3.5-27.7-2.6-41.3c0.4-5.5,1.9-10.3,3.5-15.2c0.8-2.6,1.7-5.3,2.4-8.1
	c2.4-10.6,3.2-21.5,2.3-32.3c-1.1-10.6-1.6-21.3-1.3-32.1c0.5-8.4,1.5-16.8,2.4-25.2l0,0c0.3-2.5,0.6-5,0.8-7.4
	C441.8,1210.7,443,1195.2,443.6,1179.7z"/>
<path class="st3" d="M437.6,1496.4c-6.2-1.4-22.3-1.3-39.3-1.2h0h0c-6.1,0-12.2,0.1-18.1,0c-25.2-0.1-45.7,0.1-53.6,1.4
	c3,11.4,6.9,22.3,10.9,34c3.6,10.4,7.5,21.4,11.1,33.8c5.4,18.2,10.9,36.4,16.2,54.6c2.8,9.5,5.8,18.2,8.7,26.6
	c5.6,16.6,11,32.3,14.6,51.4c1.3,5.3,1.6,10.9,0.8,16.3c-4.9,16.1-10.6,32-17.2,47.5c-3.6,5.2-7.8,9.9-12.4,14.2l-7.1,6.7l-3.8,4.1
	l-0.4,0.5c-0.3,0.4-0.6,0.7-0.9,1.1h0c-0.7,0.9-1.4,1.7-2.2,2.6c-4.3,5.4-7.9,12.9-5.1,18.5c1.7,2.9,4.5,5.1,7.7,6.1
	c3.7,1.2,7.6,1.8,11.5,1.6c4.7-0.1,9.4,0.5,13.9,1.7c4.2,1.6,8.4,3.4,12.4,5.5c7.8,3.1,16,4.8,24.3,4.9c8.3,0,17.6-0.3,23.9-4.1
	c17.8-10.7,8.8-59,8.8-59c0.1-4.7,1.4-21.9,1.4-21.9v-26.7c0-3.2,0.1-6.4,0.1-9.6l0,0c0.1-6.4,0.3-12.8-0.1-19.2
	c-0.8-12.9-2.3-23.6-3.7-34.7c-1.1-7.9-2.2-16.1-3.1-25.5c-2.4-22.6-3.7-45.2-3.7-67.9c0.1-11.3,1.1-17.8,2.1-24.4
	c1-6.3,2-12.7,2.2-23.5C437.6,1506.6,437.6,1501.5,437.6,1496.4z"/>
<path class="st3" d="M883.2,964.1c-5.6,0.5-11.3-0.5-16.5-2.7c-6.8-2.4-11.4-6.8-16.3-11.5c-1.4-1.3-2.8-2.6-4.3-4
	c-3-2.7-13-9.3-14.4-1.3c0.1,3.2,0.9,6.4,2.4,9.2c7.5,17.6,16.4,34.6,26.6,50.8c0.5,0.9,1.1,1.8,1.7,2.7c2.2,3.4,4.6,7,4.8,10.8
	c0.8,11.3-10.5,0-12.8-2.9c-3.6-4.5-6.8-9.5-9.9-14.5c-5-7.9-10.1-15.9-16.9-22.2c-4.7-4.3-10.4-4.1-10.4,3.3
	c0.3,4.8,1.4,9.6,3,14.1c2.3,7.7,5.2,15.2,8,22.8l0.8,2.2c2.5,5.9,4.4,11.9,5.8,18.1c0.9,5.2-1.3,14.1-7.1,7.4
	c-4.1-5.9-7.3-12.3-9.5-19.1c-2.3-5.3-4.2-10.9-6.1-16.5c-1-3-2.1-6-3.2-9c-0.2-0.7-0.5-1.6-0.9-2.8c-1.5-5.2-4.2-14.2-8.7-14.3
	c-6.1-0.3-5.3,11.2-5,16c0,0.3,0,0.5,0,0.7l0,0.3l0,0.2c0.2,5,0.7,10,1.1,15l0,0l0,0c0.3,3.4,0.6,6.8,0.9,10.3
	c0,0.5,0.1,1.2,0.2,1.9c0.5,5.1,1.4,14.8-2.3,17.6c-6.1,4.4-7.2-12.4-7.4-16.9c0-0.4,0-0.6-0.1-0.8c-0.5-5.2-0.9-10.4-1.5-15.5
	c0-0.2,0-0.4-0.1-0.7l0-0.5c-0.6-7.1-2.8-34.8-13.4-27.4c-4.9,3.3-3.8,12.8-3,18.7l0,0l0,0.4c0,0.2,0.1,0.5,0.1,0.7l0.1,0.5
	c0,0.2,0,0.5,0.1,0.7c0.7,6.3,1,12.6,0.9,19c0,4.1-2.5,14.3-6.5,6.1c-2.6-5.5-2.8-11.7-3-17.8h0c-0.1-1.8-0.1-3.5-0.2-5.3
	c-0.5-7.1-1.2-14.2-2-21.3v0c-0.2-2.2-0.5-4.4-0.7-6.6c-0.1-3.5-0.5-6.9-1.3-10.3c-1.4-4.3-2.9-8.5-4.5-12.7
	c-2.6-7.1-5.2-14.1-7-21.6c-1-4.3-0.7-8.7-0.4-13.3c0.4-5.2,0.8-10.6-0.9-16.4c1.5-0.6,3.5-1.1,6.2-1.7c4.1-0.9,9.8-2.1,17.2-4.8
	c16.5-5.8,26.6-10.2,30.8-12.8c2.2,2,6.1,2.6,10.6,3.3c5.6,0.9,12.1,1.9,17.3,6c9.3,7.6,16.9,17.2,24.4,26.7
	c3.4,4.3,6.8,8.6,10.3,12.7c5.3,6.5,11.2,12.4,17.7,17.6l0.3,0.2C881.2,954.8,892.6,962.3,883.2,964.1z"/>
<path class="st3" d="M793.6,878c-12.4-27.1-20.2-56.1-23.1-85.8c-2-21.7-5.7-43.3-11-64.5c-3.9-13.8-8.5-27.3-13.8-40.6
	c-0.9-2.1-1.7-4.4-2.6-6.7l0,0c-1.4-3.5-2.8-7.2-4.3-10.8c-1.2-1.9-3.2-3.9-5.8-2.4c-0.2,0.1-0.3,0.2-0.5,0.3l-0.2,0.1l-0.4,0.2
	l-0.4,0.3c-4.9,3-14.4,9-38,14.8c-10.6,2.6-18.7,3.9-24.6,4.8c-8.7,1.3-12.7,1.9-12.9,5.2c2.3,9.7,4.8,19.2,7.7,28.7
	c10.7,32.6,25.7,63.4,40.7,94.1c13.4,27.3,26.7,54.7,37,83.4C748.9,899.5,787.4,889.2,793.6,878z"/>
<path class="st3" d="M655.3,683c-0.8-0.3-1.4-0.9-1.9-1.5c-0.7-3.3-1.4-6.6-2-9.9c-3.8-17-8.8-33.7-15-50
	c-3.5-9.4-7.4-18.5-11.3-27.6l0,0c-1.6-3.8-3.3-7.6-4.9-11.5c-0.9-2.8-0.9-5.8,0-8.7c0-0.3,0.5-4.2,1.3-10.1l0,0l0-0.1
	c0.6-4.4,1.3-9.9,2.1-16c0-0.1,0.1-0.2,0.1-0.2l0-0.1c0.8-4.7,1.4-9.4,2.1-13.9c0.1-0.2,0.2-0.4,0.3-0.7c1.2-3.8,6.7-4.9,17-7
	c5.6-1.1,12.7-2.5,21.3-4.8c21.9-5.8,30.8-11.8,35.4-14.8c0.5-0.4,1-0.7,1.4-0.9c1-0.6,1.9-0.7,2.5-0.3c5,24.5,8.7,49.3,11.1,74.2
	c1.4,14.4,2.2,28.8,2.3,43.3c0.9,11.3,5.2,22.1,12.4,30.9c0.5,0.6,1,1.3,1.5,2C730.9,670.5,659.8,684.9,655.3,683z"/>
<path class="st3" d="M701.2,493.2L701.2,493.2c-1.3-4.6-1.7-9.5-1.2-14.3c0.8-7,1.4-14,1.7-21.1c0.7-14,0.2-28.1-1.4-42
	c-2.2-12.7-6.7-24.9-13.5-35.9c-1-1.8-2-3.7-3-5.6c-5.3-9.9-11.1-20.8-19-28.1c-14.7-13.7-36.7-19.3-57.3-21.3
	c18.2,67.6,28.5,118.6,19.8,195.2c0.3,0.3,0.6,0.5,0.9,0.7C632.4,522.6,694,508.9,701.2,493.2z"/>
<path class="st3" d="M285.1,325.7l0.6-0.1c-18.1,67.2-28.3,118-19.6,194.2c-0.3,0.4-0.7,0.8-1.2,1c-4,1.8-61.9-11-72.1-26.1
	c0.1-0.5,0.2-1.1,0.3-1.6c1.3-4.6,1.8-9.5,1.4-14.2c-1.7-14.1-2.3-28.2-1.8-42.4c-0.2-13.4,2-26.6,6.5-39.2
	c5.6-12.8,12.2-25.1,19.8-36.7c6-10.8,15.3-19.4,26.5-24.5c12.4-5.3,25.4-8.7,38.8-10.2L285.1,325.7z"/>
<path class="st3" d="M269.3,543.7c-0.5-3.4-1-6.8-1.5-10.2c-0.2,0.1-0.4-0.2-0.6-1c-1.2-3.8-6.7-4.9-17-7
	c-5.6-1.1-12.7-2.5-21.3-4.8c-21.9-5.8-30.8-11.8-35.4-14.8c-0.5-0.4-1-0.7-1.4-0.9c-0.4-0.3-0.8-0.4-1.2-0.5
	c-0.6,3.3-1.2,6.5-1.8,9.8c-5.3,28.5-8.8,57.2-10.6,86.1c-0.4,7.2-0.6,14.4-0.6,21.6c-0.2,4.7-1.3,9.3-3.1,13.6
	c-2.1,6.3-5.3,12.2-9.4,17.3c-0.1,0.2-0.2,0.3-0.3,0.5l-0.1,0.1l-0.2,0.3c-0.1,0.2-0.3,0.4-0.4,0.6c-2.1,15.6,71.1,30.6,75.6,28.6
	c0.6-0.3,1.1-0.7,1.6-1.1c1.7-8,3.3-16,5.5-23.8c4.6-16.6,10.1-32.8,16.5-48.7c0.3-0.7,0.5-1.3,0.8-2l0.8-1.9l0,0l0-0.1l0,0l0,0l0,0
	c1.9-4.7,3.9-9.5,5.9-14.1c2-3.6,2.9-7.7,2.5-11.8l0,0C273.2,577.8,271.3,562.1,269.3,543.7z"/>
<path class="st3" d="M130.6,747.3c5.9-26.7,14.5-52.8,25.8-77.6c1.2-1.9,3.2-3.8,5.8-2.3c0.5,0.3,1,0.6,1.5,0.9
	c4.9,3,14.4,9,38,14.8c10.6,2.6,18.7,3.9,24.6,4.8c8.5,1.3,12.4,1.9,12.8,4.9c-1.1,5.1-2.3,10.2-3.7,15.3
	c-9.7,34.5-24.9,67.3-40.8,99.2c-16,30.6-30,62.1-42,94.5c-7.5,0.2-47.4-10.4-52.5-21.8c11.5-24.3,19.2-50.3,22.8-77.1
	c1.1-7.2,1.9-14.3,2.7-21.5l0,0C126.9,770,128.2,758.6,130.6,747.3z"/>
<path class="st3" d="M95.3,888.2c-0.1,0-0.2,0.1-0.2,0.1c-10.3-0.2-19.4,1.4-27.2,8.2c-9,7.8-16.4,17.2-23.9,26.6
	c-7.2,9.1-14.5,18.3-23.2,26c-0.5,0.4-1.4,1.1-2.5,1.9l0,0l0,0c-5.5,4-16.1,11.8-5.4,13.1c7.5,0.2,15-1.7,21.5-5.6
	c3.2-1.8,6-4.8,8.8-7.8c4-4.3,8.1-8.7,13.4-9.7c6.7-1.3,7.1,4,5.6,8.7c-4.1,11.5-9.3,22.5-15.6,32.9c-4.2,7.7-8.5,15.4-13,22.9
	c-1.5,2.5-11.5,19.5-1.9,17.7c3.3-0.6,6.1-4.4,8.4-7.5c0.4-0.6,0.8-1.1,1.2-1.6c2.5-3.3,4.9-6.7,7.3-10.2c5-8.3,10.6-16.1,16.9-23.5
	c2.2-2.4,6-6.4,9.7-4.4c6.1,3.5,0.5,18.2-2,24.7c-0.4,1-0.7,1.8-0.9,2.3c-0.2,0.6-0.7,1.8-1.4,3.6c-4.5,11.1-16.9,42-7.7,42.7
	c4.9,0.3,8.9-10.5,11.1-16.5c0.4-1.2,0.8-2.1,1.1-2.8c2.7-6.2,5-12.6,7.2-19l0,0c1.1-3,2.1-6,3.2-9c0.2-0.5,0.4-1.3,0.7-2.3
	c1.7-5.5,5.1-16.9,10.5-14.5c3,1.3,3.4,5.7,3.4,8.5c0.2,8.6-0.2,17.1-1.3,25.6c-0.6,5.3-0.9,10.6-1,16c-0.4,3.6,0.2,7.2,1.6,10.5
	c5.8,8.7,8.3-14.6,8.3-16.6c0.6-6.5,1.2-12.9,1.9-19.8c0.1-1.1,0.2-2.3,0.3-3.6c0.5-6.4,1.2-14,4.9-18.9c4.4-5.9,10.1-1.2,11,4.7
	c0.8,5.3,0.2,10.7-0.5,16.1c-0.4,3.6-0.8,7.1-0.8,10.6l0,0.2l0,0.4c-0.1,3.9-0.4,18,4.9,14.7c2.6-1.7,3.5-7.6,3.9-11v0
	c0-0.4,0.1-0.7,0.1-1c0.5-2.9,0.6-5.9,0.7-8.8c0-1.6,0.1-3.3,0.2-4.9c0.5-6.9,1.2-13.7,1.9-20.6l0,0c0.4-3.6,0.8-7.3,1.1-10.9
	c0.1-3.2,0.8-6.3,2-9.3l0.2-0.6c5.4-13.7,11.3-28.6,12.2-43.4c0.1-2.1-0.3-3.9-0.7-5.8c-0.6-2.5-1.2-5.2-0.6-9.1
	c-1.5-0.7-3.6-1.1-6.5-1.8c-4.1-0.9-9.8-2.1-17.2-4.8C109.1,895.4,98.7,890.8,95.3,888.2z"/>
<path class="st3" d="M513.1,210.8c-2.1,5-5,7.9-7.6,10.4c-2.5,2.4-4.5,4.5-4.8,7.5c-12.1-8-35.5-13.4-53.7-13.1
	c-14.2-0.1-40.8,5.4-52.6,13.1c-0.1-2.5-1.9-4.2-4.3-6.5c-2.4-2.3-5.4-5.2-7.6-9.8c-2.8-6.7-5.1-13.7-6.9-20.8
	c-4.1-12.6-7.3-25.3-10-38.2c-5.4-23.9-6.1-48.7-2.1-72.9c3.7-20.9,12.2-41.8,29-55.3C408.1,12.9,428,8.8,447.4,8.5
	c18.7-0.8,37.2,4.4,52.7,14.8c17.9,13,27.1,33.8,31.1,55.1c4.3,24.1,3.9,48.9-1.2,72.9C526.3,171.6,520.6,191.5,513.1,210.8z"/>
<path class="st3" d="M599.6,324.3c-3.1-0.2-6.2-0.3-9.2-0.4c-25.7-0.4-30.6-2.3-33.2-5.5c-8.2-6.1-16.8-11.8-25.3-17.3l-12.5-8.2
	c-4.5-2.1-8.7-4.7-12.6-7.8c-1.4-1.4-1.4-2.6-1.6-4.3c0-0.2,0-0.5-0.1-0.8l0-0.2c0-0.1,0-0.2,0-0.3c-1.4-16-2.8-31.9-4.3-47.9
	c-18.8-6-34.3-10.4-53.9-10.4c-18.7,0-35.3,4.5-53.3,10.5c-1.4,16-2.8,32-4.3,48c0,0.3,0,0.6-0.1,0.9c-0.1,1.9-0.2,3-1.6,4.5
	c-3.9,3-8.1,5.6-12.6,7.7c-4.7,3-9.5,6-14.2,9.1c-1.6,1.1-3.3,2.2-4.9,3.3l0,0c-6.3,4.2-12.6,8.5-18.7,13c-4,3.5-11.1,4-22.8,4.6
	c-5.8,0.3-12.7,0.7-20.9,1.6c-11.2,34.1-18.5,67.3-22.1,100.1c21.6,18,163.6,19.4,178.5,19.4c2.7,0,6,0,9.7,0
	c41.1,0.2,139.4,0.7,162.2-16.1C618.7,394.1,611.2,359.6,599.6,324.3z"/>
<path class="st4" d="M365.6,551.5c-3.4,2.6-7.1,4.8-11.2,6.3c-3.1,1.1-6.4,1.5-9.7,1.1c-2.1-0.4-4.2-1.1-6-2.2
	c-0.7-0.4-1.3-0.8-1.9-1.3c0.6,0.6,1.2,1.1,1.8,1.6c1.8,1.4,3.8,2.4,6,3c3.4,0.9,7.1,0.9,10.5,0c34.1-8.7,55.9-50.2,61.5-81.8
	C403.8,512.3,386.1,535.1,365.6,551.5z"/>
<path class="st4" d="M530.5,551.5c3.4,2.6,7.1,4.8,11.2,6.3c3.1,1.1,6.4,1.5,9.7,1.1c2.1-0.4,4.2-1.1,6-2.2c0.7-0.4,1.3-0.8,1.9-1.3
	c-0.6,0.6-1.2,1.1-1.8,1.6c-1.8,1.4-3.8,2.4-6,3c-3.4,0.9-7.1,0.9-10.5,0c-34.1-8.7-55.9-50.2-61.5-81.8
	C492.3,512.3,510,535.1,530.5,551.5z"/>
<path class="st4" d="M481.7,1311.3l0.1,0L481.7,1311.3L481.7,1311.3z"/>
<path class="st4" d="M481.8,1311.3c15.2-14.9,41.8-12.1,56.7,1.2c-1.6-0.4-3.2-0.9-4.8-1.4l0,0l-0.6-0.2
	C517.3,1304.5,497.7,1306.1,481.8,1311.3z"/>
<path class="st4" d="M492.1,1709.6c-0.3-3.6-0.5-6.5-0.5-8.5c0,0.6,0,1.2-0.1,2c-0.1,1.8-0.1,3.9,0.1,6.5
	c0.1,10.2,1.1,20.3,3.1,30.3c0.7,3.8,1.6,7.8,2.5,12l0,0c2,9.2,4.2,19.3,5.6,29.8c1.4,7.6,1.4,15.5,0,23.1c-0.7,3.6-2.5,6.9-5.1,9.4
	c-2.7,2.3-6.1,3.8-9.7,4.1c-3.9,0.5-7.8,0.4-11.6-0.2c-1.6-0.2-3.6-0.6-5.3-0.9l-0.6-0.1c-1.5-0.4-2.9-1.2-4.1-2.2
	c-2.5-2.6-4.1-5.8-4.7-9.3c-0.8-3.7-1.1-7.5-1.1-11.3c0.1-7.4,0.8-14.8,2.1-22c0.6-3.5,1.3-6.9,2-10.1c0.3-1.4,0.7-2.8,1.1-4.2
	c0.5-1.8,1-3.5,1.3-5.4c1-5.7,1.7-11.4,2-17.1c0.3-5.1,0.6-9.5,0.8-13.2c0.3-7.3,0.3-11.5,0.3-11.5s-0.5,4.1-1.4,11.4
	c-0.5,3.6-1.1,8.2-1.8,13.1c-0.7,4.9-1.6,10.7-3,16.7c-0.4,1.5-0.9,3.1-1.4,4.8c-0.5,1.5-1,3-1.4,4.5c-0.9,3.3-1.8,6.7-2.6,10.3
	c-1.7,7.5-2.7,15.1-3,22.8c-0.1,4.1,0.3,8.2,1,12.2c0.7,4.6,2.8,8.9,6,12.2c1.8,1.7,4,2.9,6.4,3.5c2.1,0.5,4.2,1,6.3,1.3
	c4.4,0.8,8.8,0.9,13.2,0.4c4.7-0.5,9.1-2.5,12.7-5.8c3.3-3.3,5.6-7.6,6.4-12.2c1.4-8.3,1.4-16.7-0.2-24.9
	c-1.5-10.8-4.2-20.6-6.6-29.6c-1.1-4.3-2.2-8.4-3.1-12.3C495.4,1729.3,493.4,1719.5,492.1,1709.6L492.1,1709.6z"/>
<path class="st4" d="M415,1311.3c-15.2-14.9-41.7-12.2-56.8,1.2c1.6-0.4,3.1-0.9,4.6-1.4l0,0h0l0.7-0.2
	C379.5,1304.5,399.1,1306.1,415,1311.3z"/>
<path class="st4" d="M407.7,1818.4c-3.6-0.3-7-1.8-9.7-4.1c-2.6-2.6-4.4-5.8-5.1-9.4c-1.4-7.6-1.4-15.4,0-23.1
	c1.4-11.1,3.8-21.7,5.9-31.3c0.8-3.6,1.6-7.1,2.2-10.5c2-10,3-20.1,3.1-30.3c0-3.7,0-6.5-0.2-8.5v-3c0,0-0.2,1.1,0,3
	c0,1.8-0.2,4.2-0.4,7.3l0,0l-0.1,1.1c-0.9,10-2.6,19.9-5.1,29.6c-0.9,4-2,8.2-3.2,12.5c-2.4,9-5,18.7-6.5,29.4
	c-1.6,8.2-1.7,16.7-0.2,25c0.9,4.6,3.1,8.9,6.4,12.2c3.4,3.1,7.6,5,12.1,5.7c4.4,0.5,8.8,0.4,13.2-0.4c2.1-0.3,4.2-0.7,6.3-1.3
	c2.4-0.6,4.6-1.8,6.4-3.6c3.3-3.3,5.4-7.6,6-12.2c0.8-4,1.1-8.1,1-12.2c-0.2-7.7-1.2-15.3-3-22.8c-0.8-3.5-1.6-7-2.6-10.3
	c-0.4-1.6-0.9-3.1-1.4-4.5c-0.5-1.7-1.1-3.3-1.4-4.8c-1.3-5.6-2.1-11-2.9-15.7l-0.1-0.9c-0.6-3.6-1-7-1.4-9.9l-0.2-1.2
	c-0.1-0.7-0.2-1.3-0.3-1.9c-0.9-7.3-1.4-11.4-1.4-11.4s0,4.1,0.3,11.5c0.2,3.7,0.5,8.2,0.8,13.2c0.4,5.8,1,11.5,2,17.1
	c0.3,1.7,0.8,3.3,1.3,5c0.4,1.5,0.8,3,1.2,4.6c0.1,0.7,0.3,1.3,0.4,1.9l0,0c0.6,2.7,1.1,5.4,1.6,8.2c1.3,7.3,2,14.7,2.1,22
	c0.1,3.8-0.3,7.6-1.1,11.3c-0.6,3.5-2.2,6.8-4.7,9.3c-1.1,1.1-2.5,1.9-4.1,2.2c-1.7,0.4-4.1,0.9-5.8,1.1c-3.9,0.6-7.9,0.6-11.8,0.1
	H407.7z"/>
<path class="st4" d="M470.6,346.2c-1-9.4,7.5-19.9,17.7-17.7C481.1,332.8,475.5,337,470.6,346.2z"/>
<path class="st4" d="M426.1,346.2c1-9.4-7.5-19.9-17.7-17.7C415.6,332.8,421.3,337,426.1,346.2z"/>
</svg>
