<svg width="214" height="448" viewBox="0 0 214 448" fill="none" xmlns="http://www.w3.org/2000/svg">
<g clip-path="url(#clip0_275_43705)">
<path d="M107.5 447C160.243 447 203 438.27 203 427.5C203 416.73 160.243 408 107.5 408C54.7568 408 12 416.73 12 427.5C12 438.27 54.7568 447 107.5 447Z" stroke="url(#paint0_linear_275_43705)" stroke-width="1.5" stroke-linecap="round" stroke-dasharray="6 6"/>
<path d="M211.547 224.996C210.121 224.126 210.965 224.639 211.547 224.996C207.016 222.212 204.106 217.04 200.564 213.212C198.866 211.376 196.984 209.607 194.461 209.046C193.676 208.872 191.793 209.113 191.318 208.669C190.968 208.138 190.7 207.558 190.522 206.948C190.202 206.213 189.901 205.469 189.62 204.725C187.638 199.355 186.334 193.759 185.739 188.069C185.351 184.637 185.157 181.215 184.517 177.812C183.382 171.956 181.672 166.225 179.413 160.701C178.53 158.526 177.725 155.868 176.376 153.983C175.287 152.636 174.452 151.103 173.912 149.459C173.184 146.762 173.514 143.659 173.32 140.845C173.107 137.92 172.809 135 172.428 132.087C171.711 126.447 170.71 120.846 169.43 115.305C169.25 113.978 169.28 112.631 169.517 111.313C169.643 109.814 169.721 108.306 169.75 106.798C169.813 103.891 169.664 100.984 169.303 98.0981C168.615 92.8006 165.422 88.0541 162.628 83.5977C159.572 78.7642 154.624 76.8308 149.181 75.7964C146.314 75.2617 143.412 74.9386 140.497 74.8297C139.081 74.8297 137.674 74.7717 136.257 74.8297C135.94 74.876 135.615 74.8495 135.31 74.7524C135.004 74.6552 134.724 74.4899 134.492 74.2691C133.929 73.8437 133.347 73.4377 132.755 73.0317C130.378 71.4076 127.904 69.8996 125.439 68.4109L123.431 67.2218C123.101 67.0188 122.267 66.7482 122.092 66.4195C122.04 66.2043 122.017 65.9833 122.024 65.7621L121.18 58.0866C121.054 56.9749 120.937 55.8632 120.811 54.7515C120.745 54.5487 120.716 54.336 120.724 54.1231C120.782 53.9781 121.199 53.8041 121.364 53.6881C121.942 53.2916 122.464 52.8202 122.917 52.2864C123.915 50.865 124.642 49.2723 125.061 47.5882C125.847 45.3068 126.545 42.9964 127.176 40.6667C129.873 30.6227 131.202 18.2394 125.371 8.93973C122.77 4.82802 118.67 1.88231 113.932 0.722817C110.575 0.0211121 107.131 -0.171175 103.716 0.152466C98.9617 0.771152 94.0814 2.44354 90.7147 5.95264C87.0763 9.70342 85.3881 14.7882 84.6896 19.8731C83.2924 29.9557 85.8635 39.9223 89.2496 49.4153C89.5754 50.4628 90.0845 51.4446 90.7535 52.3154C91.1254 52.744 91.5381 53.1357 91.9857 53.4851C92.1506 53.6108 92.8977 53.9781 92.9559 54.1618C92.9929 54.8849 92.9143 55.6093 92.7231 56.3078L91.8208 64.4764C91.8409 65.1277 91.7691 65.7785 91.6073 66.4098C91.4327 66.7385 90.6371 67.0092 90.2587 67.2122L88.2697 68.4302C87.0214 69.2036 85.773 69.9705 84.5246 70.7309C83.3215 71.485 82.1282 72.2487 80.9542 73.051C80.4303 73.4119 79.916 73.7793 79.4115 74.1531C79.1597 74.4046 78.8551 74.5974 78.5196 74.7177C78.1841 74.8381 77.826 74.8829 77.471 74.8491C74.533 74.7796 71.5936 74.899 68.6711 75.2067C63.4803 75.7674 57.3873 76.8598 53.4384 80.5719C51.5853 82.3216 50.3143 84.7867 49.0142 86.9521C47.5471 89.3067 46.3031 91.7922 45.2982 94.3763C44.4569 97.0545 44.0316 99.845 44.0369 102.651C43.904 105.552 43.9624 108.458 44.2115 111.352C44.4487 112.67 44.4781 114.017 44.2988 115.344C43.9593 116.794 43.6488 118.244 43.3286 119.704C42.7659 122.488 42.2711 125.291 41.8442 128.095C40.9568 133.861 40.4061 139.675 40.1948 145.505C40.0978 148.231 39.8552 150.648 38.2543 152.948C37.3211 154.263 36.5246 155.669 35.8772 157.144C31.8358 165.973 29.2822 175.406 28.3191 185.062C27.8852 190.456 26.9101 195.793 25.4085 200.993C25.0301 202.25 24.6032 203.497 24.1375 204.725C23.8852 205.401 23.6135 206.068 23.3322 206.726C23.1382 207.415 22.8335 208.067 22.4298 208.659C21.9641 209.104 20.0819 208.862 19.296 209.036C18.02 209.334 16.8268 209.912 15.8032 210.728C11.5244 214.053 8.74959 218.983 4.91718 222.763C4.0788 223.582 3.16975 224.326 2.20053 224.987C1.38554 225.547 0.415306 226.195 0.415306 227.307C0.357092 229.143 2.35577 229.617 3.77231 229.511C5.53919 229.386 7.25605 228.871 8.7981 228.003C9.7007 227.419 10.5283 226.728 11.2625 225.944C11.8737 225.344 12.6984 224.271 13.5813 224.01C12.9868 225.948 12.149 227.802 11.0878 229.53C9.93651 231.734 8.73342 233.916 7.47859 236.075C6.50836 237.766 4.34474 240.202 5.24706 242.252C6.87704 245.974 10.4572 241.285 11.5827 239.777C12.5529 238.482 13.3873 237.109 14.309 235.785C15.0462 234.516 15.9793 233.371 17.0742 232.392C16.9635 233.64 16.6659 234.865 16.1913 236.026C15.7256 237.438 15.221 238.83 14.6971 240.222C13.8724 242.416 12.2036 245.452 12.8149 247.849C12.8749 248.181 13.0121 248.495 13.2156 248.765C13.4191 249.036 13.6832 249.255 13.9867 249.405C14.2903 249.555 14.625 249.633 14.9639 249.631C15.3029 249.629 15.6368 249.549 15.939 249.396C17.3361 248.613 18.0347 246.689 18.6362 245.307C20.0722 242.02 21.0909 238.54 22.5172 235.292C22.6627 238.192 22.0806 241.092 21.9738 243.992C21.9253 245.413 21.7895 247.559 22.8956 248.68C23.1368 248.898 23.4263 249.056 23.7404 249.141C24.0545 249.226 24.3843 249.236 24.703 249.17C25.0217 249.104 25.3203 248.964 25.5744 248.761C25.8285 248.559 26.0309 248.299 26.1652 248.004C27.1355 246.225 26.9802 243.702 27.1355 241.72C27.281 240.193 27.4168 238.665 27.6303 237.148C27.7176 236.5 27.7564 234.518 28.4453 234.151C29.2021 234.866 28.6005 237.505 28.5132 238.404C28.2709 240.098 28.2318 241.815 28.3968 243.518C28.6199 245.055 29.9394 247.018 31.6179 245.635C32.7046 244.736 32.986 242.958 33.1412 241.652C33.3255 240.164 33.2964 238.656 33.4323 237.157C33.6166 235.06 33.8786 232.972 34.0726 230.883C34.2155 229.933 34.4966 229.008 34.907 228.138C35.528 226.485 36.1101 224.813 36.5952 223.121C37.1545 221.416 37.4808 219.644 37.5654 217.852C37.5703 217.3 37.5117 216.748 37.3908 216.209C37.2011 215.824 37.0453 215.423 36.9251 215.01C37.121 214.141 37.4482 213.307 37.8953 212.536C39.632 208.388 41.5822 204.328 43.6003 200.317C48.3932 190.824 53.681 181.543 56.9604 171.374C58.6971 165.96 59.4248 160.373 60.8413 154.94C62.1892 149.977 63.8087 145.091 65.6924 140.304L67.759 148.25C68.4538 150.304 68.989 152.408 69.3599 154.544C69.5831 156.912 69.3599 159.425 69.3599 161.794C69.3599 165.554 69.3599 169.315 69.292 173.065C69.1562 175.2 69.1562 177.34 69.292 179.475C69.5065 180.346 69.8055 181.194 70.1846 182.007C70.7279 183.622 69.748 186.096 69.4375 187.808C68.7487 191.529 68.118 195.27 67.5747 199.021C65.3917 214.16 66.3231 229.714 67.3321 244.92C68.2974 260.056 70.7707 275.059 74.7156 289.707C76.4329 296.048 78.3443 302.332 78.4898 308.944C78.6256 314.561 77.3449 320.061 76.0254 325.475C74.1529 332.938 73.2408 340.265 74.1529 347.941C75.0358 355.297 77.1897 362.441 79.3436 369.498C81.394 376.226 83.4574 382.948 85.5337 389.663C87.1443 394.903 88.813 400.123 90.1714 405.43C90.6177 407.161 91.3842 409.374 91.0543 411.134C90.5013 414.15 88.4929 417.301 86.9211 419.882C85.3493 422.463 83.6029 425.064 81.0997 426.746C80.2136 427.191 79.4732 427.878 78.9652 428.728C78.2957 430.255 79.5279 431.492 80.8377 432.101C82.1161 432.55 83.4354 432.874 84.7769 433.068C86.7245 433.544 88.7066 433.867 90.705 434.035C91.5148 434.104 92.3283 434.12 93.1403 434.083C93.9456 434.035 94.7509 433.648 95.5173 433.6C95.5945 433.601 95.671 433.585 95.7405 433.551C95.8128 433.667 95.9087 433.766 96.0219 433.841C96.342 434.102 96.5264 434.489 96.8854 434.75C97.6489 435.238 98.5037 435.567 99.3983 435.717C102.678 436.442 105.617 435.504 106.879 432.217C107.218 433.29 107.884 434.231 108.785 434.908C109.686 435.586 110.776 435.966 111.905 435.997C113.845 436.045 117.027 435.504 117.794 433.387C120.608 434.827 124.527 433.957 127.496 433.387C128.971 433.087 130.514 432.875 131.95 432.469C133.172 432.121 134.676 431.357 134.948 429.984C135.374 427.809 132.037 426.504 130.795 425.228C128.472 422.74 126.548 419.909 125.09 416.837C123.897 414.527 122.373 412.004 122.742 409.326C123.13 406.988 123.675 404.679 124.372 402.414C125.624 397.929 127.03 393.482 128.398 389.035C130.462 382.352 132.512 375.672 134.55 368.995C136.675 362.006 138.78 354.949 139.624 347.66C140.351 340.371 139.759 333.011 137.878 325.929C136.51 320.361 135.171 314.735 135.297 308.973C135.442 302.68 137.237 296.696 138.838 290.664C140.817 283.603 142.436 276.447 143.689 269.223C144.892 261.982 145.63 254.722 146.299 247.414C146.959 239.903 147.269 232.334 147.386 224.803C147.522 217.504 147.696 210.254 146.668 203.004C146.163 199.427 145.523 195.87 144.834 192.37C144.465 190.501 144.081 188.639 143.68 186.783C143.495 185.942 143.311 185.091 143.117 184.25C142.875 183.33 142.855 182.366 143.059 181.437C143.534 178.721 143.243 175.782 143.224 173.027C143.185 167.426 143.143 161.829 143.097 156.235C143.132 154.585 143.44 152.952 144.009 151.402L146.92 141.416L147.551 139.328C149.084 143.246 150.474 147.213 151.723 151.228C153.246 156.139 153.964 161.175 155.206 166.154C157.787 176.584 162.648 186.299 167.664 195.754C170.025 200.201 172.246 204.712 174.329 209.288C175.27 210.997 176.034 212.798 176.609 214.662C176.764 215.387 176.318 216.045 176.211 216.837C176.09 217.872 176.129 218.918 176.328 219.941C176.991 223.232 177.986 226.448 179.297 229.54C179.659 230.857 179.851 232.215 179.869 233.581C180.083 235.572 180.345 237.583 180.413 239.584C180.366 241.181 180.613 242.773 181.14 244.282C181.819 245.945 183.886 247.085 184.914 244.92C185.7 243.286 185.409 240.937 185.235 239.168C185.138 238.269 185.041 237.37 184.992 236.461C184.992 235.949 184.74 234.673 185.147 234.238C185.865 234.547 185.943 236.577 186.03 237.206C186.253 238.714 186.389 240.231 186.535 241.749C186.719 243.741 186.535 246.273 187.505 248.062C187.634 248.343 187.825 248.591 188.063 248.789C188.301 248.987 188.581 249.129 188.882 249.205C189.182 249.281 189.496 249.289 189.8 249.228C190.104 249.168 190.391 249.04 190.639 248.854C191.852 247.839 191.745 245.674 191.706 244.272C191.628 241.285 191.007 238.308 191.163 235.321C192.579 238.607 193.598 242.088 195.044 245.336C195.645 246.728 196.383 248.806 197.867 249.502C198.184 249.626 198.525 249.675 198.864 249.647C199.203 249.618 199.531 249.513 199.822 249.338C200.114 249.163 200.361 248.924 200.545 248.639C200.729 248.354 200.845 248.031 200.884 247.694C201.37 245.239 199.74 242.271 198.895 240.009C198.051 237.747 196.586 234.876 196.596 232.382C198.633 233.871 199.992 236.713 201.389 238.772C202.505 240.425 205.202 244.997 207.676 243.17C209.956 241.498 207.589 238.414 206.56 236.693C205.357 234.663 204.212 232.595 203.106 230.516C202 228.438 200.593 226.292 200.089 224.049C201.68 224.436 202.951 226.688 204.261 227.606C205.657 228.536 207.246 229.14 208.908 229.375C210.102 229.569 211.499 229.752 212.488 228.902C214.06 227.577 212.944 225.857 211.547 224.996ZM109.178 322.053C108.955 325.823 108.334 329.554 108.024 333.315C107.577 338.738 107.626 344.19 107.412 349.632C107.277 353.006 107.277 356.399 107.412 359.763C107.568 363.563 108.043 367.333 108.227 371.122C108.635 379.735 107.694 388.378 106.859 396.943C106.093 389.132 105.258 381.272 105.404 373.413C105.472 369.546 105.967 365.68 106.18 361.813C106.394 357.946 106.462 353.838 106.297 349.845C106.035 343.455 106.141 337.065 105.52 330.695C105.307 328.452 104.996 326.229 104.735 324.005C104.353 321.81 104.33 319.567 104.667 317.364C105.132 315.276 106.015 313.352 106.297 311.197C106.554 308.964 106.554 306.71 106.297 304.478C105.763 299.393 106.355 294.492 106.859 289.427C107.277 293.293 108.033 297.315 107.771 301.22C107.529 304.884 106.665 308.316 107.315 312.018C107.585 313.501 108.024 314.947 108.625 316.33C109.251 318.169 109.44 320.128 109.178 322.053Z" fill="#EDF3F6"/>
<path d="M17.2636 222.628C22.2989 223.237 26.9655 218.887 27.9357 214.208C27.664 214.556 27.4021 214.914 27.1498 215.281C25.0057 218.78 21.0376 221.304 17.2636 222.628Z" fill="#076EB0"/>
<path d="M192.422 220.753L192.286 220.675C189.751 218.921 187.55 216.731 185.786 214.208C186.756 218.858 191.384 223.266 196.458 222.628C195.111 222.146 193.812 221.541 192.577 220.82L192.422 220.753Z" fill="#076EB0"/>
<path d="M106.676 178.102C105.881 178.334 105.968 179.455 106.065 179.977C106.409 181.823 107.58 180.11 107.533 179.945C108.561 182.125 105.104 182.904 104.814 180.403C104.736 179.436 105.405 177.3 106.676 178.102Z" fill="#076EB0"/>
<path d="M126.691 317.645C130.756 314.967 132.241 309.167 129.437 305.077C130.249 307.169 130.305 309.477 129.597 311.605C128.89 313.734 127.461 315.551 125.556 316.745C123.735 317.755 121.621 318.107 119.569 317.745C117.549 317.388 115.711 316.358 114.356 314.826C114.341 314.799 114.326 314.772 114.312 314.744L114.292 314.754L114.329 314.796L114.356 314.826C116.724 319.186 122.651 320.306 126.691 317.645Z" fill="#076EB0"/>
<path fill-rule="evenodd" clip-rule="evenodd" d="M96.4388 317.021L90.5382 317.732C88.6794 317.308 87.0111 316.289 85.7881 314.831C84.7123 313.492 84.003 311.897 83.7293 310.203C83.4556 308.509 83.6267 306.773 84.2261 305.164C81.4223 309.205 82.9843 315.044 86.9717 317.732C90.9592 320.419 97.0229 319.269 99.3417 314.831C98.4184 315.854 97.2961 316.68 96.043 317.258C96.1594 317.18 96.3023 317.102 96.3852 317.056C96.4052 317.045 96.4215 317.035 96.4332 317.028L96.4454 317.021L96.4365 317.022L96.4388 317.021ZM96.0818 317.18C94.344 317.963 92.397 318.156 90.5382 317.732L96.4365 317.022C96.403 317.036 96.3171 317.075 96.1568 317.148L96.1542 317.149L96.0624 317.19L96.0818 317.18Z" fill="#076EB0"/>
<path d="M96.4388 317.021L96.4468 317.02L96.4485 317.019L96.4518 317.016C96.4495 317.017 96.4452 317.019 96.4388 317.021Z" fill="#076EB0"/>
<path fill-rule="evenodd" clip-rule="evenodd" d="M203.856 217.246C206.129 220.153 208.448 223.118 211.505 224.996H211.534C212.932 225.857 214.047 227.577 212.485 228.902C211.496 229.752 210.099 229.569 208.905 229.375C207.243 229.14 205.654 228.536 204.258 227.606C203.757 227.255 203.261 226.708 202.75 226.144C201.928 225.237 201.068 224.288 200.086 224.049C200.482 225.808 201.433 227.508 202.358 229.162C202.613 229.617 202.865 230.068 203.104 230.516C204.21 232.595 205.354 234.663 206.557 236.693C206.674 236.889 206.808 237.101 206.95 237.328C208.063 239.096 209.694 241.688 207.673 243.17C205.394 244.853 202.926 241.106 201.679 239.212C201.624 239.13 201.572 239.05 201.522 238.975C201.474 238.903 201.429 238.835 201.386 238.772C201.029 238.245 200.674 237.666 200.309 237.072C199.249 235.346 198.109 233.489 196.594 232.382C196.586 234.328 197.476 236.504 198.269 238.441C198.492 238.986 198.708 239.512 198.893 240.009C199.066 240.473 199.273 240.968 199.487 241.481C200.317 243.468 201.267 245.743 200.882 247.694C200.843 248.031 200.727 248.354 200.543 248.639C200.358 248.924 200.111 249.163 199.82 249.338C199.528 249.513 199.2 249.618 198.861 249.647C198.522 249.675 198.181 249.626 197.864 249.502C196.544 248.883 195.815 247.171 195.24 245.82C195.168 245.652 195.099 245.49 195.032 245.336C194.277 243.64 193.639 241.881 192.999 240.12C192.414 238.507 191.828 236.892 191.151 235.321C191.059 237.077 191.237 238.831 191.414 240.584C191.538 241.813 191.662 243.042 191.694 244.272L191.698 244.42C191.739 245.822 191.798 247.874 190.627 248.854C190.379 249.04 190.092 249.168 189.788 249.228C189.484 249.289 189.17 249.281 188.87 249.205C188.569 249.129 188.289 248.987 188.051 248.789C187.813 248.591 187.622 248.343 187.493 248.062C186.764 246.718 186.687 244.953 186.615 243.314C186.592 242.772 186.569 242.244 186.523 241.749L186.48 241.299C186.35 239.931 186.219 238.564 186.018 237.206C186.005 237.107 185.991 236.974 185.976 236.819C185.891 235.983 185.741 234.499 185.136 234.238C184.826 234.568 184.897 235.384 184.949 235.981C184.966 236.171 184.98 236.338 184.98 236.461C185.029 237.37 185.126 238.269 185.223 239.168L185.252 239.46L185.252 239.462L185.252 239.463C185.426 241.192 185.646 243.376 184.903 244.92C183.874 247.085 181.808 245.945 181.129 244.282C180.601 242.773 180.355 241.181 180.401 239.584C180.346 237.97 180.165 236.351 179.985 234.74L179.985 234.732C179.942 234.347 179.899 233.964 179.858 233.581C179.84 232.215 179.647 230.857 179.285 229.54C177.974 226.448 176.979 223.232 176.317 219.94C176.118 218.918 176.079 217.872 176.2 216.837C176.241 216.536 176.33 216.254 176.418 215.98C176.559 215.535 176.694 215.112 176.598 214.662C176.023 212.798 175.259 210.997 174.318 209.288C172.235 204.712 170.014 200.201 167.653 195.754C162.637 186.299 157.776 176.584 155.195 166.154C154.709 164.202 154.302 162.242 153.897 160.283C153.267 157.246 152.639 154.214 151.713 151.228C150.464 147.213 149.074 143.246 147.541 139.328L146.91 141.416L144 151.402C143.43 152.952 143.122 154.585 143.088 156.235C143.133 161.829 143.175 167.426 143.214 173.027C143.219 173.741 143.242 174.468 143.265 175.199C143.332 177.291 143.401 179.425 143.049 181.437C142.845 182.366 142.865 183.33 143.107 184.25C143.271 184.961 143.428 185.679 143.584 186.392L143.67 186.783C144.071 188.639 144.456 190.501 144.824 192.37C145.513 195.87 146.153 199.427 146.658 203.004C147.653 210.023 147.522 217.041 147.389 224.104L147.376 224.803C147.259 232.334 146.949 239.903 146.289 247.414C145.62 254.722 144.882 261.982 143.679 269.223C142.426 276.447 140.807 283.603 138.828 290.664C138.658 291.308 138.484 291.951 138.311 292.594C136.863 297.977 135.417 303.352 135.287 308.973C135.161 314.735 136.5 320.361 137.868 325.929C139.75 333.011 140.341 340.371 139.614 347.66C138.77 354.949 136.665 362.006 134.54 368.995C132.503 375.672 130.452 382.352 128.389 389.035C128.131 389.873 127.872 390.711 127.613 391.549C126.497 395.159 125.379 398.774 124.363 402.414C123.666 404.679 123.121 406.988 122.733 409.326C122.401 411.737 123.603 414.023 124.717 416.141C124.84 416.375 124.962 416.607 125.081 416.837C126.539 419.909 128.463 422.74 130.786 425.228C131.146 425.599 131.684 425.972 132.254 426.368C133.648 427.336 135.241 428.441 134.938 429.984C134.666 431.357 133.163 432.121 131.94 432.469C130.961 432.745 129.933 432.932 128.91 433.118C128.433 433.205 127.956 433.292 127.487 433.387L127.04 433.474L127.016 433.478C124.113 434.042 120.452 434.752 117.785 433.387C117.019 435.504 113.836 436.045 111.896 435.997C110.768 435.966 109.677 435.586 108.776 434.908C107.875 434.231 107.209 433.29 106.87 432.217C105.609 435.504 102.669 436.442 99.3902 435.717C98.4956 435.567 97.6408 435.238 96.8774 434.75C96.6844 434.61 96.5419 434.433 96.4016 434.259C96.2812 434.11 96.1617 433.962 96.0139 433.841C95.9007 433.766 95.8048 433.667 95.7326 433.551C95.6631 433.585 95.5866 433.601 95.5094 433.6C95.1324 433.623 94.746 433.729 94.3549 433.836C93.9509 433.947 93.5415 434.058 93.1325 434.083C92.3205 434.12 91.5071 434.104 90.6973 434.035C88.699 433.867 86.717 433.544 84.7694 433.068C83.428 432.874 82.1088 432.55 80.8304 432.101C79.5207 431.492 78.2886 430.255 78.958 428.728C79.463 427.876 80.2041 427.188 81.0924 426.746C83.5955 425.064 85.3418 422.463 86.9135 419.882C87.0083 419.727 87.1047 419.569 87.2023 419.409C88.7222 416.921 90.5269 413.968 91.0465 411.134C91.3231 409.658 90.8289 407.864 90.399 406.302L90.3987 406.301C90.316 406.001 90.2357 405.709 90.1637 405.43C89.0225 400.971 87.6623 396.574 86.3015 392.175C86.0426 391.338 85.7836 390.501 85.5262 389.663C83.45 382.948 81.3867 376.226 79.3363 369.498C77.1825 362.441 75.0287 355.297 74.1458 347.941C73.2339 340.265 74.1458 332.938 76.0183 325.475C77.3378 320.061 78.6184 314.561 78.4826 308.944C78.3518 303.004 76.796 297.329 75.236 291.639L75.2334 291.629C75.135 291.27 75.0366 290.911 74.9385 290.552C74.8616 290.271 74.7849 289.989 74.7085 289.707C70.7639 275.059 68.2906 260.056 67.3254 244.92C66.3164 229.714 65.385 214.16 67.568 199.021C68.1113 195.27 68.7419 191.529 69.4307 187.808C69.5135 187.351 69.644 186.84 69.7805 186.306C70.1556 184.837 70.5761 183.191 70.1778 182.007C69.7987 181.194 69.4997 180.346 69.2852 179.475C69.1494 177.34 69.1494 175.2 69.2852 173.065C69.3531 169.315 69.3531 165.555 69.3531 161.795V161.794C69.3531 161.01 69.3776 160.21 69.4022 159.404C69.4519 157.777 69.5024 156.128 69.3531 154.544C68.9822 152.408 68.447 150.304 67.7523 148.25L65.6858 140.304C63.8021 145.091 62.1827 149.977 60.8348 154.94C60.2566 157.158 59.7932 159.401 59.329 161.648C58.6562 164.905 57.9818 168.17 56.9541 171.374C54.3202 179.542 50.3907 187.136 46.4626 194.728L46.4605 194.732C45.4989 196.591 44.5368 198.45 43.5946 200.317C41.5766 204.328 39.6265 208.388 37.8898 212.536C37.4427 213.307 37.1156 214.141 36.9197 215.01C37.0399 215.423 37.1957 215.824 37.3853 216.209C37.5062 216.748 37.5648 217.3 37.56 217.852C37.4754 219.644 37.149 221.416 36.5898 223.121C36.1047 224.813 35.5226 226.485 34.9017 228.138C34.4912 229.008 34.2102 229.933 34.0673 230.883C33.9774 231.851 33.8729 232.818 33.7683 233.787C33.6472 234.909 33.5259 236.032 33.427 237.157C33.3678 237.81 33.3399 238.464 33.3121 239.118C33.276 239.966 33.24 240.812 33.1359 241.652C32.9807 242.958 32.6993 244.736 31.6127 245.635C29.9343 247.018 28.6148 245.055 28.3917 243.518C28.2268 241.815 28.2658 240.098 28.5081 238.404C28.5248 238.233 28.5602 237.998 28.6013 237.725C28.7756 236.568 29.0525 234.73 28.4402 234.151C27.8716 234.454 27.7459 235.858 27.6702 236.702C27.6542 236.881 27.6404 237.035 27.6252 237.148C27.4353 238.498 27.3068 239.857 27.1782 241.216L27.1304 241.72C27.0957 242.163 27.0766 242.633 27.0569 243.115C26.9884 244.792 26.9137 246.622 26.1602 248.004C26.0259 248.299 25.8235 248.559 25.5694 248.761C25.3153 248.964 25.0168 249.104 24.6981 249.17C24.3794 249.236 24.0496 249.226 23.7355 249.141C23.4214 249.056 23.132 248.898 22.8907 248.68C21.838 247.613 21.9103 245.618 21.9615 244.202L21.969 243.992C22.0112 242.846 22.1276 241.7 22.244 240.554C22.4222 238.8 22.6003 237.046 22.5123 235.292C21.7961 236.923 21.1827 238.612 20.5676 240.307C19.9578 241.986 19.3463 243.671 18.6316 245.307C18.5708 245.446 18.509 245.592 18.4455 245.741C17.8817 247.066 17.1901 248.692 15.9344 249.396C15.6323 249.549 15.2984 249.629 14.9594 249.631C14.6205 249.633 14.2858 249.555 13.9823 249.405C13.6787 249.255 13.4146 249.036 13.2112 248.765C13.0077 248.495 12.8705 248.181 12.8104 247.849C12.3191 245.922 13.301 243.583 14.1334 241.599C14.3366 241.115 14.5308 240.652 14.6926 240.222C15.2068 238.83 15.721 237.438 16.177 236.026C16.6592 234.867 16.9602 233.641 17.0696 232.392C15.9748 233.371 15.0417 234.516 14.3045 235.785C13.9455 236.3 13.5998 236.824 13.2541 237.347C12.7123 238.167 12.1706 238.986 11.5783 239.777C10.4529 241.285 6.87286 245.974 5.24295 242.252C4.52141 240.613 5.76042 238.727 6.78191 237.172C7.0378 236.782 7.28003 236.414 7.47438 236.075C8.72916 233.916 9.9322 231.734 11.0835 229.53C12.1446 227.802 12.9824 225.948 13.5769 224.01C12.8876 224.214 12.2339 224.913 11.6894 225.495C11.5365 225.658 11.3922 225.812 11.2581 225.944C10.524 226.728 9.6964 227.419 8.79384 228.003C7.25185 228.871 5.53507 229.386 3.76826 229.511C2.35178 229.617 0.353188 229.143 0.411399 227.307C0.411399 226.214 1.34858 225.57 2.15446 225.016L2.19655 224.987C3.16573 224.326 4.07474 223.582 4.91308 222.763C6.50359 221.195 7.91193 219.428 9.32123 217.66C11.3076 215.168 13.2958 212.673 15.7986 210.728C16.8222 209.912 18.0154 209.334 19.2913 209.036C19.5891 208.97 20.0444 208.964 20.5204 208.957C21.3003 208.947 22.1358 208.935 22.425 208.659C22.8286 208.067 23.1333 207.415 23.3273 206.726C23.6086 206.068 23.8803 205.401 24.1325 204.725C24.5982 203.497 25.0251 202.25 25.4035 200.993C26.9051 195.793 27.8801 190.456 28.3141 185.062C29.2771 175.406 31.8305 165.973 35.8718 157.144C36.5192 155.669 37.3156 154.263 38.2488 152.948C39.8496 150.648 40.0922 148.231 40.1892 145.505C40.4005 139.675 40.9512 133.861 41.8385 128.095C42.2654 125.291 42.7602 122.488 43.3229 119.704C43.3892 119.402 43.455 119.1 43.5208 118.799C43.7728 117.644 44.0238 116.494 44.2931 115.344C44.4724 114.017 44.4429 112.67 44.2058 111.352C43.9566 108.458 43.8983 105.552 44.0311 102.651C44.0259 99.845 44.4512 97.0545 45.2924 94.3763C46.2973 91.7921 47.5413 89.3067 49.0082 86.9521C49.2285 86.5852 49.448 86.2096 49.6696 85.8304C50.7556 83.972 51.8934 82.0249 53.4323 80.5719C57.381 76.8598 63.4737 75.7674 68.6643 75.2067C71.5867 74.899 74.526 74.7796 77.4639 74.8491C77.8188 74.8829 78.1769 74.8381 78.5124 74.7177C78.8479 74.5974 79.1524 74.4046 79.4043 74.1531C79.9088 73.7793 80.423 73.4119 80.9469 73.051C82.1208 72.2487 83.3141 71.485 84.5172 70.7309C85.7655 69.9705 87.0138 69.2036 88.2621 68.4302L90.251 67.2122C90.3506 67.1587 90.479 67.1006 90.6175 67.038C91.0051 66.8627 91.4709 66.652 91.5995 66.4098C91.7613 65.7785 91.8332 65.1277 91.813 64.4764L92.7153 56.3078C92.9065 55.6093 92.9851 54.8849 92.9481 54.1618C92.9079 54.0348 92.5382 53.8199 92.2594 53.6579C92.1351 53.5856 92.0288 53.5239 91.9779 53.4851C91.5303 53.1357 91.1177 52.744 90.7458 52.3154C90.0768 51.4446 89.5677 50.4628 89.242 49.4153C85.856 39.9223 83.285 29.9557 84.6821 19.8731C85.3806 14.7882 87.0688 9.70342 90.707 5.95264C94.0735 2.44354 98.9536 0.771152 103.708 0.152466C107.122 -0.171175 110.567 0.0211121 113.924 0.722817C118.661 1.88231 122.761 4.82802 125.362 8.93973C131.193 18.2394 129.864 30.6227 127.167 40.6667C126.536 42.9964 125.838 45.3068 125.052 47.5882C124.633 49.2723 123.906 50.865 122.908 52.2864C122.455 52.8202 121.933 53.2916 121.355 53.6881C121.302 53.7256 121.222 53.7692 121.137 53.8159C120.958 53.9136 120.754 54.025 120.715 54.1231C120.697 54.3343 120.717 54.547 120.773 54.7515C120.836 55.3073 120.897 55.8632 120.958 56.419C121.018 56.9749 121.079 57.5307 121.142 58.0866L121.986 65.7621C121.979 65.9833 122.002 66.2043 122.054 66.4195C122.174 66.6454 122.606 66.844 122.971 67.012C123.137 67.0883 123.29 67.1584 123.393 67.2218L125.401 68.4109C127.865 69.8996 130.339 71.4076 132.716 73.0317C133.308 73.4377 133.89 73.8437 134.453 74.2691C134.685 74.4899 134.965 74.6552 135.271 74.7524C135.577 74.8495 135.901 74.876 136.219 74.8297C137.163 74.7911 138.102 74.804 139.043 74.8168C139.514 74.8233 139.986 74.8297 140.458 74.8297C143.373 74.9386 146.275 75.2617 149.142 75.7964C154.584 76.8308 159.532 78.7642 162.588 83.5977C162.784 83.9102 162.982 84.2241 163.181 84.5396C165.818 88.7226 168.623 93.1721 169.263 98.0981C169.624 100.984 169.773 103.891 169.71 106.798C169.68 108.306 169.603 109.814 169.477 111.313C169.24 112.631 169.21 113.978 169.389 115.305C170.67 120.846 171.671 126.447 172.387 132.087C172.769 135 173.066 137.92 173.28 140.845C173.344 141.778 173.351 142.743 173.358 143.714C173.371 145.671 173.385 147.656 173.872 149.459C174.411 151.103 175.246 152.636 176.336 153.983C177.364 155.42 178.077 157.307 178.749 159.087C178.958 159.641 179.163 160.185 179.373 160.701C181.632 166.225 183.341 171.956 184.476 177.812C184.923 180.19 185.153 182.577 185.383 184.971C185.482 186.002 185.581 187.035 185.698 188.069C186.293 193.759 187.597 199.355 189.579 204.725C189.86 205.469 190.161 206.213 190.481 206.948C190.659 207.558 190.927 208.138 191.277 208.669C191.572 208.945 192.41 208.956 193.191 208.967C193.667 208.974 194.122 208.98 194.42 209.046C196.943 209.607 198.825 211.376 200.523 213.212C201.675 214.457 202.76 215.845 203.856 217.246ZM91.3182 50.179C90.6477 48.5815 90.0965 46.9369 89.6689 45.2585C88.6987 42.2811 87.9128 39.265 87.2725 36.2102C85.9918 30.5412 85.8172 24.6797 86.7583 18.945C87.6412 13.9859 89.6689 9.05574 93.7049 5.85597C97.4304 2.95589 102.194 1.98919 106.832 1.90219C111.302 1.70812 115.718 2.93349 119.444 5.40163C123.732 8.47572 125.925 13.4059 126.876 18.452C127.905 24.1681 127.806 30.0292 126.585 35.7076C125.708 40.5266 124.356 45.2476 122.549 49.802C121.593 52.0671 119.162 53.4403 117.001 54.6612C116.617 54.8783 116.241 55.0908 115.883 55.3025C115.675 55.4257 115.46 55.5544 115.239 55.6867C112.946 57.0586 110.002 58.8206 107.258 59.0146C104.568 59.2049 101.636 57.507 99.2695 56.1365C98.9911 55.9753 98.7202 55.8184 98.4588 55.6698C98.0762 55.4524 97.672 55.233 97.2573 55.0078C94.9796 53.7712 92.3852 52.3625 91.3182 50.179ZM106.702 395.523C105.977 388.18 105.249 380.797 105.386 373.413C105.427 371.083 105.623 368.752 105.819 366.421C105.948 364.885 106.077 363.349 106.162 361.813C106.376 357.946 106.443 353.838 106.279 349.845C106.19 347.697 106.144 345.549 106.098 343.402C106.006 339.162 105.915 334.924 105.502 330.695C105.359 329.188 105.172 327.689 104.985 326.193L104.985 326.192C104.893 325.462 104.802 324.734 104.717 324.005C104.335 321.81 104.312 319.567 104.649 317.364C104.84 316.508 105.101 315.679 105.362 314.851C105.737 313.659 106.113 312.468 106.279 311.197C106.536 308.964 106.536 306.71 106.279 304.478C105.789 299.817 106.246 295.31 106.714 290.689L106.841 289.427C106.942 290.361 107.063 291.304 107.184 292.253C107.565 295.23 107.952 298.258 107.753 301.22C107.682 302.303 107.556 303.366 107.431 304.421C107.132 306.936 106.839 309.41 107.297 312.018C107.567 313.501 108.006 314.947 108.607 316.33C109.228 318.16 109.417 320.109 109.16 322.024C109.035 324.141 108.784 326.247 108.533 328.352L108.533 328.353C108.337 329.996 108.142 331.638 108.005 333.286C107.714 336.832 107.633 340.391 107.553 343.952C107.511 345.836 107.468 347.72 107.394 349.603C107.258 352.977 107.258 356.37 107.394 359.734C107.476 361.726 107.645 363.71 107.814 365.693C107.968 367.492 108.122 369.291 108.209 371.093C108.598 379.148 107.807 387.202 107.022 395.194L107.021 395.203C106.964 395.783 106.907 396.363 106.851 396.943H106.841C106.795 396.47 106.748 395.997 106.702 395.523ZM103.737 373.655C103.74 379.029 104.034 384.399 104.62 389.741C104.812 391.65 105.037 393.565 105.262 395.479L105.263 395.488C105.662 398.882 106.062 402.277 106.279 405.643C106.408 407.659 106.353 409.698 106.298 411.719C106.292 411.966 106.285 412.212 106.279 412.458V423.894C106.279 424.439 106.287 424.983 106.296 425.528C106.313 426.617 106.33 427.706 106.279 428.795C106.211 430.729 105.629 433.252 103.775 434.286C102.783 434.714 101.698 434.884 100.622 434.779C99.5461 434.674 98.5145 434.298 97.6244 433.687C97.3123 433.39 97.0966 433.006 97.005 432.586C96.9133 432.165 96.95 431.727 97.1102 431.328L97.1321 431.237C97.2856 430.593 97.7504 428.643 98.2939 428.699C98.2367 428.535 98.1363 428.389 98.0033 428.278C97.8703 428.166 97.7096 428.092 97.538 428.063C97.3664 428.034 97.1902 428.052 97.0279 428.115C96.8656 428.177 96.7231 428.282 96.6154 428.418C96.2755 428.895 96.1836 429.565 96.0939 430.221C96.0017 430.893 95.9117 431.55 95.5579 431.966C94.9426 432.69 93.5667 432.648 92.6774 432.622L92.6732 432.622L92.5988 432.62L92.5136 432.617C92.4549 432.616 92.3991 432.614 92.3466 432.614C90.9029 432.566 89.4655 432.401 88.0487 432.121C86.969 431.92 85.9094 431.659 84.831 431.394L84.4312 431.296L84.1679 431.231C83.8919 431.163 83.616 431.124 83.34 431.086C82.9951 431.038 82.6501 430.991 82.3051 430.883C81.8394 430.738 80.5685 430.313 80.5103 429.675C80.4625 429.151 81.2644 428.693 81.8216 428.374L81.8225 428.374C81.9438 428.304 82.0535 428.242 82.1402 428.186C86.021 425.692 88.5532 421.294 90.6294 417.35C91.6879 415.57 92.5128 413.663 93.0839 411.675C93.2728 410.386 93.2069 409.072 92.8899 407.808C91.8572 402.379 90.2001 397.036 88.5605 391.748C88.136 390.38 87.7126 389.014 87.3016 387.653C86.021 383.351 84.7209 379.039 83.4209 374.728C82.9737 373.223 82.512 371.713 82.0487 370.198L82.0422 370.177L82.0411 370.173C81.1314 367.199 80.2156 364.204 79.3912 361.188C79.0032 360.543 84.3756 360.409 91.5707 360.446C92.8229 360.453 94.1406 360.444 95.4358 360.435L95.4426 360.434C100.099 360.402 104.464 360.372 104.464 361.072C104.383 362.503 104.276 363.932 104.169 365.362C103.963 368.124 103.757 370.886 103.737 373.655ZM62.7414 108.539L62.7345 108.427C62.642 107.132 62.0169 95.7881 67.3137 77.056C64.121 77.4104 61.513 78.2022 58.5549 79.4505C55.8762 80.6611 53.6563 82.6935 52.2195 85.2507C50.3994 88.0151 48.8126 90.9252 47.4753 93.951C46.398 96.9252 45.872 100.07 45.923 103.231C45.8078 106.582 45.9505 109.937 46.3499 113.266C46.3937 113.77 46.3953 114.275 46.3554 114.777C47.0365 118.672 60.1565 122.191 61.0018 121.723C61.3786 121.515 61.4235 120.92 61.4551 120.502C61.4641 120.382 61.4721 120.277 61.4864 120.199C61.4937 120.216 61.5009 120.239 61.5079 120.266C61.5613 119.574 61.6329 118.894 61.7177 118.234C61.7972 117.615 61.8467 116.995 61.8961 116.377C62.0037 115.028 62.1106 113.689 62.5258 112.393C62.9182 111.404 62.8097 109.647 62.7414 108.539ZM45.0401 121.676C45.242 120.547 45.4526 119.418 45.6749 118.292C45.83 117.946 46.088 117.677 46.4821 117.976C46.5671 118.04 46.6615 118.116 46.7682 118.201C47.6678 118.921 49.4427 120.341 53.812 121.723C55.5333 122.268 56.9439 122.602 58.0657 122.867C60.1047 123.35 61.1889 123.606 61.4483 124.492C61.5672 126.594 61.936 128.672 62.6879 130.531C62.9986 131.355 63.4161 132.135 63.9297 132.851C64.0542 133.02 64.2132 133.179 64.3725 133.338C64.66 133.625 64.9483 133.914 65.0358 134.262C65.2128 135.18 65.2973 136.112 65.288 137.046C65.3924 138.016 65.1852 138.995 64.6962 139.84C64.2147 140.942 63.7449 142.079 63.2867 143.187L63.1286 143.57C63.0493 143.762 62.9703 143.952 62.8916 144.142C61.453 147.669 60.206 151.27 59.1561 154.931L59.1542 154.927L59.1454 154.968C59.0771 155.206 59.0096 155.445 58.943 155.684L58.9395 155.697C58.8282 155.955 58.659 156.198 58.389 156.326C57.3936 156.797 41.3253 153.205 41.9679 149.465L41.9584 149.44C42.1809 148.709 42.3136 147.952 42.3527 147.187C42.3527 145.476 42.4206 143.765 42.5079 142.063C42.929 135.222 43.7747 128.413 45.0401 121.676ZM55.4429 157.483C57.23 157.783 58.0928 157.928 58.222 158.586C58.0069 159.542 57.8067 160.505 57.6063 161.468C57.1844 163.496 56.7616 165.529 56.1973 167.517C53.8786 175.675 50.2501 183.448 46.4469 191.007C42.5124 198.448 39.0768 206.141 36.1629 214.034C35.9761 213.878 35.5089 213.579 35.0397 213.409C34.0353 212.996 33.0247 212.539 32.0059 212.08C29.2274 210.825 26.3875 209.543 23.4437 209.036C26.4011 203.049 28.3669 196.624 29.2649 190.012C29.5235 188.312 29.717 186.612 29.9103 184.915C30.2171 182.22 30.5233 179.53 31.0888 176.855C32.518 170.339 34.6587 163.998 37.4727 157.946C37.9481 156.723 38.5808 155.566 39.3548 154.505C39.7989 153.957 40.1972 153.375 40.5464 152.766C40.7992 152.502 41.1237 152.351 41.511 152.602C41.6107 152.667 41.7214 152.742 41.8465 152.828C42.9004 153.547 44.9794 154.967 50.0979 156.349C52.4022 156.972 54.1606 157.267 55.4429 157.483ZM34.7852 214.711C36.1629 215.397 36.3472 217.06 36.2599 218.442C36.0496 221.948 34.633 225.492 33.3384 228.73L33.2814 228.873C33.0004 229.576 32.8397 230.321 32.806 231.077C32.7221 231.936 32.6278 232.795 32.5334 233.653C32.355 235.276 32.1766 236.899 32.0687 238.53C32.0411 238.918 32.0331 239.306 32.0252 239.693C32.0107 240.396 31.9963 241.096 31.865 241.788C31.8547 241.856 31.844 241.934 31.8322 242.018C31.7217 242.813 31.5261 244.218 30.8948 244.62C29.6259 245.412 29.7055 242.061 29.7274 241.138C29.7288 241.081 29.73 241.032 29.7305 240.995C29.7305 240.162 29.8295 239.319 29.9286 238.475C30.0778 237.203 30.2276 235.928 30.041 234.673C29.8276 233.262 28.4596 232.15 27.4021 233.552C26.5182 234.723 26.3663 236.516 26.2383 238.027C26.2131 238.324 26.1889 238.61 26.1602 238.878C26.0922 239.515 26.0183 240.137 25.9453 240.75C25.8311 241.711 25.7192 242.652 25.6363 243.596C25.6363 244.069 25.0445 249.589 23.6474 247.53C23.3135 246.747 23.1834 245.892 23.2691 245.046C23.2787 243.782 23.3564 242.521 23.5019 241.266C23.7617 239.256 23.8623 237.23 23.8027 235.205C23.8027 234.547 23.7154 233.494 22.9974 233.194C21.7181 232.646 20.8962 235.332 20.4968 236.637C20.4237 236.876 20.3647 237.068 20.3197 237.186C20.0558 237.892 19.8029 238.603 19.5498 239.314C19.0118 240.827 18.4729 242.342 17.8263 243.808C17.758 243.966 17.6713 244.198 17.5679 244.473C17.0395 245.882 16.0758 248.452 14.9157 248.371C12.7276 248.212 15.6976 240.893 16.7642 238.264C16.9318 237.851 17.0525 237.554 17.0987 237.418C17.1431 237.288 17.2165 237.099 17.3068 236.866C17.9074 235.317 19.2548 231.842 17.7875 231.019C16.924 230.535 16.0121 231.483 15.4784 232.053C13.9783 233.792 12.6252 235.651 11.4328 237.612C10.8797 238.443 10.2976 239.236 9.69612 240.019C9.60449 240.138 9.50948 240.267 9.41092 240.402C8.8625 241.148 8.20419 242.045 7.40647 242.184C5.09742 242.6 7.50349 238.569 7.85276 237.989C8.92967 236.21 9.95807 234.383 10.9574 232.556C12.4587 230.093 13.7068 227.486 14.6829 224.774C15.0225 223.672 14.9448 222.406 13.3343 222.715C12.0806 222.948 11.1047 223.984 10.1411 225.008C9.46434 225.727 8.79366 226.439 8.03709 226.862C6.48414 227.781 4.70055 228.241 2.89509 228.186C0.339164 227.864 2.87434 226.03 4.19305 225.076C4.45612 224.886 4.67078 224.73 4.78696 224.629C6.87454 222.802 8.60532 220.635 10.335 218.471C12.1101 216.249 13.884 214.029 16.0412 212.178C16.9143 211.395 17.9515 210.815 19.0775 210.48C20.2035 210.146 21.39 210.065 22.5511 210.245C26.7293 210.84 31.0364 212.843 34.7852 214.711ZM211.069 228.186C209.72 228.296 208.365 228.077 207.12 227.548C205.492 226.975 204.389 225.936 203.218 224.831C202.889 224.521 202.554 224.206 202.201 223.894C201.483 223.256 199.097 221.69 198.767 223.595C198.786 224.355 198.986 225.1 199.349 225.77C201.139 229.942 203.264 233.964 205.704 237.795C205.829 238.004 205.97 238.219 206.114 238.438C206.637 239.236 207.205 240.103 207.266 241.005C207.45 243.673 204.763 241.005 204.2 240.309C203.343 239.234 202.583 238.051 201.821 236.864C200.616 234.988 199.403 233.101 197.787 231.609C196.661 230.584 195.293 230.642 195.303 232.392C195.386 233.532 195.631 234.655 196.031 235.727C196.587 237.548 197.264 239.337 197.937 241.116L197.937 241.117L197.938 241.118L198.136 241.643C198.726 243.03 199.194 244.466 199.533 245.935C199.756 247.163 199.213 249.28 197.845 247.685C196.871 246.3 196.109 244.779 195.585 243.17C195.042 241.914 194.582 240.593 194.121 239.269C193.873 238.556 193.624 237.842 193.363 237.138C193.304 236.982 193.235 236.749 193.152 236.472C192.782 235.235 192.149 233.117 191.063 233.078C189.604 233.008 189.786 235.722 189.862 236.859C189.869 236.977 189.876 237.078 189.88 237.157C189.926 238.351 190.037 239.534 190.148 240.717V240.719L190.149 240.727C190.225 241.534 190.3 242.341 190.355 243.151C190.364 243.273 190.378 243.425 190.394 243.6C190.508 244.814 190.723 247.112 189.841 247.762C188.385 248.801 188.128 244.814 188.059 243.751C188.054 243.667 188.05 243.6 188.046 243.557C187.936 242.326 187.82 241.098 187.697 239.874C187.694 239.843 187.691 239.806 187.687 239.764L187.674 239.602C187.538 237.909 187.011 231.359 184.466 233.107C183.298 233.897 183.568 236.142 183.737 237.541L183.746 237.617L183.764 237.768C183.769 237.808 183.773 237.848 183.778 237.886C183.782 237.927 183.786 237.966 183.79 238.004L183.797 238.066C183.973 239.558 184.047 241.06 184.02 242.561C184.02 243.528 183.418 245.945 182.477 244.002C181.847 242.7 181.797 241.23 181.748 239.79L181.748 239.788C181.734 239.368 181.72 238.95 181.691 238.54C181.58 236.854 181.395 235.169 181.21 233.483C181.153 232.965 181.096 232.446 181.041 231.928C181.019 231.103 180.912 230.284 180.721 229.482C180.392 228.465 180.022 227.467 179.653 226.47C179.031 224.794 178.411 223.119 177.985 221.362C177.432 219.07 176.753 215.929 179.227 214.595C182.941 212.658 188.732 209.788 193.097 210.3C194.635 210.48 196.094 211.073 197.321 212.014C199.54 213.811 201.353 216.086 203.151 218.342L203.152 218.342L203.153 218.343C203.965 219.362 204.774 220.377 205.616 221.342C206.878 222.879 208.3 224.278 209.856 225.518C210.399 225.857 213.407 227.751 211.069 228.186ZM155.642 158.913C156.406 162.916 157.384 166.875 158.572 170.774C161.125 178.5 164.717 185.777 168.31 193.056C171.694 199.912 175.079 206.77 177.597 214.005C181.399 211.724 185.942 209.971 190.297 209.114C186.974 202.334 184.894 195.017 184.156 187.508C183.684 182.358 182.801 177.254 181.517 172.244C180.593 168.982 179.495 165.771 178.228 162.625C178.021 162.117 177.815 161.589 177.606 161.05C176.728 158.788 175.781 156.351 174.347 154.563C173.87 153.981 173.446 153.363 173.078 152.715C172.848 152.461 172.534 152.317 172.106 152.594C172 152.663 171.882 152.744 171.75 152.836L171.748 152.837C170.711 153.552 168.738 154.913 163.665 156.283C161.361 156.906 159.602 157.201 158.32 157.416C156.556 157.713 155.692 157.858 155.546 158.495L155.587 158.67C155.605 158.751 155.624 158.832 155.642 158.913ZM154.844 155.675C154.955 155.917 155.12 156.14 155.374 156.26C156.346 156.719 171.701 153.303 171.813 149.658C171.598 148.872 171.455 148.065 171.388 147.245C171.349 143.823 171.165 140.401 170.835 136.998C170.231 130.801 169.281 124.642 167.989 118.551C167.856 118.111 167.576 117.604 167.086 117.976C167.001 118.04 166.907 118.116 166.8 118.202C165.9 118.921 164.126 120.341 159.756 121.723C158.035 122.268 156.624 122.602 155.503 122.867C153.786 123.273 152.746 123.519 152.305 124.116C152.205 127.323 151.592 130.636 149.714 133.073C149.544 133.295 149.317 133.499 149.093 133.701C148.007 134.681 147.717 136.419 148.162 137.81C148.547 138.721 148.941 139.628 149.334 140.533L149.334 140.534L149.335 140.536C150.276 142.703 151.215 144.866 152.042 147.081C153.129 149.895 154.064 152.764 154.844 155.675ZM152.283 121.395C152.347 121.534 152.437 121.652 152.567 121.723C153.416 122.194 166.665 118.636 167.222 114.718C167.234 114.682 167.246 114.649 167.257 114.618C167.241 114.187 167.257 113.754 167.303 113.324C167.498 111.661 167.633 109.998 167.711 108.316C167.87 104.997 167.756 101.67 167.371 98.3688C166.851 95.3576 165.758 92.4734 164.15 89.8715C163.916 89.4476 163.68 89.008 163.439 88.5602L163.437 88.5569C162.175 86.2079 160.791 83.6331 158.902 81.8963C155.663 78.911 150.981 77.6744 146.402 77.0848C151.69 95.7997 151.066 107.132 150.973 108.427L150.966 108.539C150.898 109.647 150.79 111.404 151.182 112.393C151.597 113.689 151.704 115.028 151.812 116.377C151.832 116.637 151.853 116.898 151.876 117.159C152.03 118.12 152.141 119.089 152.207 120.061C152.237 120.495 152.263 120.941 152.283 121.395ZM148.108 132.116C147.105 133.887 146.729 135.214 146.668 135.722L146.144 138.767V138.67L141.545 152.852C141.458 153.18 141.351 153.503 141.225 153.818C141.116 154.282 141.032 154.751 140.974 155.224C136.854 160.904 117.301 160.734 108.648 160.659H108.641C107.798 160.652 107.059 160.645 106.448 160.645C103.428 160.645 73.0396 160.277 71.6112 155.257C71.5606 154.834 71.4705 154.418 71.342 154.012C70.9131 152.835 70.5535 151.634 70.2651 150.416L68.4896 144.297C68.3273 143.74 68.159 143.185 67.9908 142.631L67.9903 142.629C67.6358 141.461 67.2818 140.295 66.9858 139.115C66.8613 138.487 66.8329 137.683 66.8029 136.833C66.7407 135.073 66.6716 133.115 65.7246 132.116C62.9887 128.936 62.9304 124.18 62.9207 120.361C62.9283 117.881 63.2952 115.226 63.7781 112.794C64.0611 111.889 64.085 111.129 64.085 110.182C63.9563 108.946 63.9534 105.8 64.238 101.718C64.3671 101.528 64.5857 101.38 64.939 101.34C65.151 101.317 65.6111 101.425 66.4321 101.619C70.0135 102.463 80.462 104.925 107.133 105.113C131.02 105.283 134.147 104.741 142.025 103.378C142.797 103.244 143.615 103.103 144.502 102.953C144.674 102.902 144.869 102.838 145.078 102.769C146.574 102.272 148.85 101.517 149.583 103.567C149.75 106.741 149.731 109.14 149.623 110.182C149.623 111.129 149.647 111.889 149.93 112.794C150.412 115.226 150.779 117.881 150.787 120.361L150.786 120.625C150.783 122.033 150.78 123.559 150.638 125.08C150.374 127.183 149.835 129.227 148.831 130.937C148.571 131.331 148.339 131.71 148.134 132.071L148.095 132.116H148.108ZM149.186 98.3591C148.523 91.6435 147.127 83.4067 144.462 76.8696C143.301 76.7596 142.162 76.682 141.07 76.6181C136.754 76.3656 132.383 76.4744 128.033 76.5827H128.031C126.387 76.6237 124.745 76.6646 123.111 76.6858L133.133 75.3228C131.183 73.8727 129.127 72.5387 127.089 71.224L124.111 69.2906C123.042 68.7895 122.033 68.1701 121.103 67.4442C120.777 67.1113 120.757 66.8303 120.729 66.4202C120.722 66.3301 120.716 66.2339 120.705 66.1295C120.369 62.3465 120.026 58.5667 119.677 54.7901C117.56 56.1799 115.364 57.4452 113.099 58.5796C111.129 59.5463 108.898 60.513 106.657 60.513C104.514 60.3107 102.439 59.6513 100.574 58.5796C98.3081 57.4468 96.1116 56.1814 93.9959 54.7901C93.6596 58.5796 93.3168 62.369 92.9675 66.1585C92.9646 66.1937 92.9619 66.2278 92.9594 66.2609L92.9519 66.3648C92.92 66.8113 92.9015 67.0701 92.5794 67.4249C91.6506 68.1415 90.641 68.7483 89.5716 69.2327C88.4366 69.948 87.3015 70.6633 86.1762 71.398C85.7848 71.6606 85.3931 71.9216 85.0017 72.1823C83.4916 73.1882 81.988 74.1899 80.5394 75.2648L90.5614 76.6375C88.9266 76.6165 87.2822 76.575 85.6329 76.5333C80.183 76.3958 74.6344 76.262 69.2508 76.8575C66.513 83.5676 65.113 92.0719 64.4706 98.8833C69.1103 103.285 103.564 103.621 107.133 103.621C107.776 103.621 108.558 103.625 109.454 103.629C120.3 103.681 147.861 103.813 149.186 98.3591ZM140.973 165.303C140.947 164.304 140.93 163.305 140.919 162.305C140.72 158.89 137.977 159.49 136.643 159.978C135.927 160.127 135.266 160.269 134.642 160.402C128.276 161.766 125.75 162.307 106.448 162.138C84.8975 161.949 76.4548 159.487 73.561 158.643C72.8975 158.45 72.5257 158.341 72.3545 158.365C71.6198 158.466 71.6059 159.288 71.6908 159.687C71.6674 159.639 71.6449 159.591 71.6233 159.543V179.489C72.0916 180.456 72.4278 181.482 72.6226 182.539C72.5501 183.522 72.3712 184.494 72.089 185.439C71.0509 191.056 70.1195 196.691 69.4404 202.366L69.4253 202.509C69.4187 204.331 70.2364 207.199 72.6788 209.29C76.1839 212.291 89.2276 220.188 90.827 218.354C90.9302 218.163 90.9744 217.896 90.993 217.645C90.9927 217.616 90.9925 217.586 90.9924 217.557C90.9922 217.532 90.9922 217.506 90.9922 217.481C90.9922 208.642 98.1577 201.477 106.997 201.477C115.836 201.477 123.001 208.642 123.001 217.481C123.001 217.812 122.991 218.141 122.972 218.467C125.045 219.821 137.566 212.221 140.989 209.29C143.516 207.126 144.304 204.132 144.239 202.324C143.76 198.459 143.114 194.616 142.302 190.804C141.998 189.2 141.674 187.588 141.331 185.971C140.95 184.827 140.725 183.637 140.662 182.433C140.697 181.93 140.804 181.438 140.911 180.943C141.043 180.333 141.176 179.719 141.176 179.078V177.271C141.181 175.23 141.128 173.193 141.075 171.155V171.154C141.024 169.204 140.973 167.255 140.973 165.303ZM124.05 220.291C123.484 220.42 122.952 220.792 122.573 221.175C120.936 228.105 114.794 233.294 107.408 233.481C107.308 234.207 107.313 234.944 107.423 235.669L107.608 249.396C107.644 253.052 107.631 256.709 107.618 260.366C107.603 264.737 107.587 269.109 107.657 273.481C108.082 274.793 110.379 274.747 118.572 274.581C120.491 274.542 122.733 274.497 125.351 274.461C135.147 274.327 139.245 273.423 140.302 272.442C141.801 264.597 142.884 256.675 143.544 248.709C144.077 242.833 144.342 236.941 144.606 231.047L144.607 231.029C144.631 230.501 144.655 229.972 144.679 229.443L144.685 229.313C144.974 222.926 145.268 216.417 144.97 210.022C144.908 209.087 144.836 208.152 144.755 207.218L144.735 207.244C144.721 207.261 144.707 207.279 144.692 207.298L144.672 207.322L144.609 207.398C144.511 207.518 144.389 207.666 144.237 207.864C137.036 215.903 125.354 219.993 124.05 220.291ZM139.771 275.129C139.631 274.936 139.314 274.833 138.656 274.925C135.615 275.587 118.032 276.317 112.998 276.317C109.515 276.317 108.04 276.594 107.74 277.123C107.926 282.717 108.427 288.258 109.073 293.864C109.536 296.936 109.598 300.056 109.257 303.144C108.651 306.257 108.651 309.457 109.257 312.569C109.442 313.348 109.748 314.072 110.053 314.795C110.293 315.363 110.533 315.931 110.712 316.523C110.97 317.58 111.087 318.665 111.062 319.752C111.018 322.955 110.765 326.152 110.305 329.322C109.887 333.304 109.759 337.275 109.631 341.255L109.631 341.271C109.578 342.919 109.525 344.568 109.451 346.22C109.263 350.165 109.112 354.095 109.192 358.037C109.711 358.857 113.571 358.837 117.303 358.817H117.307C118.335 358.811 119.353 358.806 120.289 358.818C120.875 358.826 121.547 358.838 122.273 358.852L122.281 358.852C127.072 358.941 134.237 359.073 135.028 358.185C135.37 356.765 135.688 355.339 135.976 353.905C137.335 347.741 137.682 341.398 137.004 335.122C136.587 331.704 135.778 328.366 134.968 325.025C134.27 322.15 133.572 319.273 133.124 316.339C132.594 312.843 132.47 309.298 132.755 305.773C133.219 300.65 134.607 295.685 135.989 290.74L135.99 290.735C136.313 289.58 136.636 288.426 136.946 287.271C138 283.249 138.942 279.2 139.771 275.129ZM106.385 234.089C106.401 233.897 106.42 233.66 106.417 233.476C99.343 233.224 93.4379 228.381 91.5916 221.835C91.354 221.338 90.5297 220.499 89.6178 220.291C88.3135 219.993 76.6324 215.903 69.431 207.864C69.2794 207.666 69.1572 207.518 69.0587 207.398L69.0144 207.344C68.76 211.247 68.6917 215.16 68.8098 219.07C68.9747 230.255 69.4986 241.421 70.5464 252.567C71.1417 259.145 72.0567 265.688 73.2875 272.172C73.8592 273.251 77.7635 274.314 88.4541 274.461C91.0716 274.497 93.314 274.542 95.2329 274.581C103.789 274.754 105.916 274.797 106.194 273.298C106.223 269.907 106.2 266.514 106.177 263.12C106.151 259.333 106.125 255.546 106.172 251.764L106.366 237.128V234.383C106.366 234.322 106.375 234.215 106.385 234.089ZM109.293 361.015C109.373 362.764 109.483 364.506 109.593 366.245C109.857 370.418 110.121 374.578 109.956 378.788C109.767 383.638 109.273 388.467 108.78 393.294C108.184 399.127 107.588 404.958 107.53 410.824V424.165C107.53 424.643 107.515 425.153 107.5 425.682C107.416 428.545 107.317 431.963 109.47 433.832C110.037 434.245 110.688 434.53 111.377 434.665C112.066 434.801 112.776 434.783 113.458 434.615C114.457 434.46 116.068 434.112 116.63 433.271C117.185 432.442 116.807 431.097 116.536 430.133L116.524 430.091C116.52 430.08 116.516 430.067 116.51 430.051L116.487 429.983C116.297 429.447 115.608 427.492 116.757 428.157C117.124 428.568 117.422 429.034 117.639 429.54C117.851 430.022 117.963 430.541 117.969 431.067C118.008 431.831 118.057 432.005 118.852 432.304C119.422 432.492 120.018 432.59 120.618 432.594C122.9 432.716 125.05 432.208 127.212 431.696C128.138 431.477 129.067 431.257 130.009 431.086C131.067 430.903 134.433 430.303 132.561 428.815C132.191 428.496 131.788 428.244 131.386 427.993C131.007 427.756 130.629 427.52 130.281 427.229C129.301 426.401 128.413 425.471 127.632 424.455C125.847 422.162 124.285 419.705 122.966 417.118C121.897 415.342 121.093 413.421 120.579 411.414C120.435 409.753 120.61 408.08 121.093 406.484C121.621 403.971 122.329 401.484 123.031 399.014L123.17 398.528C124.39 394.18 125.705 389.841 127.02 385.504L127.027 385.483C127.633 383.483 128.239 381.483 128.835 379.484C129.395 377.615 129.971 375.748 130.547 373.88L130.548 373.875L130.55 373.869L130.55 373.867C131.856 369.632 133.164 365.39 134.293 361.099C134.215 360.521 128.998 360.411 122.121 360.446C120.875 360.453 119.563 360.443 118.274 360.434L118.267 360.434L118.26 360.434C113.618 360.402 109.306 360.382 109.306 361.082C109.302 361.061 109.297 361.039 109.293 361.015ZM100.806 276.317C104.6 276.317 106.012 276.645 106.117 277.271C105.98 281.63 105.695 285.961 105.202 290.306C105.142 290.853 105.081 291.399 105.019 291.946C104.791 293.98 104.563 296.013 104.425 298.04C104.351 300.573 104.452 303.109 104.726 305.628C104.951 308.19 104.765 310.772 104.173 313.275C104.005 313.946 103.799 314.576 103.597 315.196C103.216 316.364 102.845 317.498 102.757 318.805C102.536 322.043 102.953 325.319 103.371 328.595C103.632 330.648 103.894 332.701 103.999 334.745C104.132 337.001 104.172 339.258 104.211 341.514C104.243 343.347 104.275 345.18 104.358 347.013C104.532 350.647 104.668 354.273 104.59 357.907C104.406 358.86 100.333 358.838 96.4033 358.817H96.3993C95.3681 358.812 94.3468 358.806 93.4082 358.818C92.826 358.826 92.16 358.839 91.44 358.852H91.4219L91.4175 358.852L91.4108 358.852C86.5454 358.942 79.2398 359.077 78.5977 358.152C77.3682 353.198 76.47 348.186 76.3288 343.107C76.2433 337.562 76.9289 332.031 78.3662 326.673C79.6274 321.579 80.8596 316.504 81.0342 311.206C81.291 303.719 79.3335 296.619 77.3666 289.486C77.0302 288.266 76.6935 287.045 76.3676 285.821C75.4667 282.384 74.6563 278.925 73.9371 275.448C73.9514 275.073 74.1849 274.79 75.1485 274.925C78.1898 275.587 95.7724 276.317 100.806 276.317ZM106.997 232.146C114.731 232.146 121.001 225.216 121.001 217.481C121.001 209.747 114.731 202.643 106.997 202.643C99.2623 202.643 92.9922 209.747 92.9922 217.481C92.9922 225.216 99.2623 232.146 106.997 232.146Z" fill="#076EB0"/>
</g>
<defs>
<linearGradient id="paint0_linear_275_43705" x1="107.5" y1="408" x2="107.813" y2="454.869" gradientUnits="userSpaceOnUse">
<stop offset="0.0661284" stop-color="#076EB0" stop-opacity="0.04"/>
<stop offset="0.968791" stop-color="#076EB0"/>
</linearGradient>
<clipPath id="clip0_275_43705">
<rect width="214" height="448" fill="white"/>
</clipPath>
</defs>
</svg>
