<svg width="197" height="208" viewBox="0 0 197 208" fill="none" xmlns="http://www.w3.org/2000/svg">
<path d="M213.696 229.125C212.27 228.239 213.114 228.76 213.696 229.125C209.165 226.29 206.254 221.023 202.713 217.124C201.015 215.254 199.133 213.452 196.61 212.882C195.824 212.704 193.942 212.95 193.467 212.498C193.117 211.957 192.849 211.366 192.671 210.745C192.351 209.997 192.05 209.239 191.769 208.481C189.787 203.012 188.483 197.315 187.888 191.519C187.5 188.025 187.306 184.54 186.665 181.074C185.53 175.111 183.821 169.275 181.562 163.65C180.679 161.435 179.874 158.728 178.525 156.808C177.435 155.437 176.6 153.875 176.061 152.201C175.333 149.454 175.663 146.294 175.469 143.43C175.255 140.45 174.958 137.477 174.576 134.511C173.859 128.767 172.859 123.063 171.578 117.421C171.399 116.069 171.428 114.698 171.666 113.355C171.792 111.829 171.869 110.294 171.898 108.758C171.962 105.798 171.812 102.836 171.452 99.8981C170.763 94.5034 167.571 89.6698 164.777 85.1316C161.721 80.2094 156.772 78.2405 151.329 77.1872C148.463 76.6427 145.56 76.3136 142.646 76.2028C141.229 76.2028 139.823 76.1437 138.406 76.2028C138.088 76.2498 137.764 76.2229 137.458 76.124C137.152 76.025 136.873 75.8567 136.64 75.6318C136.077 75.1986 135.495 74.7852 134.903 74.3717C132.526 72.7179 130.052 71.1822 127.588 69.6661L125.58 68.4553C125.25 68.2485 124.415 67.9729 124.241 67.6382C124.189 67.4191 124.166 67.194 124.173 66.9688L123.329 59.1524C123.203 58.0203 123.086 56.8882 122.96 55.7561C122.894 55.5496 122.865 55.333 122.873 55.1162C122.931 54.9685 123.348 54.7913 123.513 54.6732C124.091 54.2695 124.613 53.7894 125.065 53.2458C126.064 51.7983 126.791 50.1764 127.21 48.4614C127.995 46.1382 128.694 43.7854 129.325 41.4129C132.022 31.1846 133.351 18.574 127.52 9.10377C124.919 4.91661 120.818 1.91685 116.081 0.73608C112.724 0.0214995 109.279 -0.174316 105.864 0.155264C101.11 0.785301 96.2301 2.48837 92.8634 6.06187C89.225 9.88147 87.5368 15.0596 86.8382 20.2377C85.4411 30.5054 88.0122 40.6549 91.3983 50.322C91.7241 51.3887 92.2332 52.3885 92.9022 53.2753C93.2741 53.7117 93.6868 54.1106 94.1344 54.4665C94.2993 54.5944 95.0464 54.9685 95.1046 55.1556C95.1416 55.892 95.063 56.6297 94.8718 57.341L93.9694 65.6595C93.9896 66.3227 93.9177 66.9855 93.756 67.6283C93.5814 67.9631 92.7858 68.2387 92.4074 68.4454L90.4184 69.6858C89.17 70.4734 87.9217 71.2543 86.6733 72.0288C85.4702 72.7966 84.2768 73.5743 83.1029 74.3914C82.5789 74.7589 82.0647 75.133 81.5602 75.5137C81.3083 75.7698 81.0037 75.9662 80.6683 76.0887C80.3328 76.2113 79.9747 76.2569 79.6197 76.2225C76.6817 76.1517 73.7423 76.2733 70.8197 76.5867C65.629 77.1577 59.5359 78.2701 55.5871 82.0503C53.734 83.8321 52.463 86.3424 51.1629 88.5476C49.6958 90.9454 48.4518 93.4764 47.4469 96.108C46.6056 98.8353 46.1803 101.677 46.1856 104.535C46.0527 107.489 46.111 110.448 46.3602 113.395C46.5974 114.737 46.6268 116.109 46.4475 117.46C46.1079 118.937 45.7975 120.414 45.4773 121.9C44.9146 124.735 44.4198 127.59 43.9929 130.445C43.1055 136.318 42.5548 142.237 42.3435 148.175C42.2464 150.951 42.0039 153.412 40.403 155.755C39.4697 157.093 38.6733 158.525 38.0259 160.027C33.9844 169.019 31.4309 178.624 30.4678 188.458C30.0339 193.951 29.0588 199.386 27.5571 204.681C27.1787 205.961 26.7518 207.231 26.2861 208.481C26.0339 209.17 25.7622 209.849 25.4808 210.519C25.2869 211.22 24.9821 211.885 24.5785 212.488C24.1128 212.941 22.2306 212.695 21.4447 212.872C20.1687 213.175 18.9755 213.764 17.9518 214.594C13.6731 217.981 10.8983 223.002 7.06586 226.851C6.22748 227.685 5.31843 228.442 4.34921 229.115C3.53422 229.686 2.56399 230.345 2.56399 231.477C2.50577 233.348 4.50445 233.83 5.92099 233.722C7.68788 233.595 9.40473 233.071 10.9468 232.186C11.8494 231.592 12.677 230.888 13.4112 230.089C14.0224 229.479 14.8471 228.386 15.73 228.121C15.1355 230.093 14.2977 231.982 13.2365 233.742C12.0852 235.986 10.8821 238.208 9.62727 240.406C8.65704 242.129 6.49342 244.61 7.39574 246.697C9.02573 250.487 12.6059 245.712 13.7313 244.177C14.7016 242.858 15.536 241.46 16.4577 240.111C17.1949 238.819 18.128 237.653 19.2229 236.656C19.1121 237.927 18.8145 239.175 18.3399 240.357C17.8742 241.794 17.3697 243.212 16.8458 244.63C16.0211 246.864 14.3523 249.955 14.9635 252.397C15.0236 252.735 15.1608 253.055 15.3643 253.33C15.5678 253.605 15.8318 253.828 16.1354 253.981C16.439 254.134 16.7736 254.213 17.1126 254.211C17.4516 254.21 17.7855 254.128 18.0877 253.972C19.4848 253.174 20.1834 251.215 20.7849 249.808C22.2209 246.461 23.2396 242.917 24.6658 239.609C24.8114 242.562 24.2292 245.516 24.1225 248.469C24.074 249.916 23.9382 252.101 25.0442 253.243C25.2855 253.465 25.575 253.626 25.8891 253.712C26.2032 253.799 26.533 253.809 26.8517 253.742C27.1704 253.675 27.469 253.532 27.7231 253.326C27.9772 253.119 28.1796 252.855 28.3139 252.554C29.2841 250.743 29.1289 248.173 29.2841 246.155C29.4297 244.6 29.5655 243.045 29.779 241.499C29.8663 240.839 29.9051 238.821 30.594 238.447C31.3507 239.176 30.7492 241.863 30.6619 242.779C30.4196 244.504 30.3805 246.252 30.5454 247.986C30.7686 249.552 32.0881 251.55 33.7666 250.142C34.8533 249.227 35.1346 247.415 35.2899 246.086C35.4742 244.57 35.4451 243.035 35.5809 241.509C35.7653 239.373 36.0273 237.246 36.2213 235.12C36.3642 234.152 36.6453 233.21 37.0557 232.324C37.6766 230.641 38.2588 228.938 38.7439 227.215C39.3032 225.479 39.6295 223.674 39.7141 221.85C39.719 221.287 39.6604 220.725 39.5395 220.176C39.3498 219.784 39.194 219.375 39.0738 218.955C39.2697 218.07 39.5969 217.221 40.044 216.435C41.7807 212.212 43.7309 208.077 45.749 203.992C50.5419 194.325 55.8297 184.874 59.109 174.518C60.8458 169.005 61.5734 163.315 62.99 157.783C64.3379 152.729 65.9574 147.753 67.8411 142.878L69.9077 150.971C70.6025 153.062 71.1377 155.204 71.5086 157.379C71.7317 159.791 71.5086 162.351 71.5086 164.762C71.5086 168.592 71.5086 172.421 71.4407 176.241C71.3049 178.414 71.3049 180.594 71.4407 182.768C71.6552 183.655 71.9542 184.519 72.3333 185.347C72.8766 186.991 71.8967 189.511 71.5862 191.254C70.8974 195.044 70.2667 198.853 69.7234 202.673C67.5404 218.089 68.4718 233.929 69.4808 249.414C70.4461 264.828 72.9194 280.106 76.8643 295.023C78.5816 301.481 80.4929 307.879 80.6385 314.613C80.7743 320.332 79.4936 325.934 78.1741 331.447C76.3015 339.047 75.3895 346.509 76.3015 354.325C77.1844 361.817 79.3384 369.091 81.4923 376.278C83.5427 383.129 85.6061 389.975 87.6824 396.813C89.2929 402.149 90.9617 407.465 92.3201 412.869C92.7664 414.631 93.5328 416.886 93.203 418.677C92.6499 421.749 90.6416 424.958 89.0698 427.587C87.498 430.215 85.7516 432.863 83.2484 434.576C82.3623 435.029 81.6219 435.729 81.1139 436.594C80.4444 438.15 81.6766 439.41 82.9864 440.03C84.2648 440.487 85.5841 440.817 86.9256 441.014C88.8732 441.499 90.8553 441.828 92.8537 441.999C93.6635 442.069 94.477 442.086 95.289 442.048C96.0943 441.999 96.8995 441.605 97.666 441.556C97.7432 441.557 97.8197 441.541 97.8892 441.506C97.9615 441.624 98.0573 441.724 98.1705 441.802C98.4907 442.068 98.6751 442.461 99.034 442.727C99.7975 443.224 100.652 443.559 101.547 443.712C104.826 444.45 107.766 443.495 109.027 440.148C109.366 441.24 110.033 442.198 110.933 442.888C111.834 443.578 112.925 443.966 114.053 443.997C115.994 444.046 119.176 443.495 119.943 441.339C122.756 442.806 126.676 441.92 129.645 441.339C131.12 441.034 132.662 440.817 134.098 440.404C135.321 440.049 136.825 439.272 137.096 437.874C137.523 435.659 134.186 434.33 132.944 433.03C130.621 430.496 128.697 427.614 127.239 424.486C126.045 422.133 124.522 419.563 124.891 416.837C125.279 414.456 125.823 412.105 126.521 409.798C127.772 405.23 129.179 400.702 130.547 396.173C132.611 389.368 134.661 382.565 136.698 375.766C138.823 368.648 140.929 361.462 141.773 354.039C142.5 346.616 141.908 339.121 140.026 331.909C138.658 326.239 137.319 320.51 137.445 314.642C137.591 308.234 139.386 302.14 140.987 295.997C142.966 288.807 144.585 281.519 145.838 274.163C147.041 266.789 147.778 259.396 148.448 251.954C149.108 244.305 149.418 236.597 149.535 228.928C149.67 221.495 149.845 214.112 148.817 206.729C148.312 203.086 147.672 199.464 146.983 195.9C146.614 193.997 146.229 192.1 145.828 190.21C145.644 189.354 145.46 188.487 145.266 187.631C145.023 186.694 145.004 185.712 145.207 184.766C145.683 182 145.392 179.007 145.372 176.202C145.333 170.498 145.291 164.799 145.246 159.102C145.281 157.421 145.589 155.758 146.158 154.18L149.069 144.011L149.699 141.884C151.232 145.874 152.623 149.914 153.872 154.003C155.395 159.003 156.113 164.132 157.355 169.202C159.935 179.824 164.796 189.718 169.812 199.346C172.173 203.874 174.395 208.468 176.478 213.128C177.419 214.869 178.183 216.703 178.758 218.601C178.913 219.339 178.467 220.009 178.36 220.816C178.239 221.869 178.278 222.935 178.477 223.976C179.139 227.328 180.134 230.603 181.445 233.752C181.807 235.093 182 236.476 182.018 237.866C182.231 239.894 182.493 241.942 182.561 243.98C182.515 245.606 182.761 247.228 183.289 248.764C183.968 250.457 186.035 251.619 187.063 249.414C187.849 247.75 187.558 245.358 187.383 243.557C187.286 242.641 187.189 241.725 187.141 240.8C187.141 240.278 186.888 238.979 187.296 238.536C188.014 238.851 188.092 240.918 188.179 241.558C188.402 243.094 188.538 244.639 188.683 246.185C188.868 248.213 188.683 250.792 189.654 252.613C189.783 252.899 189.974 253.152 190.212 253.354C190.45 253.555 190.73 253.7 191.03 253.778C191.331 253.855 191.645 253.863 191.949 253.801C192.253 253.74 192.539 253.609 192.787 253.421C194 252.387 193.894 250.182 193.855 248.754C193.777 245.712 193.156 242.68 193.311 239.638C194.728 242.986 195.747 246.529 197.192 249.837C197.794 251.255 198.531 253.371 200.016 254.08C200.332 254.206 200.673 254.256 201.012 254.227C201.351 254.198 201.679 254.091 201.971 253.913C202.262 253.735 202.51 253.492 202.694 253.202C202.878 252.911 202.994 252.582 203.033 252.239C203.518 249.739 201.888 246.717 201.044 244.413C200.2 242.109 198.735 239.186 198.745 236.646C200.782 238.162 202.14 241.056 203.538 243.153C204.653 244.836 207.351 249.493 209.825 247.632C212.105 245.929 209.737 242.789 208.709 241.036C207.506 238.969 206.361 236.862 205.255 234.746C204.149 232.629 202.742 230.444 202.238 228.16C203.829 228.554 205.1 230.847 206.41 231.783C207.806 232.729 209.394 233.345 211.057 233.584C212.25 233.781 213.647 233.968 214.637 233.102C216.209 231.753 215.093 230.001 213.696 229.125ZM111.327 327.962C111.104 331.801 110.483 335.601 110.172 339.431C109.726 344.953 109.774 350.505 109.561 356.048C109.425 359.483 109.425 362.939 109.561 366.365C109.716 370.233 110.192 374.073 110.376 377.932C110.784 386.703 109.842 395.504 109.008 404.226C108.242 396.272 107.407 388.268 107.553 380.265C107.621 376.327 108.115 372.389 108.329 368.452C108.542 364.514 108.61 360.33 108.445 356.264C108.183 349.757 108.29 343.25 107.669 336.763C107.456 334.479 107.145 332.215 106.883 329.95C106.502 327.714 106.479 325.431 106.815 323.187C107.281 321.061 108.164 319.102 108.445 316.907C108.702 314.634 108.702 312.338 108.445 310.065C107.912 304.887 108.503 299.896 109.008 294.737C109.425 298.675 110.182 302.77 109.92 306.747C109.677 310.478 108.814 313.973 109.464 317.743C109.733 319.253 110.173 320.726 110.774 322.134C111.4 324.007 111.589 326.002 111.327 327.962Z" fill="#076EB0"/>
<path d="M152.939 122.57C152.929 126.458 152.983 131.302 150.247 134.54H152.41C152.709 134.026 152.964 133.486 153.172 132.926C154.685 129.116 154.647 124.401 154.142 120.404C153.889 118.4 153.94 116.381 153.334 114.455C152.928 113.414 153.058 111.535 153.125 110.417C153.218 109.097 153.843 97.5458 148.546 78.4701L146.609 78.2679C151.531 90.5516 152.129 108.739 151.775 112.204C151.775 113.168 151.799 113.943 152.082 114.864C152.565 117.341 152.931 120.045 152.939 122.57Z" fill="white"/>
<path d="M91.7703 224.333C92.8137 224.576 93.7424 225.659 93.8089 226.101L93.159 220.956C93.1481 221.125 93.2072 221.931 92.9796 222.361C91.3802 224.229 78.3365 216.186 74.8314 213.13C72.0273 210.685 71.3648 207.199 71.6325 205.477C71.4851 206.425 70.801 208.427 70.801 209.683C70.801 210.94 70.801 210.638 71.5835 211.678C78.785 219.865 90.4661 224.03 91.7703 224.333Z" fill="white"/>
<path d="M126.203 224.333C125.159 224.576 124.231 225.659 124.164 226.101L124.814 220.956C124.825 221.125 124.766 221.931 124.994 222.361C126.593 224.229 139.637 216.186 143.142 213.13C145.946 210.685 146.608 207.199 146.341 205.477C146.488 206.425 147.172 208.427 147.172 209.683C147.172 210.94 147.172 210.638 146.39 211.678C139.188 219.865 127.507 224.03 126.203 224.333Z" fill="white"/>
<path d="M108.218 183.28C108.121 182.748 108.033 181.606 108.829 181.37C107.558 180.553 106.889 182.728 106.966 183.713C107.257 186.26 110.714 185.467 109.686 183.247C109.732 183.415 108.561 185.159 108.218 183.28Z" fill="white"/>
<path d="M19.4162 226.713C24.4515 227.333 29.1181 222.903 30.0883 218.138C29.8166 218.493 29.5547 218.857 29.3024 219.231C27.1583 222.795 23.1902 225.364 19.4162 226.713Z" fill="white"/>
<path fill-rule="evenodd" clip-rule="evenodd" d="M194.574 224.803L194.438 224.724C191.904 222.938 189.702 220.708 187.938 218.138C188.908 222.874 193.536 227.363 198.61 226.713C197.263 226.222 195.964 225.606 194.73 224.872L194.574 224.803ZM194.409 224.724L194.662 224.872L194.545 224.803L194.409 224.724Z" fill="white"/>
<path d="M98.2344 323C96.4966 323.797 94.5495 323.994 92.6908 323.562C90.832 323.13 89.1637 322.093 87.9407 320.608C86.8649 319.244 86.1556 317.62 85.8819 315.895C85.6082 314.17 85.7793 312.402 86.3787 310.764C83.5749 314.879 85.1369 320.825 89.1243 323.561C93.1118 326.298 99.1755 325.127 101.494 320.608C100.571 321.65 99.4487 322.491 98.1956 323.079C98.312 323 98.4549 322.92 98.5378 322.873C98.5803 322.849 98.6064 322.833 98.6064 322.833C98.6052 322.831 98.5251 322.867 98.3093 322.967L98.3068 322.968C98.2785 322.981 98.248 322.995 98.215 323.01L98.2344 323Z" fill="white"/>
<path d="M116.508 320.603C118.876 325.043 124.804 326.183 128.844 323.473C132.909 320.746 134.393 314.839 131.59 310.675C132.401 312.805 132.458 315.155 131.75 317.323C131.042 319.49 129.613 321.341 127.709 322.557C125.888 323.585 123.773 323.944 121.722 323.575C119.702 323.211 117.864 322.163 116.508 320.603Z" fill="white"/>
<path fill-rule="evenodd" clip-rule="evenodd" d="M213.658 229.125C210.601 227.212 208.282 224.192 206.009 221.232C204.913 219.806 203.827 218.393 202.675 217.124C200.978 215.254 199.095 213.452 196.573 212.882C196.275 212.814 195.82 212.808 195.343 212.801C194.562 212.79 193.725 212.779 193.429 212.498C193.08 211.957 192.811 211.366 192.634 210.745C192.314 209.997 192.013 209.239 191.732 208.481C189.75 203.012 188.446 197.315 187.851 191.519C187.734 190.467 187.635 189.415 187.536 188.365C187.305 185.927 187.076 183.496 186.628 181.074C185.494 175.111 183.784 169.275 181.525 163.65C181.316 163.124 181.11 162.57 180.901 162.006C180.229 160.194 179.517 158.272 178.489 156.808C177.399 155.437 176.564 153.875 176.024 152.201C175.538 150.365 175.524 148.344 175.51 146.351C175.504 145.362 175.497 144.38 175.432 143.43C175.219 140.45 174.921 137.477 174.54 134.511C173.823 128.767 172.823 123.063 171.542 117.421C171.363 116.069 171.392 114.698 171.629 113.355C171.755 111.829 171.833 110.294 171.862 108.758C171.925 105.798 171.776 102.836 171.416 99.8981C170.775 94.8817 167.97 90.3505 165.334 86.0908C165.135 85.7695 164.937 85.4498 164.741 85.1316C161.685 80.2094 156.737 78.2405 151.294 77.1872C148.428 76.6427 145.525 76.3136 142.611 76.2028C142.138 76.2028 141.667 76.1962 141.196 76.1896C140.255 76.1765 139.315 76.1634 138.371 76.2028C138.053 76.2498 137.729 76.2229 137.423 76.124C137.117 76.025 136.838 75.8567 136.605 75.6318C136.043 75.1986 135.461 74.7852 134.869 74.3717C132.492 72.7179 130.018 71.1822 127.554 69.6661L125.545 68.4553C125.442 68.3907 125.29 68.3193 125.124 68.2415C124.758 68.0705 124.326 67.8683 124.206 67.6382C124.155 67.4191 124.132 67.194 124.138 66.9688L123.294 59.1524C123.231 58.5863 123.171 58.0203 123.11 57.4542C123.049 56.8882 122.989 56.3221 122.926 55.7561C122.87 55.5479 122.85 55.3313 122.868 55.1162C122.907 55.0163 123.111 54.9028 123.289 54.8033C123.375 54.7558 123.455 54.7114 123.508 54.6732C124.085 54.2694 124.608 53.7894 125.06 53.2458C126.059 51.7983 126.785 50.1764 127.204 48.4614C127.99 46.1382 128.689 43.7854 129.319 41.4129C132.016 31.1846 133.346 18.574 127.515 9.10377C124.914 4.91661 120.813 1.91685 116.076 0.73608C112.719 0.0214995 109.275 -0.174316 105.86 0.155264C101.106 0.785301 96.2261 2.48837 92.8596 6.06187C89.2214 9.88147 87.5332 15.0596 86.8347 20.2377C85.4376 30.5054 88.0086 40.6549 91.3946 50.322C91.7203 51.3887 92.2294 52.3885 92.8984 53.2753C93.2703 53.7117 93.6829 54.1106 94.1305 54.4665C94.1814 54.5059 94.2877 54.5688 94.412 54.6424C94.6908 54.8074 95.0604 55.0262 95.1007 55.1556C95.1377 55.892 95.0591 56.6296 94.8679 57.341L93.9656 65.6595C93.9857 66.3227 93.9139 66.9855 93.7521 67.6283C93.6235 67.875 93.1577 68.0895 92.7701 68.2681C92.6316 68.3318 92.5032 68.391 92.4036 68.4454L90.4147 69.6858C89.1664 70.4734 87.9181 71.2543 86.6698 72.0288C85.4667 72.7966 84.2734 73.5743 83.0995 74.3914C82.5756 74.7589 82.0614 75.133 81.5569 75.5137C81.305 75.7698 81.0004 75.9662 80.665 76.0887C80.3295 76.2112 79.9714 76.2569 79.6165 76.2225C76.6786 76.1517 73.7393 76.2733 70.8168 76.5867C65.6263 77.1577 59.5335 78.2701 55.5849 82.0503C54.046 83.53 52.9086 85.512 51.8226 87.4045C51.6009 87.7909 51.3813 88.1736 51.1608 88.5476C49.6938 90.9454 48.4499 93.4764 47.445 96.108C46.6038 98.8353 46.1784 101.677 46.1837 104.535C46.0509 107.489 46.1092 110.448 46.3584 113.395C46.5955 114.737 46.625 116.109 46.4457 117.46C46.1764 118.631 45.9254 119.803 45.6733 120.979C45.6076 121.285 45.5417 121.593 45.4755 121.9C44.9128 124.735 44.418 127.59 43.9911 130.445C43.1038 136.318 42.5531 142.237 42.3418 148.175C42.2448 150.951 42.0022 153.412 40.4014 155.755C39.4682 157.093 38.6717 158.525 38.0244 160.027C33.9831 169.018 31.4296 178.624 30.4667 188.458C30.0327 193.951 29.0576 199.386 27.5561 204.681C27.1777 205.961 26.7508 207.231 26.2851 208.481C26.0329 209.17 25.7612 209.849 25.4799 210.519C25.2859 211.22 24.9812 211.885 24.5776 212.488C24.2884 212.769 23.4529 212.781 22.673 212.792C22.197 212.798 21.7417 212.805 21.4439 212.872C20.168 213.175 18.9748 213.764 17.9512 214.594C15.4484 216.575 13.4602 219.116 11.4738 221.653C10.0645 223.454 8.65617 225.253 7.06567 226.851C6.22733 227.685 5.31831 228.442 4.34914 229.115L4.3071 229.144C3.5012 229.709 2.56399 230.365 2.56399 231.477C2.50578 233.348 4.50437 233.83 5.92084 233.722C7.68766 233.595 9.40444 233.071 10.9464 232.186C11.849 231.592 12.6766 230.888 13.4107 230.089C13.5448 229.956 13.6891 229.799 13.842 229.632C14.3864 229.04 15.0402 228.328 15.7295 228.121C15.135 230.093 14.2972 231.982 13.2361 233.742C12.0848 235.986 10.8818 238.208 9.62697 240.406C9.43262 240.751 9.19039 241.127 8.9345 241.524C7.91301 243.107 6.674 245.028 7.39553 246.697C9.02545 250.487 12.6055 245.712 13.7309 244.177C14.3232 243.371 14.8649 242.537 15.4067 241.702C15.7524 241.169 16.0981 240.636 16.4571 240.111C17.1943 238.819 18.1274 237.653 19.2221 236.656C19.1128 237.928 18.8118 239.177 18.3296 240.357C17.8736 241.794 17.3594 243.212 16.8452 244.63C16.6834 245.068 16.4891 245.539 16.286 246.032C15.4535 248.052 14.4717 250.434 14.963 252.397C15.023 252.735 15.1603 253.055 15.3637 253.33C15.5672 253.605 15.8313 253.828 16.1348 253.981C16.4384 254.134 16.773 254.213 17.112 254.211C17.451 254.21 17.7849 254.128 18.087 253.972C19.3427 253.255 20.0341 251.6 20.5979 250.25C20.6614 250.098 20.7233 249.95 20.7842 249.808C21.4989 248.142 22.1103 246.427 22.72 244.716C23.3352 242.991 23.9487 241.27 24.6649 239.609C24.7529 241.395 24.5748 243.181 24.3966 244.968C24.2802 246.135 24.1638 247.302 24.1216 248.469L24.1141 248.683C24.0629 250.124 23.9906 252.156 25.0433 253.243C25.2846 253.465 25.574 253.626 25.8881 253.712C26.2022 253.799 26.532 253.809 26.8507 253.742C27.1694 253.675 27.4679 253.532 27.722 253.326C27.9761 253.119 28.1785 252.855 28.3128 252.554C29.0662 251.148 29.141 249.284 29.2094 247.576C29.2292 247.085 29.2483 246.606 29.283 246.155L29.3308 245.642C29.4594 244.258 29.5879 242.875 29.7778 241.499C29.7931 241.384 29.8068 241.227 29.8228 241.046C29.8985 240.185 30.0241 238.756 30.5928 238.447C31.2051 239.037 30.9282 240.909 30.7539 242.087C30.7128 242.365 30.6774 242.604 30.6607 242.779C30.4184 244.504 30.3793 246.252 30.5443 247.986C30.7674 249.552 32.0869 251.55 33.7653 250.142C34.8519 249.227 35.1333 247.415 35.2885 246.086C35.3925 245.231 35.4286 244.369 35.4647 243.506C35.4925 242.84 35.5204 242.173 35.5796 241.509C35.6785 240.362 35.7998 239.219 35.9209 238.077C36.0255 237.09 36.13 236.105 36.2199 235.12C36.3627 234.152 36.6438 233.21 37.0542 232.324C37.6752 230.641 38.2573 228.938 38.7424 227.215C39.3016 225.479 39.6279 223.674 39.7126 221.85C39.7174 221.287 39.6588 220.725 39.5379 220.176C39.3483 219.784 39.1924 219.375 39.0722 218.955C39.2682 218.07 39.5953 217.221 40.0424 216.435C41.7791 212.212 43.7291 208.077 45.7471 203.992C46.6904 202.09 47.6527 200.195 48.6152 198.301C52.5433 190.57 56.4728 182.836 59.1067 174.518C60.1344 171.256 60.8087 167.931 61.4816 164.614C61.9458 162.326 62.4092 160.041 62.9874 157.783C64.3353 152.729 65.9547 147.753 67.8384 142.878L69.9049 150.97C70.5996 153.062 71.1348 155.204 71.5057 157.379C71.6549 158.992 71.6045 160.672 71.5548 162.329C71.5301 163.149 71.5057 163.964 71.5057 164.762V164.764C71.5057 168.593 71.5057 172.422 71.4378 176.241C71.302 178.414 71.302 180.594 71.4378 182.768C71.6523 183.655 71.9512 184.519 72.3304 185.347C72.7287 186.552 72.3082 188.229 71.9332 189.724C71.7966 190.268 71.6661 190.789 71.5833 191.254C70.8945 195.044 70.2638 198.853 69.7205 202.673C67.5376 218.089 68.469 233.929 69.478 249.414C70.4432 264.828 72.9165 280.106 76.8611 295.023C77.0348 295.676 77.2104 296.328 77.386 296.98L77.3886 296.99C78.9486 302.785 80.5044 308.564 80.6352 314.613C80.771 320.332 79.4903 325.934 78.1709 331.447C76.2984 339.047 75.3864 346.509 76.2984 354.325C77.1813 361.817 79.3351 369.091 81.4889 376.278C83.5393 383.129 85.6026 389.975 87.6788 396.813C87.9362 397.666 88.1952 398.519 88.4541 399.371C89.8149 403.851 91.1751 408.329 92.3163 412.869C92.3883 413.154 92.4688 413.451 92.5516 413.757C92.9815 415.347 93.4757 417.175 93.1991 418.677C92.6795 421.564 90.8748 424.571 89.3549 427.105C89.2573 427.267 89.1609 427.428 89.0661 427.587C87.4944 430.215 85.7481 432.863 83.245 434.576C82.3567 435.026 81.6155 435.727 81.1106 436.594C80.4411 438.15 81.6733 439.41 82.983 440.03C84.2614 440.487 85.5806 440.817 86.922 441.014C88.8696 441.499 90.8516 441.828 92.8499 441.999C93.6597 442.069 94.4731 442.086 95.285 442.048C95.6941 442.023 96.1031 441.909 96.5071 441.796C96.8984 441.687 97.2849 441.58 97.662 441.556C97.7392 441.557 97.8157 441.541 97.8851 441.506C97.9574 441.624 98.0533 441.724 98.1665 441.802C98.3145 441.925 98.4334 442.075 98.554 442.227C98.6944 442.404 98.8369 442.584 99.03 442.727C99.7934 443.224 100.648 443.559 101.543 443.712C104.822 444.45 107.762 443.495 109.023 440.148C109.362 441.24 110.028 442.198 110.929 442.888C111.83 443.578 112.92 443.966 114.049 443.997C115.989 444.046 119.171 443.495 119.938 441.339C122.605 442.729 126.266 442.006 129.168 441.432L129.192 441.427L129.239 441.418L129.268 441.412L129.319 441.402C129.427 441.381 129.534 441.36 129.639 441.339C130.109 441.242 130.585 441.154 131.063 441.065C132.086 440.876 133.114 440.686 134.093 440.404C135.315 440.049 136.819 439.272 137.091 437.874C137.393 436.302 135.801 435.177 134.407 434.191C133.836 433.788 133.299 433.408 132.938 433.03C130.616 430.496 128.691 427.614 127.233 424.486C127.115 424.251 126.993 424.015 126.87 423.777C125.756 421.62 124.554 419.292 124.886 416.837C125.274 414.456 125.818 412.105 126.515 409.798C127.531 406.091 128.649 402.409 129.766 398.733C130.025 397.88 130.284 397.026 130.542 396.173C132.605 389.368 134.655 382.565 136.693 375.766C138.817 368.648 140.923 361.462 141.767 354.039C142.494 346.616 141.902 339.121 140.02 331.909C138.653 326.239 137.314 320.51 137.44 314.642C137.57 308.918 139.016 303.445 140.464 297.963C140.637 297.308 140.81 296.653 140.981 295.997C142.96 288.807 144.579 281.519 145.832 274.163C147.035 266.789 147.772 259.396 148.442 251.954C149.101 244.305 149.412 236.597 149.528 228.928L149.541 228.216C149.674 221.024 149.806 213.876 148.81 206.729C148.306 203.086 147.666 199.464 146.977 195.9C146.608 193.997 146.223 192.1 145.822 190.21L145.738 189.816L145.737 189.812C145.581 189.086 145.424 188.355 145.26 187.631C145.017 186.694 144.998 185.712 145.201 184.766C145.553 182.717 145.485 180.544 145.418 178.414C145.395 177.669 145.371 176.929 145.366 176.202C145.327 170.498 145.285 164.799 145.24 159.102C145.275 157.421 145.583 155.758 146.152 154.18L149.063 144.011L149.693 141.884C151.226 145.874 152.617 149.914 153.865 154.003C154.791 157.043 155.42 160.131 156.049 163.224C156.455 165.219 156.861 167.215 157.348 169.202C159.929 179.824 164.789 189.718 169.805 199.346C172.166 203.874 174.388 208.468 176.471 213.128C177.412 214.869 178.176 216.703 178.75 218.601C178.847 219.059 178.712 219.489 178.57 219.943C178.483 220.222 178.393 220.509 178.353 220.816C178.231 221.869 178.271 222.935 178.469 223.976C179.132 227.328 180.127 230.603 181.438 233.752C181.8 235.093 181.992 236.476 182.01 237.866C182.051 238.257 182.094 238.647 182.137 239.039L182.138 239.047C182.318 240.687 182.499 242.337 182.554 243.98C182.507 245.606 182.754 247.228 183.281 248.764C183.96 250.457 186.027 251.619 187.055 249.414C187.798 247.841 187.579 245.617 187.405 243.857L187.405 243.856L187.405 243.854L187.404 243.85L187.388 243.684L187.375 243.556C187.278 242.641 187.181 241.725 187.133 240.8C187.133 240.675 187.118 240.504 187.102 240.311C187.05 239.703 186.979 238.872 187.288 238.536C187.893 238.801 188.044 240.313 188.128 241.164C188.144 241.322 188.157 241.458 188.171 241.558C188.372 242.942 188.502 244.334 188.633 245.726L188.676 246.185C188.721 246.689 188.744 247.226 188.768 247.778C188.84 249.447 188.917 251.244 189.646 252.613C189.775 252.899 189.966 253.152 190.204 253.354C190.442 253.555 190.722 253.7 191.022 253.778C191.323 253.855 191.637 253.863 191.941 253.801C192.245 253.74 192.531 253.609 192.779 253.421C193.95 252.423 193.891 250.332 193.851 248.905L193.847 248.754C193.815 247.501 193.691 246.25 193.566 244.999C193.389 243.213 193.212 241.427 193.303 239.638C193.98 241.238 194.567 242.883 195.152 244.525C195.791 246.319 196.429 248.11 197.184 249.837C197.252 249.994 197.321 250.159 197.392 250.331C197.968 251.706 198.697 253.45 200.017 254.08C200.334 254.206 200.675 254.256 201.014 254.227C201.353 254.198 201.681 254.091 201.972 253.913C202.264 253.735 202.511 253.492 202.695 253.202C202.879 252.911 202.995 252.582 203.034 252.239C203.42 250.252 202.47 247.935 201.64 245.912C201.425 245.389 201.219 244.886 201.045 244.413C200.86 243.907 200.645 243.371 200.422 242.816C199.629 240.843 198.739 238.628 198.746 236.646C200.262 237.774 201.402 239.665 202.462 241.422C202.826 242.027 203.181 242.616 203.539 243.153C203.582 243.218 203.627 243.287 203.675 243.36C203.724 243.436 203.777 243.517 203.831 243.602C205.078 245.53 207.547 249.346 209.826 247.632C211.847 246.122 210.216 243.483 209.103 241.682C208.961 241.452 208.827 241.235 208.71 241.036C207.507 238.969 206.362 236.862 205.256 234.746C205.018 234.289 204.765 233.83 204.511 233.367C203.585 231.682 202.635 229.951 202.239 228.16C203.221 228.403 204.081 229.369 204.903 230.294C205.413 230.867 205.909 231.425 206.411 231.783C207.807 232.729 209.395 233.345 211.058 233.584C212.251 233.781 213.648 233.968 214.638 233.102C216.2 231.753 215.084 230.001 213.687 229.125H213.658ZM91.8215 46.0889C92.2491 47.7981 92.8003 49.4729 93.4708 51.0997C94.5378 53.3233 97.1322 54.7578 99.4099 56.0171C99.8246 56.2464 100.229 56.4699 100.611 56.6913C100.873 56.8426 101.144 57.0023 101.422 57.1665C103.788 58.5622 106.72 60.2912 109.411 60.0974C112.154 59.8999 115.099 58.1055 117.392 56.7084C117.613 56.5737 117.828 56.4427 118.036 56.3172C118.394 56.1016 118.77 55.8853 119.154 55.6641C121.315 54.4209 123.746 53.0224 124.701 50.7158C126.509 46.0778 127.86 41.2702 128.737 36.3627C129.959 30.5802 130.058 24.6115 129.028 18.7906C128.077 13.6518 125.885 8.63124 121.597 5.50074C117.871 2.98732 113.454 1.73946 108.984 1.93709C104.347 2.02569 99.583 3.01012 95.8575 5.96342C91.8215 9.2219 89.7938 14.2425 88.9109 19.2927C87.9698 25.1326 88.1444 31.1016 89.4251 36.8746C90.0654 39.9855 90.8513 43.0569 91.8215 46.0889ZM107.539 380.265C107.402 387.784 108.13 395.303 108.854 402.781C108.901 403.263 108.947 403.744 108.994 404.226H109.004C109.06 403.636 109.117 403.045 109.174 402.455L109.175 402.445C109.96 394.307 110.751 386.104 110.362 377.902C110.274 376.067 110.121 374.235 109.967 372.403C109.798 370.384 109.628 368.364 109.547 366.335C109.411 362.909 109.411 359.454 109.547 356.018C109.621 354.1 109.663 352.181 109.706 350.263C109.786 346.637 109.866 343.013 110.158 339.401C110.294 337.723 110.49 336.05 110.685 334.378C110.936 332.233 111.187 330.089 111.313 327.932C111.57 325.982 111.381 323.998 110.76 322.134C110.159 320.726 109.719 319.253 109.45 317.743C108.992 315.087 109.285 312.568 109.583 310.007C109.708 308.932 109.834 307.85 109.906 306.747C110.104 303.731 109.717 300.647 109.337 297.615C109.215 296.649 109.095 295.689 108.994 294.737C108.976 294.925 108.957 295.112 108.939 295.299L108.867 296.023C108.399 300.728 107.942 305.318 108.431 310.065C108.688 312.338 108.688 314.633 108.431 316.907C108.265 318.202 107.89 319.414 107.514 320.628C107.253 321.471 106.992 322.315 106.801 323.187C106.465 325.431 106.488 327.714 106.869 329.95C106.955 330.692 107.046 331.434 107.137 332.177L107.137 332.178C107.324 333.702 107.512 335.228 107.655 336.763C108.067 341.069 108.159 345.385 108.25 349.703C108.297 351.89 108.343 354.077 108.431 356.264C108.596 360.33 108.528 364.514 108.315 368.452C108.23 370.016 108.101 371.58 107.972 373.145C107.775 375.518 107.579 377.891 107.539 380.265ZM106.772 396.892C106.187 391.452 105.892 385.983 105.889 380.511C105.91 377.691 106.116 374.879 106.322 372.066C106.429 370.61 106.535 369.154 106.616 367.697C106.616 366.984 102.251 367.015 97.5952 367.048L97.5884 367.048C96.2932 367.057 94.9755 367.066 93.7233 367.06C86.5282 367.022 81.1557 367.158 81.5438 367.815C82.3682 370.887 83.284 373.936 84.1937 376.965L84.1948 376.969L84.1976 376.978L84.2013 376.991C84.6646 378.533 85.1263 380.071 85.5734 381.604C86.8735 385.994 88.1736 390.385 89.4542 394.766C89.8652 396.152 90.2886 397.542 90.7131 398.936C92.3527 404.321 94.0098 409.762 95.0425 415.291C95.3595 416.578 95.4254 417.916 95.2365 419.229C94.6654 421.254 93.8405 423.196 92.782 425.007C90.7057 429.024 88.1735 433.503 84.2928 436.043C84.2061 436.099 84.0964 436.163 83.9751 436.234L83.9742 436.234C83.417 436.559 82.6151 437.026 82.6629 437.559C82.7211 438.209 83.992 438.642 84.4577 438.789C84.8027 438.899 85.1477 438.947 85.4926 438.996C85.7686 439.035 86.0445 439.074 86.3205 439.144L86.5838 439.209L86.9836 439.309C88.062 439.58 89.1216 439.845 90.2012 440.049C91.6181 440.335 93.0555 440.503 94.4992 440.552C94.5517 440.552 94.6075 440.553 94.6662 440.555C94.7173 440.556 94.7706 440.558 94.8258 440.56L94.83 440.56C95.7193 440.587 97.0951 440.629 97.7105 439.892C98.0643 439.468 98.1543 438.799 98.2464 438.115C98.3362 437.447 98.4281 436.765 98.768 436.279C98.8757 436.14 99.0182 436.034 99.1805 435.97C99.3428 435.906 99.519 435.888 99.6906 435.917C99.8622 435.947 100.023 436.022 100.156 436.136C100.289 436.25 100.389 436.398 100.446 436.565C99.903 436.508 99.4382 438.494 99.2847 439.149L99.2628 439.242C99.1026 439.649 99.0659 440.095 99.1575 440.523C99.2492 440.951 99.4649 441.342 99.777 441.644C100.667 442.267 101.699 442.65 102.775 442.756C103.851 442.863 104.936 442.691 105.928 442.255C107.781 441.201 108.363 438.632 108.431 436.663C108.483 435.554 108.466 434.445 108.448 433.336C108.44 432.781 108.431 432.227 108.431 431.672V420.026C108.437 419.776 108.444 419.525 108.451 419.273C108.506 417.215 108.561 415.139 108.431 413.086C108.214 409.658 107.815 406.202 107.416 402.746C107.19 400.793 106.965 398.84 106.772 396.892ZM64.8871 110.417L64.894 110.531C64.9623 111.659 65.0707 113.449 64.6784 114.455C64.2632 115.775 64.1563 117.139 64.0486 118.512C63.9993 119.142 63.9498 119.774 63.8703 120.404C63.3658 124.401 63.327 129.116 64.8405 132.926C65.1512 133.765 65.5687 134.559 66.0823 135.288C66.2068 135.46 66.3658 135.622 66.5251 135.785C66.8126 136.077 67.1009 136.371 67.1883 136.726C67.3654 137.66 67.4499 138.61 67.4406 139.561C67.545 140.549 67.3377 141.545 66.8488 142.406C66.3673 143.528 65.8974 144.686 65.4393 145.815L65.4375 145.819L65.2812 146.204C65.2019 146.399 65.1229 146.594 65.0442 146.787C63.507 150.625 62.1885 154.549 61.0956 158.541C60.568 160.47 60.1639 162.448 59.7588 164.431C59.337 166.496 58.9142 168.566 58.3499 170.59C56.0312 178.899 52.4026 186.814 48.5995 194.512C44.665 202.089 41.2294 209.923 38.3155 217.961C38.1286 217.802 37.6615 217.498 37.1922 217.324C36.1879 216.904 35.1773 216.439 34.1585 215.971C31.38 214.694 28.54 213.388 25.5963 212.872C28.5537 206.775 30.5195 200.232 31.4174 193.498C31.6761 191.767 31.8696 190.036 32.0628 188.308C32.3697 185.563 32.6759 182.824 33.2414 180.1C34.6706 173.464 36.8113 167.007 39.6252 160.844C40.1007 159.599 40.7334 158.421 41.5074 157.34C42.4973 156.096 43.2596 154.682 43.7583 153.166C44.1957 152.126 44.4487 151.016 44.5053 149.888C44.5053 148.145 44.5732 146.403 44.6605 144.67C45.0816 137.703 45.9273 130.769 47.1927 123.908C47.4935 122.195 47.8136 120.483 48.1629 118.78C48.486 117.666 48.6011 116.501 48.5025 115.344C48.1031 111.954 47.9604 108.538 48.0756 105.125C48.0246 101.906 48.5506 98.7036 49.6279 95.6749C50.9652 92.5935 52.552 89.6301 54.3721 86.815C55.8089 84.2108 58.0288 82.1411 60.7075 80.9083C63.6656 79.6371 66.2736 78.8307 69.4663 78.4699C64.1695 97.5456 64.7946 109.097 64.8871 110.417ZM38.4125 222.45C38.4998 221.042 38.3155 219.349 36.9378 218.65C33.189 216.749 28.8819 214.709 24.7037 214.102C23.5426 213.92 22.356 214.002 21.23 214.342C20.104 214.683 19.0669 215.273 18.1937 216.071C16.0366 217.956 14.2627 220.217 12.4876 222.479C10.7579 224.684 9.02713 226.89 6.93954 228.751C6.82337 228.854 6.60871 229.012 6.34564 229.206C5.02692 230.177 2.49175 232.045 5.04767 232.373C6.85313 232.428 8.63673 231.961 10.1897 231.025C10.9462 230.594 11.6169 229.869 12.2937 229.136C13.2572 228.094 14.2332 227.038 15.4869 226.801C17.0974 226.486 17.175 227.776 16.8355 228.898C15.8594 231.66 14.6113 234.315 13.11 236.823C12.1107 238.684 11.0823 240.544 10.0053 242.355C9.65608 242.946 7.25 247.051 9.55906 246.628C10.3568 246.486 11.0151 245.573 11.5635 244.813C11.6621 244.676 11.7571 244.544 11.8487 244.423C12.4502 243.625 13.0323 242.818 13.5853 241.972C14.7778 239.975 16.1309 238.081 17.631 236.311C18.1646 235.73 19.0766 234.765 19.9401 235.258C21.4074 236.096 20.06 239.635 19.4595 241.212C19.3691 241.449 19.2957 241.642 19.2513 241.775C19.2051 241.912 19.0845 242.215 18.9167 242.636C17.8501 245.313 14.8802 252.767 17.0683 252.928C18.2284 253.011 19.1918 250.395 19.7202 248.96C19.8237 248.679 19.9106 248.443 19.9789 248.282C20.6255 246.789 21.1644 245.246 21.7024 243.706C21.9555 242.981 22.2084 242.257 22.4723 241.538C22.5173 241.418 22.5763 241.222 22.6494 240.979C23.0488 239.65 23.8706 236.915 25.15 237.473C25.868 237.778 25.9553 238.851 25.9553 239.52C26.0149 241.583 25.9143 243.646 25.6545 245.693C25.509 246.971 25.4313 248.255 25.4217 249.542C25.3359 250.404 25.4661 251.274 25.8 252.072C27.1971 254.169 27.7889 248.548 27.7889 248.065C27.8718 247.104 27.9836 246.146 28.0979 245.168C28.1708 244.543 28.2448 243.91 28.3128 243.261C28.3415 242.988 28.3657 242.697 28.3909 242.395C28.5189 240.856 28.6708 239.03 29.5547 237.837C30.6122 236.409 31.9801 237.542 32.1936 238.979C32.3801 240.257 32.2304 241.556 32.0812 242.85C31.982 243.71 31.8831 244.568 31.8831 245.417C31.8826 245.455 31.8814 245.504 31.88 245.563C31.8581 246.502 31.7784 249.915 33.0474 249.109C33.6787 248.699 33.8742 247.269 33.9847 246.459C33.9965 246.373 34.0073 246.294 34.0175 246.224C34.1489 245.52 34.1633 244.807 34.1778 244.091C34.1857 243.697 34.1937 243.302 34.2213 242.907C34.3292 241.246 34.5076 239.593 34.686 237.941C34.7803 237.066 34.8747 236.192 34.9586 235.317C34.9923 234.547 35.153 233.788 35.434 233.072L35.491 232.927C36.7856 229.629 38.2022 226.021 38.4125 222.45ZM19.4162 226.713C24.4515 227.333 29.1181 222.903 30.0883 218.138C29.8166 218.493 29.5547 218.857 29.3024 219.231C27.1583 222.795 23.1902 225.364 19.4162 226.713ZM209.273 231.724C210.518 232.261 211.873 232.484 213.221 232.373C215.559 231.93 212.552 230.001 212.009 229.656C210.452 228.394 209.031 226.968 207.769 225.404C206.926 224.42 206.117 223.386 205.304 222.348C203.506 220.051 201.692 217.734 199.474 215.904C198.247 214.945 196.787 214.342 195.25 214.159C190.884 213.637 185.093 216.56 181.38 218.532C178.906 219.891 179.585 223.09 180.138 225.423C180.564 227.213 181.184 228.918 181.805 230.625C182.175 231.641 182.544 232.657 182.874 233.692C183.064 234.509 183.172 235.344 183.194 236.183C183.249 236.711 183.306 237.239 183.363 237.768C183.548 239.484 183.733 241.2 183.844 242.917C183.872 243.335 183.887 243.761 183.901 244.19C183.95 245.657 183.999 247.153 184.63 248.479C185.571 250.457 186.172 247.996 186.172 247.012C186.2 245.483 186.125 243.953 185.949 242.434C185.944 242.376 185.937 242.315 185.93 242.251C185.926 242.212 185.921 242.171 185.916 242.13L185.899 241.977L185.889 241.899C185.721 240.475 185.451 238.188 186.619 237.384C189.164 235.604 189.691 242.274 189.827 243.998L189.84 244.163C189.843 244.206 189.847 244.243 189.849 244.275C189.972 245.522 190.089 246.772 190.199 248.026C190.202 248.07 190.207 248.138 190.212 248.224C190.281 249.306 190.538 253.366 191.994 252.308C192.875 251.646 192.661 249.307 192.547 248.071C192.531 247.892 192.516 247.737 192.508 247.612C192.453 246.785 192.377 245.961 192.301 245.137L192.301 245.136C192.19 243.93 192.078 242.725 192.032 241.509C192.029 241.428 192.022 241.325 192.014 241.205C191.938 240.047 191.757 237.283 193.216 237.355C194.302 237.395 194.935 239.551 195.304 240.811C195.387 241.093 195.457 241.331 195.515 241.489C195.777 242.206 196.026 242.933 196.274 243.66C196.735 245.007 197.195 246.353 197.737 247.632C198.261 249.27 199.023 250.819 199.998 252.229C201.366 253.854 201.909 251.698 201.686 250.448C201.346 248.952 200.879 247.49 200.289 246.077L200.091 245.543C199.417 243.73 198.74 241.907 198.183 240.052C197.783 238.961 197.538 237.817 197.456 236.656C197.446 234.874 198.814 234.815 199.939 235.858C201.556 237.378 202.768 239.3 203.973 241.21C204.736 242.419 205.495 243.623 206.352 244.718C206.915 245.427 209.603 248.144 209.418 245.427C209.357 244.509 208.79 243.627 208.267 242.814C208.123 242.59 207.982 242.371 207.856 242.159C205.417 238.257 203.291 234.161 201.501 229.912C201.138 229.231 200.939 228.472 200.919 227.697C201.249 225.758 203.636 227.353 204.354 228.002C204.707 228.32 205.042 228.641 205.371 228.957C206.542 230.081 207.644 231.139 209.273 231.724ZM194.574 224.803L194.438 224.724C191.904 222.938 189.702 220.708 187.938 218.138C188.908 222.874 193.536 227.363 198.61 226.713C197.263 226.222 195.964 225.606 194.73 224.872L194.574 224.803ZM160.724 173.908C159.536 169.937 158.558 165.905 157.794 161.829C156.886 157.729 155.683 153.701 154.195 149.779C153.367 147.523 152.428 145.32 151.487 143.112C151.094 142.19 150.7 141.267 150.314 140.339C149.869 138.922 150.159 137.153 151.246 136.155C151.47 135.949 151.697 135.741 151.867 135.515C154.564 131.951 154.651 126.547 154.36 122.264C154.203 119.931 153.803 117.621 153.167 115.373C152.693 114.283 152.41 113.117 152.332 111.928C152.42 110.697 152.497 109.457 152.555 108.217C152.342 109.293 152.138 110.366 151.944 111.436C151.758 112.296 151.791 113.191 152.041 114.035C152.515 116.175 152.81 118.351 152.924 120.542C153.147 124.588 153.079 129.707 150.984 133.339C149.431 135.735 148.895 137.586 148.82 138.212L148.296 141.313V141.215L143.698 155.656C143.611 155.991 143.504 156.32 143.377 156.641C143.199 157.414 143.089 158.201 143.048 158.994C143.048 162.104 143.048 165.225 143.125 168.336C143.125 170.324 143.176 172.309 143.227 174.294C143.28 176.37 143.334 178.445 143.329 180.523V182.364C143.329 183.016 143.196 183.642 143.063 184.263C142.956 184.767 142.849 185.269 142.815 185.78C142.877 187.006 143.103 188.218 143.484 189.383C143.827 191.03 144.15 192.671 144.454 194.305C145.804 200.756 146.696 207.296 147.122 213.876C147.421 220.388 147.126 227.017 146.837 233.522L146.831 233.653C146.807 234.192 146.784 234.73 146.76 235.269L146.76 235.274L146.759 235.28L146.759 235.285L146.759 235.286C146.494 241.288 146.23 247.289 145.696 253.273C144.617 266.531 142.41 279.67 139.099 292.542C138.788 293.719 138.465 294.895 138.142 296.072L138.142 296.073L138.142 296.074L138.141 296.075C136.759 301.111 135.371 306.167 134.908 311.384C134.622 314.973 134.746 318.584 135.276 322.144C135.725 325.131 136.423 328.061 137.12 330.989C137.93 334.391 138.74 337.79 139.157 341.271C139.835 347.662 139.488 354.121 138.129 360.399C136.769 367.297 134.733 374.023 132.702 380.729L132.701 380.734C132.124 382.639 131.548 384.542 130.988 386.447C130.391 388.485 129.784 390.523 129.177 392.562L129.177 392.563L129.177 392.564L129.176 392.566L129.176 392.567L129.176 392.568L129.175 392.569L129.175 392.571L129.174 392.572L129.174 392.573L129.174 392.574L129.173 392.575L129.173 392.577L129.173 392.578C127.858 396.994 126.542 401.412 125.322 405.84L125.184 406.335C124.481 408.85 123.774 411.383 123.246 413.942C122.763 415.568 122.588 417.271 122.732 418.963C123.245 421.006 124.049 422.963 125.118 424.771C126.437 427.406 128 429.908 129.785 432.243C130.566 433.278 131.454 434.225 132.434 435.068C132.782 435.364 133.16 435.605 133.538 435.846C133.941 436.102 134.344 436.358 134.714 436.683C136.586 438.199 133.219 438.809 132.162 438.996C131.219 439.17 130.291 439.394 129.365 439.617C127.202 440.138 125.053 440.656 122.771 440.532C122.17 440.527 121.575 440.428 121.005 440.236C120.209 439.931 120.161 439.754 120.122 438.976C120.116 438.441 120.003 437.912 119.792 437.421C119.574 436.907 119.276 436.431 118.909 436.013C117.761 435.336 118.45 437.326 118.639 437.873L118.663 437.942C118.669 437.958 118.673 437.972 118.676 437.982L118.688 438.025C118.959 439.007 119.338 440.377 118.783 441.221C118.22 442.077 116.61 442.432 115.611 442.589C114.929 442.761 114.218 442.779 113.529 442.641C112.84 442.503 112.19 442.213 111.623 441.792C109.469 439.889 109.569 436.408 109.652 433.492C109.668 432.954 109.683 432.434 109.683 431.948V418.362C109.741 412.389 110.337 406.451 110.933 400.511C111.426 395.595 111.919 390.678 112.108 385.738C112.273 381.451 112.01 377.215 111.746 372.966C111.607 370.727 111.467 368.483 111.39 366.227C111.225 361.669 111.39 357.131 111.604 352.573C111.678 350.887 111.731 349.204 111.784 347.522L111.784 347.521L111.784 347.519L111.784 347.518L111.784 347.516C111.912 343.464 112.039 339.419 112.457 335.365C112.917 332.136 113.17 328.881 113.214 325.619C113.24 324.512 113.122 323.407 112.865 322.331C112.685 321.728 112.446 321.15 112.205 320.571C111.9 319.835 111.594 319.098 111.41 318.305C110.803 315.135 110.803 311.876 111.41 308.706C111.751 305.561 111.689 302.385 111.225 299.256C110.517 292.995 109.983 286.813 109.848 280.552C109.735 275.415 109.753 270.279 109.771 265.143C109.784 261.419 109.797 257.696 109.76 253.972L109.634 244.236L109.576 239.993C109.46 239.22 109.46 238.433 109.576 237.66L108.518 237.473C108.603 237.573 108.565 238.046 108.538 238.385C108.527 238.513 108.518 238.621 108.518 238.684V241.479L108.324 256.384C108.277 260.235 108.303 264.092 108.329 267.948C108.357 272.046 108.384 276.144 108.324 280.236C108.218 285.395 107.927 290.504 107.354 295.633C107.295 296.19 107.233 296.746 107.172 297.303C106.944 299.374 106.716 301.444 106.578 303.509C106.504 306.088 106.604 308.67 106.879 311.236C107.104 313.845 106.917 316.474 106.326 319.023C106.158 319.706 105.952 320.348 105.749 320.98C105.368 322.169 104.998 323.323 104.909 324.654C104.689 327.952 105.106 331.288 105.523 334.624C105.785 336.715 106.047 338.805 106.151 340.887C106.285 343.185 106.324 345.482 106.364 347.78C106.396 349.647 106.428 351.513 106.51 353.38C106.685 357.081 106.821 360.773 106.743 364.474C106.559 365.444 102.486 365.422 98.5558 365.401H98.5519C97.5207 365.395 96.4993 365.39 95.5608 365.402C94.9707 365.41 94.2946 365.423 93.5634 365.437C88.698 365.528 81.3924 365.665 80.7503 364.723C79.5208 359.679 78.6226 354.575 78.4814 349.403C78.3959 343.756 79.0815 338.124 80.5188 332.667C81.78 327.479 83.0121 322.311 83.1868 316.917C83.4436 309.292 81.486 302.062 79.5192 294.798C79.1828 293.555 78.8461 292.312 78.5202 291.065C75.6619 279.959 73.7149 268.633 72.699 257.201C71.6512 245.85 71.1273 234.48 70.9624 223.09C70.794 217.412 71.0047 211.728 71.593 206.079C72.2721 200.3 73.2035 194.561 74.2416 188.842C74.5238 187.88 74.7027 186.889 74.7752 185.888C74.5804 184.812 74.2442 183.767 73.7759 182.783V162.607V158.216C73.7284 157.748 73.6341 157.286 73.4946 156.838C73.0657 155.639 72.7061 154.417 72.4177 153.176L70.6422 146.944C70.4799 146.377 70.3116 145.812 70.1434 145.248L70.1429 145.246C69.7884 144.057 69.4344 142.869 69.1384 141.668C69.0139 141.028 68.9855 140.209 68.9555 139.344C68.8933 137.551 68.8242 135.558 67.8772 134.54C65.1412 131.302 65.083 126.458 65.0733 122.57C65.0809 120.044 65.4478 117.341 65.9307 114.863C66.2137 113.942 66.2376 113.168 66.2376 112.203C65.8835 108.739 66.4818 90.5514 71.4034 78.2677C76.7869 77.6613 82.3356 77.7975 87.7855 77.9376C89.4348 77.98 91.0792 78.0223 92.714 78.0437L82.692 76.6458C84.1405 75.5512 85.6442 74.5312 87.1543 73.5067C87.5456 73.2412 87.9374 72.9755 88.3288 72.708C89.4542 71.9599 90.5893 71.2314 91.7244 70.5029C92.7939 70.0095 93.8032 69.3918 94.732 68.662C95.0541 68.3008 95.0726 68.0372 95.1045 67.5825L95.112 67.4767C95.1145 67.443 95.1172 67.4082 95.1201 67.3724C95.4694 63.5134 95.8122 59.6544 96.1485 55.7955C98.2642 57.2122 100.461 58.5008 102.726 59.6544C104.591 60.7458 106.666 61.4173 108.809 61.6233C111.051 61.6233 113.282 60.6389 115.252 59.6544C117.516 58.4992 119.713 57.2107 121.829 55.7955C122.179 59.6413 122.522 63.4904 122.858 67.3428C122.868 67.4492 122.875 67.5472 122.881 67.6389C122.91 68.0566 122.929 68.3427 123.256 68.6817C124.185 69.4209 125.194 70.0517 126.263 70.562L129.242 72.5308C131.279 73.8697 133.336 75.2282 135.286 76.7048L125.264 78.0929C126.899 78.0713 128.541 78.0296 130.186 77.9879C134.536 77.8776 138.907 77.7668 143.222 78.024C149.169 78.3784 156.523 79.1462 161.054 83.399C162.944 85.1676 164.328 87.7897 165.59 90.1818L165.592 90.1852C165.832 90.6412 166.068 91.0888 166.303 91.5206C167.911 94.1701 169.004 97.1073 169.524 100.174C169.909 103.535 170.022 106.923 169.864 110.304C169.786 112.016 169.65 113.71 169.456 115.403C169.333 116.556 169.428 117.722 169.737 118.839C171.237 125.656 172.323 132.56 172.988 139.512C173.317 142.977 173.502 146.462 173.541 149.947C173.76 152.678 174.792 155.276 176.5 157.399C177.934 159.22 178.88 161.702 179.759 164.005C179.968 164.554 180.173 165.092 180.38 165.609C181.647 168.812 182.745 172.082 183.669 175.404C184.954 180.506 185.836 185.704 186.308 190.948C187.046 198.595 189.126 206.046 192.45 212.95C188.095 213.824 183.551 215.608 179.75 217.932C177.232 210.564 173.847 203.58 170.462 196.598C166.869 189.186 163.277 181.775 160.724 173.908ZM108.218 183.28C108.121 182.748 108.033 181.606 108.829 181.37C107.558 180.553 106.889 182.728 106.966 183.713C107.257 186.26 110.714 185.467 109.686 183.247C109.732 183.415 108.561 185.159 108.218 183.28ZM98.2344 323C96.4966 323.797 94.5495 323.994 92.6908 323.562C90.832 323.13 89.1637 322.093 87.9407 320.608C86.8649 319.244 86.1556 317.62 85.8819 315.895C85.6082 314.17 85.7793 312.402 86.3787 310.764C83.5749 314.879 85.1369 320.825 89.1243 323.561C93.1118 326.298 99.1755 325.127 101.494 320.608C100.571 321.65 99.4487 322.491 98.1956 323.079C98.312 323 98.4549 322.92 98.5378 322.873C98.5803 322.849 98.6064 322.833 98.6064 322.833C98.6052 322.831 98.5251 322.867 98.3093 322.967L98.3068 322.968L98.215 323.01L98.2344 323ZM128.844 323.473C132.909 320.746 134.393 314.839 131.59 310.675C132.401 312.805 132.458 315.155 131.75 317.323C131.042 319.49 129.613 321.341 127.709 322.557C125.888 323.585 123.773 323.944 121.722 323.575C119.702 323.211 117.864 322.163 116.508 320.603C116.493 320.575 116.479 320.547 116.464 320.52L116.445 320.529L116.482 320.573L116.508 320.603C118.876 325.043 124.804 326.183 128.844 323.473Z" fill="white"/>
<path d="M48.6337 120.141C47.9929 119.646 47.7121 120.68 47.6477 121.092C47.6477 120.361 47.8625 114.854 48.4977 116.823C49.0551 120.813 62.3038 124.436 63.1534 123.957C63.638 123.683 63.5736 122.76 63.638 122.404C63.859 122.938 63.981 128.236 63.609 126.809C63.2352 125.375 60.8518 125.532 55.9636 123.957C51.0754 122.382 49.4347 120.759 48.6337 120.141Z" fill="white"/>
<path d="M169.239 120.141C169.879 119.646 170.16 120.68 170.225 121.092C170.225 120.361 170.01 114.854 169.375 116.823C168.817 120.813 155.569 124.436 154.719 123.957C154.234 123.683 154.299 122.76 154.234 122.404C154.013 122.938 153.891 128.236 154.263 126.809C154.637 125.375 157.02 125.532 161.909 123.957C166.797 122.382 168.438 120.759 169.239 120.141Z" fill="white"/>
</svg>
