<svg width="48" height="48" viewBox="0 0 48 48" fill="none" xmlns="http://www.w3.org/2000/svg">
<rect x="0.75" y="0.75" width="46.5" height="46.5" rx="7.25" stroke="#076EB0" stroke-width="1.5"/>
<path d="M25.6409 15.3417C26.0045 15.1434 26.4601 15.2774 26.6584 15.641C26.8568 16.0046 26.7228 16.4602 26.3591 16.6586L23.4412 18.2501H24C27.1383 18.2501 30.0167 18.9424 32.1373 20.0991C34.2296 21.2403 35.75 22.9402 35.75 25.0001C35.75 27.0601 34.2296 28.76 32.1373 29.9012C30.0167 31.0579 27.1383 31.7501 24 31.7501C20.8617 31.7501 17.9833 31.0579 15.8627 29.9012C13.7704 28.76 12.25 27.0601 12.25 25.0001C12.25 24.5859 12.5858 24.2501 13 24.2501C13.4142 24.2501 13.75 24.5859 13.75 25.0001C13.75 26.2539 14.692 27.554 16.581 28.5844C18.4416 29.5992 21.0632 30.2501 24 30.2501C26.9368 30.2501 29.5584 29.5992 31.419 28.5844C33.308 27.554 34.25 26.2539 34.25 25.0001C34.25 23.7464 33.308 22.4463 31.419 21.4159C29.5584 20.401 26.9368 19.7501 24 19.7501H23.0755L26.4027 21.8674C26.7521 22.0898 26.8551 22.5533 26.6327 22.9028C26.4104 23.2523 25.9468 23.3553 25.5973 23.1329L20.0973 19.6329C19.8734 19.4904 19.7415 19.2401 19.7504 18.9749C19.7594 18.7096 19.9078 18.4688 20.1409 18.3417L25.6409 15.3417Z" fill="#076EB0"/>
</svg>
