<svg width="328" height="48" viewBox="0 0 328 48" fill="none" xmlns="http://www.w3.org/2000/svg">
<mask id="path-2-inside-1_275_44027" fill="white">
<path d="M0 12C0 5.37258 5.37258 0 12 0H32.8V48H12C5.37259 48 0 42.6274 0 36V12Z"/>
</mask>
<path d="M0 12C0 5.37258 5.37258 0 12 0H32.8V48H12C5.37259 48 0 42.6274 0 36V12Z" fill="#87C81A"/>
<path d="M0 0H32.8H0ZM32.8 48H0H32.8ZM0 48V0V48ZM33.8 0V48H31.8V0H33.8Z" fill="white" mask="url(#path-2-inside-1_275_44027)"/>
<path d="M18.1532 18.3636V30H16.3919V20.125H16.3237L13.5396 21.9432V20.2614L16.443 18.3636H18.1532Z" fill="white"/>
<rect width="32.8" height="48" transform="translate(32.8008)" fill="#F0F1F4"/>
<path d="M45.562 30V28.9773L49.4029 24.7727C49.8536 24.2803 50.2248 23.8523 50.5165 23.4886C50.8082 23.1212 51.0241 22.7765 51.1642 22.4545C51.3082 22.1288 51.3801 21.7879 51.3801 21.4318C51.3801 21.0227 51.2817 20.6686 51.0847 20.3693C50.8915 20.0701 50.6264 19.839 50.2892 19.6761C49.9521 19.5133 49.5733 19.4318 49.1529 19.4318C48.7059 19.4318 48.3158 19.5246 47.9824 19.7102C47.6529 19.892 47.3972 20.1477 47.2154 20.4773C47.0373 20.8068 46.9483 21.1932 46.9483 21.6364H45.6074C45.6074 20.9545 45.7646 20.3561 46.079 19.8409C46.3934 19.3258 46.8214 18.9242 47.3631 18.6364C47.9086 18.3485 48.5203 18.2045 49.1983 18.2045C49.8801 18.2045 50.4843 18.3485 51.0108 18.6364C51.5373 18.9242 51.9502 19.3125 52.2495 19.8011C52.5487 20.2898 52.6983 20.8333 52.6983 21.4318C52.6983 21.8598 52.6207 22.2784 52.4654 22.6875C52.3139 23.0928 52.0487 23.5455 51.6699 24.0455C51.2949 24.5417 50.7741 25.1477 50.1074 25.8636L47.4938 28.6591V28.75H52.9029V30H45.562Z" fill="#2F2F32"/>
<rect width="32.8" height="48" transform="translate(65.5996)" fill="#F0F1F4"/>
<path d="M82.0426 30.1591C81.2926 30.1591 80.6241 30.0303 80.0369 29.7727C79.4536 29.5152 78.9896 29.1572 78.6449 28.6989C78.304 28.2367 78.1184 27.7008 78.0881 27.0909H79.5199C79.5502 27.4659 79.679 27.7898 79.9062 28.0625C80.1335 28.3314 80.4309 28.5398 80.7983 28.6875C81.1657 28.8352 81.5729 28.9091 82.0199 28.9091C82.5199 28.9091 82.9631 28.822 83.3494 28.6477C83.7358 28.4735 84.0388 28.2311 84.2585 27.9205C84.4782 27.6098 84.5881 27.25 84.5881 26.8409C84.5881 26.4129 84.482 26.036 84.2699 25.7102C84.0578 25.3807 83.7472 25.1231 83.3381 24.9375C82.929 24.7519 82.429 24.6591 81.8381 24.6591H80.9062V23.4091H81.8381C82.3002 23.4091 82.7055 23.3258 83.054 23.1591C83.4063 22.9924 83.6809 22.7576 83.8778 22.4545C84.0786 22.1515 84.179 21.7955 84.179 21.3864C84.179 20.9924 84.0919 20.6496 83.9176 20.358C83.7434 20.0663 83.4972 19.839 83.179 19.6761C82.8646 19.5133 82.4934 19.4318 82.0653 19.4318C81.6638 19.4318 81.285 19.5057 80.929 19.6534C80.5767 19.7973 80.2888 20.0076 80.0653 20.2841C79.8419 20.5568 79.7206 20.8864 79.7017 21.2727H78.3381C78.3608 20.6629 78.5445 20.1288 78.8892 19.6705C79.2339 19.2083 79.6847 18.8485 80.2415 18.5909C80.8021 18.3333 81.4176 18.2045 82.0881 18.2045C82.8078 18.2045 83.4252 18.3504 83.9403 18.642C84.4555 18.9299 84.8513 19.3106 85.1278 19.7841C85.4044 20.2576 85.5426 20.7689 85.5426 21.3182C85.5426 21.9735 85.3703 22.5322 85.0256 22.9943C84.6847 23.4564 84.2206 23.7765 83.6335 23.9545V24.0455C84.3684 24.1667 84.9422 24.4792 85.3551 24.983C85.768 25.483 85.9744 26.1023 85.9744 26.8409C85.9744 27.4735 85.8021 28.0417 85.4574 28.5455C85.1165 29.0455 84.6506 29.4394 84.0597 29.7273C83.4688 30.0152 82.7964 30.1591 82.0426 30.1591Z" fill="#2F2F32"/>
<rect width="32.8" height="48" transform="translate(98.4004)" fill="#F0F1F4"/>
<path d="M110.6 27.6136V26.4545L115.713 18.3636H116.554V20.1591H115.986L112.123 26.2727V26.3636H119.009V27.6136H110.6ZM116.077 30V27.2614V26.7216V18.3636H117.418V30H116.077Z" fill="#2F2F32"/>
<rect width="32.8" height="48" transform="translate(131.199)" fill="#F0F1F4"/>
<path d="M147.573 30.1591C146.907 30.1591 146.306 30.0265 145.772 29.7614C145.238 29.4962 144.81 29.1326 144.488 28.6705C144.166 28.2083 143.99 27.6818 143.96 27.0909H145.323C145.376 27.6174 145.615 28.053 146.039 28.3977C146.467 28.7386 146.979 28.9091 147.573 28.9091C148.051 28.9091 148.475 28.7973 148.846 28.5739C149.221 28.3504 149.515 28.0436 149.727 27.6534C149.943 27.2595 150.051 26.8144 150.051 26.3182C150.051 25.8106 149.939 25.358 149.715 24.9602C149.496 24.5587 149.193 24.2424 148.806 24.0114C148.42 23.7803 147.979 23.6629 147.482 23.6591C147.126 23.6553 146.761 23.7102 146.386 23.8239C146.011 23.9337 145.702 24.0758 145.46 24.25L144.142 24.0909L144.846 18.3636H150.892V19.6136H146.028L145.619 23.0455H145.687C145.926 22.8561 146.225 22.6989 146.585 22.5739C146.945 22.4489 147.32 22.3864 147.71 22.3864C148.422 22.3864 149.056 22.5568 149.613 22.8977C150.174 23.2348 150.613 23.697 150.931 24.2841C151.253 24.8712 151.414 25.5417 151.414 26.2955C151.414 27.0379 151.248 27.7008 150.914 28.2841C150.585 28.8636 150.13 29.322 149.551 29.6591C148.971 29.9924 148.312 30.1591 147.573 30.1591Z" fill="#2F2F32"/>
<rect width="32.8" height="48" transform="translate(164)" fill="#F0F1F4"/>
<path d="M180.476 30.1591C179.999 30.1515 179.522 30.0606 179.045 29.8864C178.567 29.7121 178.132 29.4186 177.738 29.0057C177.344 28.589 177.028 28.0265 176.789 27.3182C176.55 26.6061 176.431 25.7121 176.431 24.6364C176.431 23.6061 176.528 22.6932 176.721 21.8977C176.914 21.0985 177.194 20.4261 177.562 19.8807C177.929 19.3314 178.372 18.9148 178.891 18.6307C179.414 18.3466 180.003 18.2045 180.658 18.2045C181.31 18.2045 181.889 18.3352 182.397 18.5966C182.908 18.8542 183.325 19.214 183.647 19.6761C183.969 20.1383 184.177 20.6705 184.272 21.2727H182.885C182.757 20.75 182.507 20.3163 182.135 19.9716C181.764 19.6269 181.272 19.4545 180.658 19.4545C179.757 19.4545 179.046 19.8466 178.528 20.6307C178.012 21.4148 177.753 22.5152 177.749 23.9318H177.84C178.052 23.6098 178.304 23.3352 178.596 23.108C178.891 22.8769 179.217 22.6989 179.573 22.5739C179.929 22.4489 180.306 22.3864 180.704 22.3864C181.37 22.3864 181.98 22.553 182.533 22.8864C183.086 23.2159 183.529 23.6723 183.863 24.2557C184.196 24.8352 184.363 25.5 184.363 26.25C184.363 26.9697 184.202 27.6288 183.88 28.2273C183.558 28.822 183.105 29.2955 182.522 29.6477C181.942 29.9962 181.26 30.1667 180.476 30.1591ZM180.476 28.9091C180.954 28.9091 181.382 28.7898 181.76 28.5511C182.143 28.3125 182.444 27.9924 182.664 27.5909C182.887 27.1894 182.999 26.7424 182.999 26.25C182.999 25.7689 182.891 25.3314 182.675 24.9375C182.463 24.5398 182.17 24.2235 181.795 23.9886C181.423 23.7538 180.999 23.6364 180.522 23.6364C180.162 23.6364 179.827 23.7083 179.516 23.8523C179.206 23.9924 178.933 24.1856 178.698 24.4318C178.467 24.678 178.285 24.9602 178.153 25.2784C178.02 25.5928 177.954 25.9242 177.954 26.2727C177.954 26.7348 178.062 27.1667 178.278 27.5682C178.497 27.9697 178.796 28.2936 179.175 28.5398C179.558 28.786 179.992 28.9091 180.476 28.9091Z" fill="#2F2F32"/>
<rect width="32.8" height="48" transform="translate(196.801)" fill="#F0F1F4"/>
<path d="M210.199 30L215.404 19.7045V19.6136H209.404V18.3636H216.858V19.6818L211.676 30H210.199Z" fill="#2F2F32"/>
<rect width="32.8" height="48" transform="translate(229.6)" fill="#F0F1F4"/>
<path d="M246.002 30.1591C245.222 30.1591 244.532 30.0208 243.934 29.7443C243.339 29.464 242.875 29.0795 242.542 28.5909C242.209 28.0985 242.044 27.5379 242.048 26.9091C242.044 26.4167 242.14 25.9621 242.337 25.5455C242.534 25.125 242.803 24.7746 243.144 24.4943C243.489 24.2102 243.873 24.0303 244.298 23.9545V23.8864C243.741 23.7424 243.298 23.4299 242.968 22.9489C242.638 22.464 242.476 21.9129 242.479 21.2955C242.476 20.7045 242.625 20.1761 242.928 19.7102C243.231 19.2443 243.648 18.8769 244.178 18.608C244.712 18.339 245.32 18.2045 246.002 18.2045C246.676 18.2045 247.279 18.339 247.809 18.608C248.339 18.8769 248.756 19.2443 249.059 19.7102C249.366 20.1761 249.521 20.7045 249.525 21.2955C249.521 21.9129 249.353 22.464 249.019 22.9489C248.69 23.4299 248.252 23.7424 247.707 23.8864V23.9545C248.127 24.0303 248.506 24.2102 248.843 24.4943C249.18 24.7746 249.449 25.125 249.65 25.5455C249.851 25.9621 249.953 26.4167 249.957 26.9091C249.953 27.5379 249.782 28.0985 249.445 28.5909C249.112 29.0795 248.648 29.464 248.053 29.7443C247.462 30.0208 246.779 30.1591 246.002 30.1591ZM246.002 28.9091C246.529 28.9091 246.983 28.8239 247.366 28.6534C247.748 28.483 248.044 28.2424 248.252 27.9318C248.46 27.6212 248.567 27.2576 248.57 26.8409C248.567 26.4015 248.453 26.0133 248.229 25.6761C248.006 25.339 247.701 25.0739 247.315 24.8807C246.932 24.6875 246.495 24.5909 246.002 24.5909C245.506 24.5909 245.063 24.6875 244.673 24.8807C244.286 25.0739 243.981 25.339 243.758 25.6761C243.538 26.0133 243.43 26.4015 243.434 26.8409C243.43 27.2576 243.531 27.6212 243.735 27.9318C243.943 28.2424 244.241 28.483 244.627 28.6534C245.013 28.8239 245.472 28.9091 246.002 28.9091ZM246.002 23.3864C246.419 23.3864 246.788 23.303 247.11 23.1364C247.436 22.9697 247.692 22.7367 247.877 22.4375C248.063 22.1383 248.157 21.7879 248.161 21.3864C248.157 20.9924 248.065 20.6496 247.883 20.358C247.701 20.0625 247.449 19.8352 247.127 19.6761C246.805 19.5133 246.43 19.4318 246.002 19.4318C245.567 19.4318 245.186 19.5133 244.86 19.6761C244.534 19.8352 244.282 20.0625 244.104 20.358C243.926 20.6496 243.839 20.9924 243.843 21.3864C243.839 21.7879 243.928 22.1383 244.11 22.4375C244.296 22.7367 244.551 22.9697 244.877 23.1364C245.203 23.303 245.578 23.3864 246.002 23.3864Z" fill="#2F2F32"/>
<rect width="32.8" height="48" transform="translate(262.4)" fill="#F0F1F4"/>
<path d="M278.718 18.2045C279.195 18.2083 279.672 18.2992 280.15 18.4773C280.627 18.6553 281.062 18.9508 281.456 19.3636C281.85 19.7727 282.167 20.3314 282.405 21.0398C282.644 21.7481 282.763 22.6364 282.763 23.7045C282.763 24.7386 282.665 25.6572 282.468 26.4602C282.275 27.2595 281.994 27.9337 281.627 28.483C281.263 29.0322 280.82 29.4489 280.297 29.733C279.778 30.017 279.191 30.1591 278.536 30.1591C277.884 30.1591 277.303 30.0303 276.792 29.7727C276.284 29.5114 275.867 29.1496 275.542 28.6875C275.22 28.2216 275.013 27.6818 274.922 27.0682H276.309C276.434 27.6023 276.682 28.0436 277.053 28.392C277.428 28.7367 277.922 28.9091 278.536 28.9091C279.434 28.9091 280.142 28.517 280.661 27.733C281.184 26.9489 281.445 25.8409 281.445 24.4091H281.354C281.142 24.7273 280.89 25.0019 280.598 25.233C280.307 25.464 279.983 25.642 279.627 25.767C279.271 25.892 278.892 25.9545 278.49 25.9545C277.824 25.9545 277.212 25.7898 276.655 25.4602C276.102 25.1269 275.659 24.6705 275.326 24.0909C274.996 23.5076 274.831 22.8409 274.831 22.0909C274.831 21.3788 274.99 20.7273 275.309 20.1364C275.631 19.5417 276.081 19.0682 276.661 18.7159C277.244 18.3636 277.93 18.1932 278.718 18.2045ZM278.718 19.4545C278.24 19.4545 277.81 19.5739 277.428 19.8125C277.049 20.0473 276.748 20.3655 276.525 20.767C276.305 21.1648 276.195 21.6061 276.195 22.0909C276.195 22.5758 276.301 23.017 276.513 23.4148C276.729 23.8087 277.023 24.1231 277.394 24.358C277.769 24.589 278.195 24.7045 278.672 24.7045C279.032 24.7045 279.367 24.6345 279.678 24.4943C279.989 24.3504 280.259 24.1553 280.49 23.9091C280.725 23.6591 280.909 23.3769 281.042 23.0625C281.174 22.7443 281.24 22.4129 281.24 22.0682C281.24 21.6136 281.131 21.1875 280.911 20.7898C280.695 20.392 280.396 20.0701 280.013 19.8239C279.634 19.5777 279.203 19.4545 278.718 19.4545Z" fill="#2F2F32"/>
<path d="M295.199 0H315.999C322.627 0 327.999 5.37258 327.999 12V36C327.999 42.6274 322.627 48 315.999 48H295.199V0Z" fill="#F0F1F4"/>
<path d="M308.176 18.3636V30H306.767V19.8409H306.699L303.858 21.7273V20.2955L306.767 18.3636H308.176ZM315.318 30.1591C314.462 30.1591 313.733 29.9261 313.131 29.4602C312.529 28.9905 312.068 28.3106 311.75 27.4205C311.432 26.5265 311.273 25.447 311.273 24.1818C311.273 22.9242 311.432 21.8504 311.75 20.9602C312.072 20.0663 312.534 19.3845 313.137 18.9148C313.743 18.4413 314.47 18.2045 315.318 18.2045C316.167 18.2045 316.892 18.4413 317.494 18.9148C318.101 19.3845 318.563 20.0663 318.881 20.9602C319.203 21.8504 319.364 22.9242 319.364 24.1818C319.364 25.447 319.205 26.5265 318.887 27.4205C318.568 28.3106 318.108 28.9905 317.506 29.4602C316.904 29.9261 316.174 30.1591 315.318 30.1591ZM315.318 28.9091C316.167 28.9091 316.826 28.5 317.296 27.6818C317.765 26.8636 318 25.697 318 24.1818C318 23.1742 317.892 22.3163 317.676 21.608C317.464 20.8996 317.157 20.3598 316.756 19.9886C316.358 19.6174 315.879 19.4318 315.318 19.4318C314.477 19.4318 313.82 19.8466 313.347 20.6761C312.873 21.5019 312.637 22.6705 312.637 24.1818C312.637 25.1894 312.743 26.0455 312.955 26.75C313.167 27.4545 313.472 27.9905 313.869 28.358C314.271 28.7254 314.754 28.9091 315.318 28.9091Z" fill="#2F2F32"/>
</svg>
