<svg width="24" height="24" viewBox="0 0 24 24" fill="none" xmlns="http://www.w3.org/2000/svg">
<path fill-rule="evenodd" clip-rule="evenodd" d="M12 2C10.0222 2 8.08879 2.58649 6.4443 3.6853C4.79981 4.78412 3.51809 6.3459 2.76121 8.17316C2.00433 10.0004 1.8063 12.0111 2.19215 13.9509C2.578 15.8907 3.53041 17.6725 4.92894 19.0711C6.32746 20.4696 8.10929 21.422 10.0491 21.8078C11.9889 22.1937 13.9996 21.9957 15.8268 21.2388C17.6541 20.4819 19.2159 19.2002 20.3147 17.5557C21.4135 15.9112 22 13.9775 22 11.9997C21.997 9.34857 20.9425 6.80685 19.0678 4.93219C17.1931 3.05754 14.6512 2.00302 12 2ZM12.0004 3.84304C10.3513 3.84304 8.74116 4.34392 7.38311 5.27936C6.02507 6.21479 4.98318 7.54066 4.39541 9.0814C3.80764 10.6221 3.70172 12.3051 4.09167 13.9073C4.44393 15.3548 5.18585 16.6747 6.23274 17.726C6.35186 16.9352 6.72352 16.1988 7.29905 15.6309C7.99391 14.9452 8.93033 14.56 9.90654 14.5581H14.093C15.0694 14.5598 16.0064 14.945 16.7014 15.6307C17.2771 16.1986 17.6488 16.9351 17.768 17.726C18.8149 16.6747 19.5568 15.3548 19.909 13.9073C20.299 12.3051 20.1931 10.6221 19.6053 9.0814C19.0175 7.54066 17.9756 6.21479 16.6176 5.27936C15.2595 4.34392 13.6494 3.84304 12.0004 3.84304ZM9.90721 16.4186C9.41388 16.4191 8.94089 16.6153 8.59205 16.9641C8.2432 17.313 8.04701 17.786 8.04652 18.2793V19.105C9.25305 19.7831 10.6145 20.1399 12 20.1399C13.3855 20.1399 14.747 19.7831 15.9535 19.105V18.2793C15.953 17.786 15.7568 17.313 15.408 16.9641C15.0591 16.6153 14.5861 16.4191 14.0928 16.4186H9.90721Z" fill="#076EB0"/>
<path fill-rule="evenodd" clip-rule="evenodd" d="M12 6.18605C11.2641 6.18605 10.5447 6.40427 9.93276 6.81314C9.32086 7.222 8.84394 7.80313 8.56231 8.48304C8.28068 9.16295 8.20699 9.9111 8.35057 10.6329C8.49414 11.3547 8.84852 12.0177 9.36891 12.5381C9.88929 13.0585 10.5523 13.4128 11.2741 13.5564C11.9959 13.7 12.744 13.6263 13.4239 13.3447C14.1039 13.063 14.685 12.5861 15.0938 11.9742C15.5027 11.3623 15.7209 10.6429 15.7209 9.90698C15.7209 8.92012 15.3289 7.97369 14.6311 7.27588C13.9333 6.57807 12.9869 6.18605 12 6.18605ZM11.637 8.08226C11.2761 8.15405 10.9446 8.33124 10.6845 8.59143C10.4243 8.85162 10.2471 9.18312 10.1753 9.54402C10.1035 9.90491 10.1403 10.279 10.2812 10.6189C10.422 10.9589 10.6604 11.2495 10.9664 11.4539C11.2723 11.6583 11.6319 11.7674 11.9998 11.7674C12.4931 11.7669 12.9661 11.5708 13.3149 11.2219C13.6638 10.8731 13.86 10.4001 13.8605 9.90676C13.8603 8.76554 12.7702 7.85686 11.637 8.08226Z" fill="#076EB0"/>
</svg>
